<svg width="16" height="16" viewBox="0 0 16 16" fill="none" xmlns="http://www.w3.org/2000/svg">
<path d="M14.1892 5.51714L10.222 4.94058L8.44853 1.34527C8.40009 1.24683 8.3204 1.16714 8.22197 1.11871C7.97509 0.996832 7.67509 1.09839 7.55165 1.34527L5.77821 4.94058L1.81103 5.51714C1.70165 5.53277 1.60165 5.58433 1.52509 5.66246C1.43253 5.75759 1.38153 5.88558 1.38328 6.0183C1.38504 6.15102 1.43942 6.27762 1.53447 6.37027L4.40478 9.16871L3.72665 13.1203C3.71075 13.2122 3.72092 13.3067 3.75602 13.3932C3.79111 13.4796 3.84972 13.5545 3.9252 13.6093C4.00068 13.6641 4.09001 13.6967 4.18306 13.7033C4.27611 13.71 4.36916 13.6904 4.45165 13.6468L8.00009 11.7812L11.5485 13.6468C11.6454 13.6984 11.7579 13.7156 11.8657 13.6968C12.1376 13.65 12.3204 13.3921 12.2735 13.1203L11.5954 9.16871L14.4657 6.37027C14.5438 6.29371 14.5954 6.19371 14.611 6.08433C14.6532 5.81089 14.4626 5.55777 14.1892 5.51714Z" fill="#F77A55"/>
</svg>
