<?xml version="1.0" encoding="UTF-8"?>
<!DOCTYPE svg PUBLIC "-//W3C//DTD SVG 1.1//EN" "http://www.w3.org/Graphics/SVG/1.1/DTD/svg11.dtd">
<svg xmlns="http://www.w3.org/2000/svg" version="1.1" width="260px" height="260px" style="shape-rendering:geometricPrecision; text-rendering:geometricPrecision; image-rendering:optimizeQuality; fill-rule:evenodd; clip-rule:evenodd" xmlns:xlink="http://www.w3.org/1999/xlink">
<g><path style="opacity:0.992" fill="#f7f6fc" d="M 177.5,84.5 C 172.205,86.4809 167.205,88.9809 162.5,92C 165.514,91.8551 168.514,91.3551 171.5,90.5C 171.5,89.5 171.5,88.5 171.5,87.5C 172.822,87.33 173.989,87.6634 175,88.5C 176.11,86.9632 177.61,86.2965 179.5,86.5C 181.506,91.8546 184.506,96.5213 188.5,100.5C 185.503,105.33 185.836,109.83 189.5,114C 191.833,114.667 194.167,114.667 196.5,114C 197.252,113.329 197.586,112.496 197.5,111.5C 201.012,114.17 204.678,116.67 208.5,119C 238.749,129.285 255.249,150.452 258,182.5C 259.257,195.528 257.757,208.195 253.5,220.5C 245.813,219.243 238.147,219.243 230.5,220.5C 230.5,220.167 230.5,219.833 230.5,219.5C 236.914,216.293 243.247,213.126 249.5,210C 252.233,208.269 254.233,205.936 255.5,203C 253.9,200.523 251.567,199.023 248.5,198.5C 247.353,198.818 246.519,199.484 246,200.5C 244.13,199.257 241.964,198.59 239.5,198.5C 235.083,198.863 230.749,199.363 226.5,200C 231.029,198.352 231.363,196.352 227.5,194C 233.177,192.325 237.01,188.491 239,182.5C 240.833,176.333 238.667,174.167 232.5,176C 229.167,177.333 225.833,178.667 222.5,180C 220.789,181.435 219.622,183.269 219,185.5C 218.517,184.552 218.351,183.552 218.5,182.5C 216.784,182.629 215.117,182.962 213.5,183.5C 216.663,177.848 220.33,172.515 224.5,167.5C 222.524,163.166 219.857,159.499 216.5,156.5C 218.229,152.33 218.729,147.997 218,143.5C 215.847,141.556 213.347,141.056 210.5,142C 205.009,143.83 201.175,147.33 199,152.5C 198.282,151.549 197.449,151.383 196.5,152C 194,155.167 191.5,158.333 189,161.5C 191.847,153.439 194.014,145.105 195.5,136.5C 194.448,136.649 193.448,136.483 192.5,136C 196.324,132.529 195.991,129.195 191.5,126C 182.415,125.078 177.582,129.244 177,138.5C 176.282,137.549 175.449,137.383 174.5,138C 173.039,140.421 171.706,142.921 170.5,145.5C 170.043,146.298 169.376,146.631 168.5,146.5C 170.217,138.578 171.551,130.578 172.5,122.5C 172.41,120.036 171.743,117.87 170.5,116C 172.325,114.534 172.825,112.701 172,110.5C 165.29,103.512 158.124,102.846 150.5,108.5C 149.841,104.006 147.175,102.339 142.5,103.5C 142.443,102.391 142.11,101.391 141.5,100.5C 144.31,99.1196 145.643,96.7862 145.5,93.5C 143.003,88.2246 139.003,86.7246 133.5,89C 132.313,90.0195 131.313,91.1861 130.5,92.5C 131.284,95.5699 132.617,98.2366 134.5,100.5C 136.262,101.262 137.262,102.596 137.5,104.5C 135.833,105.167 134.167,105.833 132.5,106.5C 131.057,105.665 130.057,104.332 129.5,102.5C 124.619,103.671 119.952,105.338 115.5,107.5C 114.833,107.5 114.167,107.5 113.5,107.5C 111.45,107.039 109.45,106.372 107.5,105.5C 106.89,108.91 108.39,111.243 112,112.5C 112.595,113.899 112.428,115.232 111.5,116.5C 112.609,118.385 113.443,120.385 114,122.5C 114.985,123.814 116.152,124.814 117.5,125.5C 114.298,130.059 110.964,134.559 107.5,139C 108.252,139.671 108.586,140.504 108.5,141.5C 95.9043,145.136 82.9043,146.469 69.5,145.5C 68.9569,145.56 68.6236,145.893 68.5,146.5C 72.7817,148.396 74.4484,151.729 73.5,156.5C 74.0875,160.97 72.7541,164.637 69.5,167.5C 73.9819,168.326 78.6486,168.826 83.5,169C 73.8061,176.699 74.4728,183.533 85.5,189.5C 80.5,189.5 75.5,189.5 70.5,189.5C 68.5613,188.986 67.5613,187.653 67.5,185.5C 68.3958,183.199 68.5625,180.866 68,178.5C 65.6898,176.863 64.1898,174.696 63.5,172C 56.8755,168.703 52.3755,170.537 50,177.5C 49.3179,181.069 49.8179,184.402 51.5,187.5C 53.1788,187.285 54.1788,187.952 54.5,189.5C 50.1405,190.007 45.8072,190.673 41.5,191.5C 41.9175,190.778 42.5842,190.278 43.5,190C 39.7159,186.832 35.5493,185.332 31,185.5C 30.6258,184.584 30.1258,183.75 29.5,183C 17.3025,181.536 14.4692,186.036 21,196.5C 24.038,199.203 26.7046,202.203 29,205.5C 29.3988,205.272 29.5654,204.938 29.5,204.5C 30.404,205.209 30.7373,206.209 30.5,207.5C 25.6143,205.542 20.9476,203.209 16.5,200.5C 16.5,199.833 16.1667,199.5 15.5,199.5C 9.29845,164.57 10.4651,129.904 19,95.5C 26.6022,67.2722 41.4356,43.7722 63.5,25C 89.5758,6.71761 115.242,7.05094 140.5,26C 157.241,42.6331 169.574,62.1331 177.5,84.5 Z"/></g>
<g><path style="opacity:1" fill="#7470d6" d="M 136.5,77.5 C 137.833,77.5 139.167,77.5 140.5,77.5C 140.5,78.8333 140.5,80.1667 140.5,81.5C 137.5,81.8333 136.167,80.5 136.5,77.5 Z"/></g>
<g><path style="opacity:1" fill="#ea9072" d="M 179.5,86.5 C 177.61,86.2965 176.11,86.9632 175,88.5C 173.989,87.6634 172.822,87.33 171.5,87.5C 171.5,88.5 171.5,89.5 171.5,90.5C 168.514,91.3551 165.514,91.8551 162.5,92C 167.205,88.9809 172.205,86.4809 177.5,84.5C 178.821,82.5798 180.154,82.4132 181.5,84C 180.934,84.9947 180.267,85.828 179.5,86.5 Z"/></g>
<g><path style="opacity:1" fill="#332d65" d="M 141.5,100.5 C 143.081,96.6583 142.081,93.6583 138.5,91.5C 136.971,91.5288 135.804,92.1955 135,93.5C 134.503,95.8098 134.337,98.1432 134.5,100.5C 132.617,98.2366 131.284,95.5699 130.5,92.5C 131.313,91.1861 132.313,90.0195 133.5,89C 139.003,86.7246 143.003,88.2246 145.5,93.5C 145.643,96.7862 144.31,99.1196 141.5,100.5 Z"/></g>
<g><path style="opacity:1" fill="#f0c3b5" d="M 141.5,100.5 C 142.11,101.391 142.443,102.391 142.5,103.5C 141.662,103.842 141.328,104.508 141.5,105.5C 140.685,106.429 139.852,107.429 139,108.5C 138.283,107.956 137.783,107.289 137.5,106.5C 137.5,105.833 137.5,105.167 137.5,104.5C 137.262,102.596 136.262,101.262 134.5,100.5C 134.337,98.1432 134.503,95.8098 135,93.5C 135.804,92.1955 136.971,91.5288 138.5,91.5C 142.081,93.6583 143.081,96.6583 141.5,100.5 Z"/></g>
<g><path style="opacity:1" fill="#736ed6" d="M 90.5,92.5 C 90.56,91.9569 90.8933,91.6236 91.5,91.5C 94.8855,91.8328 97.5521,93.3328 99.5,96C 98.9747,96.6924 98.3081,97.1924 97.5,97.5C 95.555,95.2951 93.2217,93.6285 90.5,92.5 Z"/></g>
<g><path style="opacity:0.909" fill="#4f4aca" d="M 191.5,104.5 C 188.959,106.44 188.959,108.607 191.5,111C 193.473,111.495 195.473,111.662 197.5,111.5C 197.586,112.496 197.252,113.329 196.5,114C 194.167,114.667 191.833,114.667 189.5,114C 185.836,109.83 185.503,105.33 188.5,100.5C 191.391,99.5975 194.391,99.2641 197.5,99.5C 197.824,102.694 196.658,103.694 194,102.5C 193.005,103.066 192.172,103.733 191.5,104.5 Z"/></g>
<g><path style="opacity:1" fill="#e98a6a" d="M 50.5,99.5 C 52.4684,100.819 54.4684,100.819 56.5,99.5C 57.2485,101.332 58.2485,102.999 59.5,104.5C 57.2908,105.063 55.7908,106.396 55,108.5C 53.5093,106.996 51.676,106.163 49.5,106C 51.5582,104.192 51.8916,102.025 50.5,99.5 Z"/></g>
<g><path style="opacity:1" fill="#b8b3e7" d="M 132.5,106.5 C 131.167,107.5 131.167,108.5 132.5,109.5C 131.167,109.5 129.833,109.5 128.5,109.5C 128.5,110.833 128.5,112.167 128.5,113.5C 130.5,113.833 132.5,114.167 134.5,114.5C 133.799,118.413 133.799,122.413 134.5,126.5C 129.637,126.819 124.97,126.486 120.5,125.5C 121.376,125.631 122.043,125.298 122.5,124.5C 119.878,118.926 117.544,113.259 115.5,107.5C 119.952,105.338 124.619,103.671 129.5,102.5C 130.057,104.332 131.057,105.665 132.5,106.5 Z"/></g>
<g><path style="opacity:1" fill="#6b66d4" d="M 142.5,103.5 C 147.175,102.339 149.841,104.006 150.5,108.5C 150.5,111.833 150.5,115.167 150.5,118.5C 149.698,117.048 149.198,115.382 149,113.5C 147.895,119.388 145.395,124.388 141.5,128.5C 140.398,125.193 138.565,122.193 136,119.5C 136.083,122.119 136.25,124.786 136.5,127.5C 135.508,127.672 134.842,127.338 134.5,126.5C 133.799,122.413 133.799,118.413 134.5,114.5C 134.56,113.957 134.893,113.624 135.5,113.5C 136.833,114.5 138.167,115.5 139.5,116.5C 140.921,112.973 141.588,109.306 141.5,105.5C 141.328,104.508 141.662,103.842 142.5,103.5 Z"/></g>
<g><path style="opacity:1" fill="#b8b5e9" d="M 168.5,146.5 C 160.889,145.566 153.222,145.233 145.5,145.5C 148.615,143.712 150.615,141.046 151.5,137.5C 153.132,137.175 154.132,136.175 154.5,134.5C 152.546,129.308 151.212,123.974 150.5,118.5C 150.5,115.167 150.5,111.833 150.5,108.5C 158.124,102.846 165.29,103.512 172,110.5C 172.825,112.701 172.325,114.534 170.5,116C 171.743,117.87 172.41,120.036 172.5,122.5C 171.551,130.578 170.217,138.578 168.5,146.5 Z"/></g>
<g><path style="opacity:0.871" fill="#f3f3fb" d="M 191.5,104.5 C 193.5,106.833 195.5,109.167 197.5,111.5C 195.473,111.662 193.473,111.495 191.5,111C 188.959,108.607 188.959,106.44 191.5,104.5 Z"/></g>
<g><path style="opacity:1" fill="#564fc1" d="M 137.5,104.5 C 137.5,105.167 137.5,105.833 137.5,106.5C 136.325,107.974 135.325,109.64 134.5,111.5C 133.478,111.145 132.811,110.478 132.5,109.5C 131.167,108.5 131.167,107.5 132.5,106.5C 134.167,105.833 135.833,105.167 137.5,104.5 Z"/></g>
<g><path style="opacity:1" fill="#b8b4e9" d="M 113.5,107.5 C 115.833,113.5 118.167,119.5 120.5,125.5C 119.5,125.5 118.5,125.5 117.5,125.5C 116.152,124.814 114.985,123.814 114,122.5C 113.443,120.385 112.609,118.385 111.5,116.5C 112.428,115.232 112.595,113.899 112,112.5C 108.39,111.243 106.89,108.91 107.5,105.5C 109.45,106.372 111.45,107.039 113.5,107.5 Z"/></g>
<g><path style="opacity:0.836" fill="#e8825c" d="M 216.5,105.5 C 217.304,107.189 218.304,108.855 219.5,110.5C 218.675,111.386 217.675,111.719 216.5,111.5C 216.719,112.675 216.386,113.675 215.5,114.5C 214.476,113.147 213.143,112.48 211.5,112.5C 212.052,110.669 212.052,109.003 211.5,107.5C 213.291,106.83 214.958,106.163 216.5,105.5 Z"/></g>
<g><path style="opacity:1" fill="#7b76d8" d="M 74.5,107.5 C 77.8621,107.07 80.6954,108.07 83,110.5C 83.8651,112.888 83.0317,114.388 80.5,115C 83.1667,117 83.1667,119 80.5,121C 76.9606,121.863 73.9606,121.03 71.5,118.5C 72.9702,114.952 73.9702,111.285 74.5,107.5 Z"/></g>
<g><path style="opacity:1" fill="#f2e6ea" d="M 141.5,105.5 C 141.588,109.306 140.921,112.973 139.5,116.5C 138.167,115.5 136.833,114.5 135.5,113.5C 134.893,113.624 134.56,113.957 134.5,114.5C 132.5,114.167 130.5,113.833 128.5,113.5C 128.5,112.167 128.5,110.833 128.5,109.5C 129.833,109.5 131.167,109.5 132.5,109.5C 132.811,110.478 133.478,111.145 134.5,111.5C 135.325,109.64 136.325,107.974 137.5,106.5C 137.783,107.289 138.283,107.956 139,108.5C 139.852,107.429 140.685,106.429 141.5,105.5 Z"/></g>
<g><path style="opacity:1" fill="#d8d7f3" d="M 76.5,110.5 C 77.9778,110.238 79.3112,110.571 80.5,111.5C 79.6798,113.111 78.3464,113.778 76.5,113.5C 76.5,112.5 76.5,111.5 76.5,110.5 Z"/></g>
<g><path style="opacity:1" fill="#7571d7" d="M 113.5,107.5 C 114.167,107.5 114.833,107.5 115.5,107.5C 117.544,113.259 119.878,118.926 122.5,124.5C 122.043,125.298 121.376,125.631 120.5,125.5C 118.167,119.5 115.833,113.5 113.5,107.5 Z"/></g>
<g><path style="opacity:1" fill="#f3f3fb" d="M 75.5,115.5 C 76.5,115.5 77.5,115.5 78.5,115.5C 78.5,116.5 78.5,117.5 78.5,118.5C 77.5,118.5 76.5,118.5 75.5,118.5C 75.5,117.5 75.5,116.5 75.5,115.5 Z"/></g>
<g><path style="opacity:1" fill="#4744c9" d="M 150.5,118.5 C 151.212,123.974 152.546,129.308 154.5,134.5C 154.132,136.175 153.132,137.175 151.5,137.5C 147.207,139.848 144.207,138.848 142.5,134.5C 141.85,132.565 141.517,130.565 141.5,128.5C 145.395,124.388 147.895,119.388 149,113.5C 149.198,115.382 149.698,117.048 150.5,118.5 Z"/></g>
<g><path style="opacity:1" fill="#f5f0f6" d="M 141.5,128.5 C 141.517,130.565 141.85,132.565 142.5,134.5C 141.167,134.5 139.833,134.5 138.5,134.5C 137.061,132.412 136.394,130.079 136.5,127.5C 136.25,124.786 136.083,122.119 136,119.5C 138.565,122.193 140.398,125.193 141.5,128.5 Z"/></g>
<g><path style="opacity:1" fill="#eda58d" d="M 117.5,125.5 C 118.5,125.5 119.5,125.5 120.5,125.5C 124.97,126.486 129.637,126.819 134.5,126.5C 134.842,127.338 135.508,127.672 136.5,127.5C 136.394,130.079 137.061,132.412 138.5,134.5C 136.079,134.878 133.746,135.545 131.5,136.5C 129.854,134.188 127.854,132.188 125.5,130.5C 121.421,134.588 117.088,138.255 112.5,141.5C 111.167,141.5 109.833,141.5 108.5,141.5C 108.586,140.504 108.252,139.671 107.5,139C 110.964,134.559 114.298,130.059 117.5,125.5 Z"/></g>
<g><path style="opacity:1" fill="#e98767" d="M 37.5,129.5 C 42.0487,131.869 46.2154,134.869 50,138.5C 50.4828,139.448 50.6495,140.448 50.5,141.5C 48.1845,140.64 45.8511,140.14 43.5,140C 42.5769,142.041 42.2436,144.208 42.5,146.5C 41.1779,146.67 40.0113,146.337 39,145.5C 37.486,140.137 36.986,134.803 37.5,129.5 Z"/></g>
<g><path style="opacity:1" fill="#f7f3f6" d="M 131.5,136.5 C 127.148,136.846 123.481,138.512 120.5,141.5C 119.566,142.568 119.232,143.901 119.5,145.5C 117.5,145.5 115.5,145.5 113.5,145.5C 113.567,144.041 113.234,142.708 112.5,141.5C 117.088,138.255 121.421,134.588 125.5,130.5C 127.854,132.188 129.854,134.188 131.5,136.5 Z"/></g>
<g><path style="opacity:1" fill="#e78060" d="M 138.5,134.5 C 139.833,134.5 141.167,134.5 142.5,134.5C 144.207,138.848 147.207,139.848 151.5,137.5C 150.615,141.046 148.615,143.712 145.5,145.5C 144.5,145.5 143.5,145.5 142.5,145.5C 137.305,145.179 132.305,145.513 127.5,146.5C 127.5,153.5 127.5,160.5 127.5,167.5C 126.5,167.5 125.5,167.5 124.5,167.5C 123.833,167.5 123.167,167.5 122.5,167.5C 121.363,158.873 120.696,150.206 120.5,141.5C 123.481,138.512 127.148,136.846 131.5,136.5C 133.746,135.545 136.079,134.878 138.5,134.5 Z"/></g>
<g><path style="opacity:1" fill="#7e79d9" d="M 226.5,133.5 C 229.314,133.403 231.314,134.569 232.5,137C 231.056,139.449 229.222,141.615 227,143.5C 226.308,142.975 225.808,142.308 225.5,141.5C 226.5,140.167 227.5,138.833 228.5,137.5C 226.204,136.632 225.537,135.298 226.5,133.5 Z"/></g>
<g><path style="opacity:1" fill="#b8b5e9" d="M 216.5,156.5 C 215.974,158.23 214.974,159.564 213.5,160.5C 213.092,159.357 212.425,158.357 211.5,157.5C 209.674,159.147 208.34,161.147 207.5,163.5C 205.066,166.438 202.399,169.271 199.5,172C 197.402,172.678 195.402,172.511 193.5,171.5C 192.152,170.399 190.652,169.399 189,168.5C 188.33,165.826 187.163,163.493 185.5,161.5C 188.144,159.484 188.977,156.817 188,153.5C 187.329,152.748 186.496,152.414 185.5,152.5C 185.918,151.778 186.584,151.278 187.5,151C 183.463,147.381 179.963,147.881 177,152.5C 176.138,154.087 175.471,155.754 175,157.5C 174.79,155.942 174.29,154.609 173.5,153.5C 172.246,150.907 170.58,148.573 168.5,146.5C 169.376,146.631 170.043,146.298 170.5,145.5C 171.706,142.921 173.039,140.421 174.5,138C 175.449,137.383 176.282,137.549 177,138.5C 177.582,129.244 182.415,125.078 191.5,126C 195.991,129.195 196.324,132.529 192.5,136C 193.448,136.483 194.448,136.649 195.5,136.5C 194.014,145.105 191.847,153.439 189,161.5C 191.5,158.333 194,155.167 196.5,152C 197.449,151.383 198.282,151.549 199,152.5C 201.175,147.33 205.009,143.83 210.5,142C 213.347,141.056 215.847,141.556 218,143.5C 218.729,147.997 218.229,152.33 216.5,156.5 Z"/></g>
<g><path style="opacity:1" fill="#443ea0" d="M 108.5,141.5 C 109.833,141.5 111.167,141.5 112.5,141.5C 113.234,142.708 113.567,144.041 113.5,145.5C 115.5,145.5 117.5,145.5 119.5,145.5C 102.833,146.833 86.1667,146.833 69.5,145.5C 82.9043,146.469 95.9043,145.136 108.5,141.5 Z"/></g>
<g><path style="opacity:1" fill="#7b57a6" d="M 127.5,146.5 C 132.305,145.513 137.305,145.179 142.5,145.5C 139.167,146.167 135.833,146.833 132.5,147.5C 130.958,146.699 129.292,146.366 127.5,146.5 Z"/></g>
<g><path style="opacity:1" fill="#4341c9" d="M 142.5,145.5 C 143.5,145.5 144.5,145.5 145.5,145.5C 153.222,145.233 160.889,145.566 168.5,146.5C 170.58,148.573 172.246,150.907 173.5,153.5C 174.703,159.468 172.369,163.301 166.5,165C 165.695,166.113 165.028,167.279 164.5,168.5C 152.167,168.5 139.833,168.5 127.5,168.5C 127.5,168.167 127.5,167.833 127.5,167.5C 135.805,166.369 139.305,161.702 138,153.5C 136.839,150.815 135.006,148.815 132.5,147.5C 135.833,146.833 139.167,146.167 142.5,145.5 Z"/></g>
<g><path style="opacity:1" fill="#7570d6" d="M 224.5,144.5 C 225.5,144.5 226.5,144.5 227.5,144.5C 227.5,145.5 227.5,146.5 227.5,147.5C 226.5,147.5 225.5,147.5 224.5,147.5C 224.5,146.5 224.5,145.5 224.5,144.5 Z"/></g>
<g><path style="opacity:1" fill="#dbdaf3" d="M 120.5,141.5 C 120.696,150.206 121.363,158.873 122.5,167.5C 104.833,167.5 87.1667,167.5 69.5,167.5C 72.7541,164.637 74.0875,160.97 73.5,156.5C 74.4484,151.729 72.7817,148.396 68.5,146.5C 68.6236,145.893 68.9569,145.56 69.5,145.5C 86.1667,146.833 102.833,146.833 119.5,145.5C 119.232,143.901 119.566,142.568 120.5,141.5 Z"/></g>
<g><path style="opacity:1" fill="#dad7ef" d="M 127.5,146.5 C 129.292,146.366 130.958,146.699 132.5,147.5C 135.006,148.815 136.839,150.815 138,153.5C 139.305,161.702 135.805,166.369 127.5,167.5C 127.5,160.5 127.5,153.5 127.5,146.5 Z"/></g>
<g><path style="opacity:1" fill="#2c2984" d="M 185.5,152.5 C 183.901,154.309 181.901,155.642 179.5,156.5C 181.13,159.276 181.797,162.276 181.5,165.5C 178.549,166.809 177.216,169.143 177.5,172.5C 177.5,175.5 177.5,178.5 177.5,181.5C 169.829,181.832 165.496,178.165 164.5,170.5C 164.5,169.833 164.5,169.167 164.5,168.5C 165.028,167.279 165.695,166.113 166.5,165C 172.369,163.301 174.703,159.468 173.5,153.5C 174.29,154.609 174.79,155.942 175,157.5C 175.471,155.754 176.138,154.087 177,152.5C 179.963,147.881 183.463,147.381 187.5,151C 186.584,151.278 185.918,151.778 185.5,152.5 Z"/></g>
<g><path style="opacity:1" fill="#dbdbf4" d="M 59.5,161.5 C 58.1667,161.5 56.8333,161.5 55.5,161.5C 55.5,162.5 55.5,163.5 55.5,164.5C 53.8238,162.114 52.4905,159.447 51.5,156.5C 53.4334,150.679 56.6,150.012 61,154.5C 61.6004,157.095 61.1004,159.429 59.5,161.5 Z"/></g>
<g><path style="opacity:1" fill="#eac0b7" d="M 185.5,152.5 C 186.496,152.414 187.329,152.748 188,153.5C 188.977,156.817 188.144,159.484 185.5,161.5C 185.261,163.467 185.594,165.301 186.5,167C 184.811,166.866 183.144,166.366 181.5,165.5C 181.797,162.276 181.13,159.276 179.5,156.5C 181.901,155.642 183.901,154.309 185.5,152.5 Z"/></g>
<g><path style="opacity:1" fill="#e88262" d="M 216.5,156.5 C 219.857,159.499 222.524,163.166 224.5,167.5C 220.33,172.515 216.663,177.848 213.5,183.5C 212.833,183.5 212.5,183.833 212.5,184.5C 211.849,185.091 211.182,185.757 210.5,186.5C 207.648,185.211 204.982,185.544 202.5,187.5C 201.094,187.027 200.427,186.027 200.5,184.5C 202.973,184.396 203.639,183.396 202.5,181.5C 204.776,178.246 207.943,176.579 212,176.5C 212.167,176.167 212.333,175.833 212.5,175.5C 209.79,173.48 207.29,173.48 205,175.5C 204.833,175.167 204.667,174.833 204.5,174.5C 208.02,170.116 211.02,165.45 213.5,160.5C 214.974,159.564 215.974,158.23 216.5,156.5 Z"/></g>
<g><path style="opacity:1" fill="#5e57cf" d="M 59.5,161.5 C 59.5,163.167 59.5,164.833 59.5,166.5C 57.5168,166.843 56.1834,166.176 55.5,164.5C 55.5,163.5 55.5,162.5 55.5,161.5C 56.8333,161.5 58.1667,161.5 59.5,161.5 Z"/></g>
<g><path style="opacity:1" fill="#645ecd" d="M 185.5,161.5 C 187.163,163.493 188.33,165.826 189,168.5C 190.652,169.399 192.152,170.399 193.5,171.5C 192.833,172.5 192.167,173.5 191.5,174.5C 189.178,175.802 187.845,177.802 187.5,180.5C 183.878,178.213 180.545,175.547 177.5,172.5C 177.216,169.143 178.549,166.809 181.5,165.5C 183.144,166.366 184.811,166.866 186.5,167C 185.594,165.301 185.261,163.467 185.5,161.5 Z"/></g>
<g><path style="opacity:1" fill="#3a368b" d="M 32.5,166.5 C 34.1238,166.36 35.2904,167.027 36,168.5C 37.7179,171.278 37.7179,173.944 36,176.5C 34.1319,173.395 32.9652,170.062 32.5,166.5 Z"/></g>
<g><path style="opacity:1" fill="#6a66d3" d="M 69.5,167.5 C 87.1667,167.5 104.833,167.5 122.5,167.5C 123.167,167.5 123.833,167.5 124.5,167.5C 124.5,168.5 124.5,169.5 124.5,170.5C 113.94,169.215 110.107,173.548 113,183.5C 114.167,184.667 115.333,185.833 116.5,187C 124.235,186.863 131.568,187.696 138.5,189.5C 120.833,189.5 103.167,189.5 85.5,189.5C 74.4728,183.533 73.8061,176.699 83.5,169C 78.6486,168.826 73.9819,168.326 69.5,167.5 Z"/></g>
<g><path style="opacity:1" fill="#e58568" d="M 207.5,163.5 C 207.938,163.435 208.272,163.601 208.5,164C 206.85,167.485 204.85,170.651 202.5,173.5C 200.637,175.705 198.303,177.039 195.5,177.5C 193.924,176.857 192.59,175.857 191.5,174.5C 192.167,173.5 192.833,172.5 193.5,171.5C 195.402,172.511 197.402,172.678 199.5,172C 202.399,169.271 205.066,166.438 207.5,163.5 Z"/></g>
<g><path style="opacity:1" fill="#353087" d="M 127.5,169.5 C 128.791,169.263 129.791,169.596 130.5,170.5C 128.57,174.1 125.903,177.1 122.5,179.5C 122.167,179.167 121.833,178.833 121.5,178.5C 122.78,174.917 124.78,171.917 127.5,169.5 Z"/></g>
<g><path style="opacity:1" fill="#7672d6" d="M 127.5,169.5 C 127.5,169.167 127.5,168.833 127.5,168.5C 139.833,168.5 152.167,168.5 164.5,168.5C 164.5,169.167 164.5,169.833 164.5,170.5C 153.167,170.5 141.833,170.5 130.5,170.5C 129.791,169.596 128.791,169.263 127.5,169.5 Z"/></g>
<g><path style="opacity:1" fill="#dcd8ed" d="M 124.5,167.5 C 125.5,167.5 126.5,167.5 127.5,167.5C 127.5,167.833 127.5,168.167 127.5,168.5C 127.5,168.833 127.5,169.167 127.5,169.5C 124.78,171.917 122.78,174.917 121.5,178.5C 121.833,178.833 122.167,179.167 122.5,179.5C 125.903,177.1 128.57,174.1 130.5,170.5C 141.833,170.5 153.167,170.5 164.5,170.5C 165.496,178.165 169.829,181.832 177.5,181.5C 177.5,183.5 177.5,185.5 177.5,187.5C 167.442,186.86 157.775,187.527 148.5,189.5C 148.5,190.167 148.5,190.833 148.5,191.5C 148.5,196.167 148.5,200.833 148.5,205.5C 148.167,205.5 147.833,205.5 147.5,205.5C 147.5,196.833 147.5,188.167 147.5,179.5C 144.482,179.335 141.482,179.502 138.5,180C 139.483,188.415 139.817,196.915 139.5,205.5C 139.167,205.5 138.833,205.5 138.5,205.5C 138.5,200.833 138.5,196.167 138.5,191.5C 138.5,190.833 138.5,190.167 138.5,189.5C 131.568,187.696 124.235,186.863 116.5,187C 115.333,185.833 114.167,184.667 113,183.5C 110.107,173.548 113.94,169.215 124.5,170.5C 124.5,169.5 124.5,168.5 124.5,167.5 Z"/></g>
<g><path style="opacity:1" fill="#201e5c" d="M 70.5,189.5 C 70.7845,191.415 70.4511,193.081 69.5,194.5C 68.8571,192.924 67.8571,191.59 66.5,190.5C 64.6264,189.715 62.6264,189.048 60.5,188.5C 59.8571,184.599 60.8571,181.266 63.5,178.5C 62.82,173.641 60.1533,171.807 55.5,173C 51.8826,175.887 51.7159,179.053 55,182.5C 55.4966,184.81 55.6633,187.143 55.5,189.5C 55.1667,189.5 54.8333,189.5 54.5,189.5C 54.1788,187.952 53.1788,187.285 51.5,187.5C 49.8179,184.402 49.3179,181.069 50,177.5C 52.3755,170.537 56.8755,168.703 63.5,172C 64.1898,174.696 65.6898,176.863 68,178.5C 68.5625,180.866 68.3958,183.199 67.5,185.5C 67.5613,187.653 68.5613,188.986 70.5,189.5 Z"/></g>
<g><path style="opacity:1" fill="#e6bcb1" d="M 60.5,188.5 C 60.6308,191.367 59.2974,193.033 56.5,193.5C 56.5674,192.041 56.2341,190.708 55.5,189.5C 55.6633,187.143 55.4966,184.81 55,182.5C 51.7159,179.053 51.8826,175.887 55.5,173C 60.1533,171.807 62.82,173.641 63.5,178.5C 60.8571,181.266 59.8571,184.599 60.5,188.5 Z"/></g>
<g><path style="opacity:1" fill="#4240c7" d="M 177.5,172.5 C 180.545,175.547 183.878,178.213 187.5,180.5C 188.167,180.833 188.833,181.167 189.5,181.5C 189.5,184.833 189.5,188.167 189.5,191.5C 188.758,194.138 186.925,195.471 184,195.5C 181.991,195.242 180.157,194.575 178.5,193.5C 178.5,192.833 178.5,192.167 178.5,191.5C 178.5,190.833 178.5,190.167 178.5,189.5C 178.806,186.615 178.473,183.948 177.5,181.5C 177.5,178.5 177.5,175.5 177.5,172.5 Z"/></g>
<g><path style="opacity:1" fill="#eac3be" d="M 213.5,160.5 C 211.02,165.45 208.02,170.116 204.5,174.5C 204.667,174.833 204.833,175.167 205,175.5C 207.29,173.48 209.79,173.48 212.5,175.5C 212.333,175.833 212.167,176.167 212,176.5C 207.943,176.579 204.776,178.246 202.5,181.5C 203.639,183.396 202.973,184.396 200.5,184.5C 198.833,185.167 197.167,185.833 195.5,186.5C 193.54,184.844 191.54,183.177 189.5,181.5C 188.833,181.167 188.167,180.833 187.5,180.5C 187.845,177.802 189.178,175.802 191.5,174.5C 192.59,175.857 193.924,176.857 195.5,177.5C 195.062,177.435 194.728,177.601 194.5,178C 196.57,180.791 198.736,180.624 201,177.5C 201.791,176.255 202.291,174.922 202.5,173.5C 204.85,170.651 206.85,167.485 208.5,164C 208.272,163.601 207.938,163.435 207.5,163.5C 208.34,161.147 209.674,159.147 211.5,157.5C 212.425,158.357 213.092,159.357 213.5,160.5 Z"/></g>
<g><path style="opacity:1" fill="#bab6ea" d="M 230.5,219.5 C 229.583,217.338 229.583,215.005 230.5,212.5C 231.837,211.685 232.837,210.518 233.5,209C 233.272,208.601 232.938,208.435 232.5,208.5C 231.225,206.27 229.225,204.937 226.5,204.5C 222.721,198.642 218.221,193.308 213,188.5C 212.51,187.207 212.343,185.873 212.5,184.5C 212.5,183.833 212.833,183.5 213.5,183.5C 215.117,182.962 216.784,182.629 218.5,182.5C 218.351,183.552 218.517,184.552 219,185.5C 219.622,183.269 220.789,181.435 222.5,180C 225.833,178.667 229.167,177.333 232.5,176C 238.667,174.167 240.833,176.333 239,182.5C 237.01,188.491 233.177,192.325 227.5,194C 231.363,196.352 231.029,198.352 226.5,200C 230.749,199.363 235.083,198.863 239.5,198.5C 241.964,198.59 244.13,199.257 246,200.5C 246.519,199.484 247.353,198.818 248.5,198.5C 251.567,199.023 253.9,200.523 255.5,203C 254.233,205.936 252.233,208.269 249.5,210C 243.247,213.126 236.914,216.293 230.5,219.5 Z"/></g>
<g><path style="opacity:1" fill="#262580" d="M 36.5,177.5 C 37.5,177.5 38.5,177.5 39.5,177.5C 39.5,178.5 39.5,179.5 39.5,180.5C 38.5,180.5 37.5,180.5 36.5,180.5C 36.5,179.5 36.5,178.5 36.5,177.5 Z"/></g>
<g><path style="opacity:1" fill="#c0b2dc" d="M 202.5,173.5 C 202.291,174.922 201.791,176.255 201,177.5C 198.736,180.624 196.57,180.791 194.5,178C 194.728,177.601 195.062,177.435 195.5,177.5C 198.303,177.039 200.637,175.705 202.5,173.5 Z"/></g>
<g><path style="opacity:1" fill="#e7805f" d="M 147.5,205.5 C 144.833,202.833 142.167,202.833 139.5,205.5C 139.817,196.915 139.483,188.415 138.5,180C 141.482,179.502 144.482,179.335 147.5,179.5C 147.5,188.167 147.5,196.833 147.5,205.5 Z"/></g>
<g><path style="opacity:1" fill="#726cd5" d="M 41.5,191.5 C 40.5,191.5 39.5,191.5 38.5,191.5C 37.653,190.034 36.3197,189.2 34.5,189C 31.9615,188.204 29.6282,188.371 27.5,189.5C 26.4138,189.62 25.7472,190.287 25.5,191.5C 26.4669,193.762 27.1336,196.095 27.5,198.5C 27.1201,200.698 27.7868,202.365 29.5,203.5C 29.5,203.833 29.5,204.167 29.5,204.5C 29.5654,204.938 29.3988,205.272 29,205.5C 26.7046,202.203 24.038,199.203 21,196.5C 14.4692,186.036 17.3025,181.536 29.5,183C 30.1258,183.75 30.6258,184.584 31,185.5C 35.5493,185.332 39.7159,186.832 43.5,190C 42.5842,190.278 41.9175,190.778 41.5,191.5 Z"/></g>
<g><path style="opacity:1" fill="#aeaae4" d="M 189.5,181.5 C 191.54,183.177 193.54,184.844 195.5,186.5C 193.909,188.633 191.909,190.299 189.5,191.5C 189.5,188.167 189.5,184.833 189.5,181.5 Z"/></g>
<g><path style="opacity:1" fill="#2f277f" d="M 200.5,184.5 C 200.427,186.027 201.094,187.027 202.5,187.5C 203.758,189.687 204.758,192.02 205.5,194.5C 206.714,196.808 206.714,199.141 205.5,201.5C 200.493,203.337 195.827,205.67 191.5,208.5C 151.573,208.543 111.573,208.543 71.5,208.5C 71.1667,208.5 70.8333,208.5 70.5,208.5C 70.5628,203.797 70.2295,199.13 69.5,194.5C 70.4511,193.081 70.7845,191.415 70.5,189.5C 75.5,189.5 80.5,189.5 85.5,189.5C 103.167,189.5 120.833,189.5 138.5,189.5C 138.5,190.167 138.5,190.833 138.5,191.5C 133.821,191.334 129.155,191.501 124.5,192C 118.986,197.049 119.319,201.549 125.5,205.5C 143.338,206.827 161.338,206.827 179.5,205.5C 179.376,204.893 179.043,204.56 178.5,204.5C 178.5,200.833 178.5,197.167 178.5,193.5C 180.157,194.575 181.991,195.242 184,195.5C 186.925,195.471 188.758,194.138 189.5,191.5C 191.909,190.299 193.909,188.633 195.5,186.5C 197.167,185.833 198.833,185.167 200.5,184.5 Z"/></g>
<g><path style="opacity:1" fill="#efc3b8" d="M 212.5,184.5 C 212.343,185.873 212.51,187.207 213,188.5C 218.221,193.308 222.721,198.642 226.5,204.5C 224.833,204.5 223.167,204.5 221.5,204.5C 220.833,204.5 220.167,204.5 219.5,204.5C 216.473,200.804 213.473,197.804 210.5,195.5C 209.849,194.909 209.182,194.243 208.5,193.5C 207.583,194.127 206.583,194.461 205.5,194.5C 204.758,192.02 203.758,189.687 202.5,187.5C 204.982,185.544 207.648,185.211 210.5,186.5C 211.182,185.757 211.849,185.091 212.5,184.5 Z"/></g>
<g><path style="opacity:1" fill="#6b67d3" d="M 177.5,181.5 C 178.473,183.948 178.806,186.615 178.5,189.5C 168.5,189.5 158.5,189.5 148.5,189.5C 157.775,187.527 167.442,186.86 177.5,187.5C 177.5,185.5 177.5,183.5 177.5,181.5 Z"/></g>
<g><path style="opacity:1" fill="#dbd4e9" d="M 27.5,189.5 C 29.6282,188.371 31.9615,188.204 34.5,189C 36.3197,189.2 37.653,190.034 38.5,191.5C 34.8333,190.833 31.1667,190.167 27.5,189.5 Z"/></g>
<g><path style="opacity:1" fill="#e78160" d="M 27.5,189.5 C 31.1667,190.167 34.8333,190.833 38.5,191.5C 39.5,191.5 40.5,191.5 41.5,191.5C 45.8072,190.673 50.1405,190.007 54.5,189.5C 54.8333,189.5 55.1667,189.5 55.5,189.5C 56.2341,190.708 56.5674,192.041 56.5,193.5C 56.5,194.167 56.5,194.833 56.5,195.5C 54.9581,196.163 53.2914,196.83 51.5,197.5C 52.6405,198.425 52.6405,199.259 51.5,200C 53.5938,201.352 55.9272,201.852 58.5,201.5C 59.1115,204.696 59.1115,207.696 58.5,210.5C 53.201,202.387 48.201,202.721 43.5,211.5C 40.5274,212.509 37.5274,212.509 34.5,211.5C 32.2901,211.106 30.9568,209.773 30.5,207.5C 30.7373,206.209 30.404,205.209 29.5,204.5C 29.5,204.167 29.5,203.833 29.5,203.5C 32.1123,201.012 31.4457,199.345 27.5,198.5C 27.1336,196.095 26.4669,193.762 25.5,191.5C 25.7472,190.287 26.4138,189.62 27.5,189.5 Z"/></g>
<g><path style="opacity:1" fill="#6f66ce" d="M 60.5,188.5 C 62.6264,189.048 64.6264,189.715 66.5,190.5C 65.5416,190.953 64.7083,191.619 64,192.5C 63.5034,194.81 63.3367,197.143 63.5,199.5C 61.6644,197.412 59.3311,196.079 56.5,195.5C 56.5,194.833 56.5,194.167 56.5,193.5C 59.2974,193.033 60.6308,191.367 60.5,188.5 Z"/></g>
<g><path style="opacity:1" fill="#252380" d="M 148.5,189.5 C 158.5,189.5 168.5,189.5 178.5,189.5C 178.5,190.167 178.5,190.833 178.5,191.5C 168.5,191.5 158.5,191.5 148.5,191.5C 148.5,190.833 148.5,190.167 148.5,189.5 Z"/></g>
<g><path style="opacity:1" fill="#4541c6" d="M 66.5,190.5 C 67.8571,191.59 68.8571,192.924 69.5,194.5C 70.2295,199.13 70.5628,203.797 70.5,208.5C 70.5654,208.938 70.3988,209.272 70,209.5C 68.0718,205.968 65.9052,202.634 63.5,199.5C 63.3367,197.143 63.5034,194.81 64,192.5C 64.7083,191.619 65.5416,190.953 66.5,190.5 Z"/></g>
<g><path style="opacity:1" fill="#dbdbf2" d="M 138.5,191.5 C 138.5,196.167 138.5,200.833 138.5,205.5C 134.167,205.5 129.833,205.5 125.5,205.5C 119.319,201.549 118.986,197.049 124.5,192C 129.155,191.501 133.821,191.334 138.5,191.5 Z"/></g>
<g><path style="opacity:1" fill="#dcdcf3" d="M 148.5,191.5 C 158.5,191.5 168.5,191.5 178.5,191.5C 178.5,192.167 178.5,192.833 178.5,193.5C 178.5,197.167 178.5,200.833 178.5,204.5C 168.681,205.494 158.681,205.827 148.5,205.5C 148.5,200.833 148.5,196.167 148.5,191.5 Z"/></g>
<g><path style="opacity:1" fill="#b7addd" d="M 210.5,195.5 C 211.913,198.661 213.58,201.661 215.5,204.5C 214.566,205.568 214.232,206.901 214.5,208.5C 206.833,208.5 199.167,208.5 191.5,208.5C 195.827,205.67 200.493,203.337 205.5,201.5C 206.714,199.141 206.714,196.808 205.5,194.5C 206.583,194.461 207.583,194.127 208.5,193.5C 209.182,194.243 209.849,194.909 210.5,195.5 Z"/></g>
<g><path style="opacity:1" fill="#ecbcb2" d="M 56.5,195.5 C 59.3311,196.079 61.6644,197.412 63.5,199.5C 65.9052,202.634 68.0718,205.968 70,209.5C 70.3988,209.272 70.5654,208.938 70.5,208.5C 70.8333,208.5 71.1667,208.5 71.5,208.5C 71.1667,210.5 70.8333,212.5 70.5,214.5C 68.1417,214.747 66.1417,214.081 64.5,212.5C 63.1796,209.188 61.8462,205.855 60.5,202.5C 60.0431,201.702 59.3764,201.369 58.5,201.5C 55.9272,201.852 53.5938,201.352 51.5,200C 52.6405,199.259 52.6405,198.425 51.5,197.5C 53.2914,196.83 54.9581,196.163 56.5,195.5 Z"/></g>
<g><path style="opacity:0.975" fill="#6a66d4" d="M 15.5,199.5 C 16.1667,199.5 16.5,199.833 16.5,200.5C 20.9476,203.209 25.6143,205.542 30.5,207.5C 30.9568,209.773 32.2901,211.106 34.5,211.5C 33.7464,215.564 32.2464,219.23 30,222.5C 27.2764,221.313 24.4431,220.647 21.5,220.5C 12.8023,217.769 5.46894,213.103 -0.5,206.5C -0.5,204.167 -0.5,201.833 -0.5,199.5C 0.988468,198.061 2.8218,197.395 5,197.5C 8.52717,198.091 12.0272,198.758 15.5,199.5 Z"/></g>
<g><path style="opacity:1" fill="#e6b9b2" d="M 27.5,198.5 C 31.4457,199.345 32.1123,201.012 29.5,203.5C 27.7868,202.365 27.1201,200.698 27.5,198.5 Z"/></g>
<g><path style="opacity:1" fill="#e58366" d="M 219.5,204.5 C 218.167,204.5 216.833,204.5 215.5,204.5C 213.58,201.661 211.913,198.661 210.5,195.5C 213.473,197.804 216.473,200.804 219.5,204.5 Z"/></g>
<g><path style="opacity:1" fill="#746bd0" d="M 58.5,201.5 C 59.3764,201.369 60.0431,201.702 60.5,202.5C 61.8462,205.855 63.1796,209.188 64.5,212.5C 64.448,214.903 64.7814,217.236 65.5,219.5C 62.9362,216.72 60.6029,213.72 58.5,210.5C 59.1115,207.696 59.1115,204.696 58.5,201.5 Z"/></g>
<g><path style="opacity:1" fill="#dddcf2" d="M 58.5,210.5 C 60.6029,213.72 62.9362,216.72 65.5,219.5C 70.0684,224.638 70.4017,229.972 66.5,235.5C 66.1667,235.5 65.8333,235.5 65.5,235.5C 61.5709,236.412 57.5709,236.412 53.5,235.5C 48.779,233.785 45.6123,230.452 44,225.5C 41.2532,228.754 38.0865,231.42 34.5,233.5C 33.5637,232.026 32.2303,231.026 30.5,230.5C 30.5,228.5 30.5,226.5 30.5,224.5C 27.8728,223.908 25.2062,223.575 22.5,223.5C 21.8902,222.609 21.5569,221.609 21.5,220.5C 24.4431,220.647 27.2764,221.313 30,222.5C 32.2464,219.23 33.7464,215.564 34.5,211.5C 37.5274,212.509 40.5274,212.509 43.5,211.5C 48.201,202.721 53.201,202.387 58.5,210.5 Z"/></g>
<g><path style="opacity:1" fill="#4642c7" d="M 215.5,204.5 C 216.833,204.5 218.167,204.5 219.5,204.5C 220.167,204.5 220.833,204.5 221.5,204.5C 221.5,205.833 221.5,207.167 221.5,208.5C 219.167,208.5 216.833,208.5 214.5,208.5C 214.232,206.901 214.566,205.568 215.5,204.5 Z"/></g>
<g><path style="opacity:1" fill="#6f69d2" d="M 221.5,204.5 C 223.167,204.5 224.833,204.5 226.5,204.5C 229.225,204.937 231.225,206.27 232.5,208.5C 228.833,208.5 225.167,208.5 221.5,208.5C 221.5,207.167 221.5,205.833 221.5,204.5 Z"/></g>
<g><path style="opacity:1" fill="#918fc1" d="M 147.5,205.5 C 147.833,205.5 148.167,205.5 148.5,205.5C 158.681,205.827 168.681,205.494 178.5,204.5C 179.043,204.56 179.376,204.893 179.5,205.5C 161.338,206.827 143.338,206.827 125.5,205.5C 129.833,205.5 134.167,205.5 138.5,205.5C 138.833,205.5 139.167,205.5 139.5,205.5C 142.167,202.833 144.833,202.833 147.5,205.5 Z"/></g>
<g><path style="opacity:1" fill="#e78160" d="M 71.5,208.5 C 111.573,208.543 151.573,208.543 191.5,208.5C 199.167,208.5 206.833,208.5 214.5,208.5C 216.833,208.5 219.167,208.5 221.5,208.5C 225.167,208.5 228.833,208.5 232.5,208.5C 232.938,208.435 233.272,208.601 233.5,209C 232.837,210.518 231.837,211.685 230.5,212.5C 198.832,212.333 167.165,212.5 135.5,213C 128.433,219.921 129.1,225.921 137.5,231C 155.164,231.5 172.83,231.667 190.5,231.5C 191.29,232.794 192.29,233.961 193.5,235C 151.168,235.5 108.835,235.667 66.5,235.5C 70.4017,229.972 70.0684,224.638 65.5,219.5C 64.7814,217.236 64.448,214.903 64.5,212.5C 66.1417,214.081 68.1417,214.747 70.5,214.5C 70.8333,212.5 71.1667,210.5 71.5,208.5 Z"/></g>
<g><path style="opacity:1" fill="#deddf3" d="M 230.5,212.5 C 229.583,215.005 229.583,217.338 230.5,219.5C 230.5,219.833 230.5,220.167 230.5,220.5C 229.209,224.177 229.542,227.844 231.5,231.5C 221.5,231.5 211.5,231.5 201.5,231.5C 198.835,229.36 196.502,226.86 194.5,224C 193.255,223.209 191.922,222.709 190.5,222.5C 186.354,221.353 182.02,221.186 177.5,222C 177.043,222.414 176.709,222.914 176.5,223.5C 179.086,224.48 181.753,224.813 184.5,224.5C 186.471,226.808 188.471,229.142 190.5,231.5C 172.83,231.667 155.164,231.5 137.5,231C 129.1,225.921 128.433,219.921 135.5,213C 167.165,212.5 198.832,212.333 230.5,212.5 Z"/></g>
<g><path style="opacity:0.985" fill="#b8b5e9" d="M 253.5,220.5 C 255.772,221.441 257.772,222.774 259.5,224.5C 259.5,226.167 259.5,227.833 259.5,229.5C 256.878,231.644 253.878,232.977 250.5,233.5C 245.325,235.085 239.991,235.752 234.5,235.5C 233.5,234.167 232.5,232.833 231.5,231.5C 229.542,227.844 229.209,224.177 230.5,220.5C 238.147,219.243 245.813,219.243 253.5,220.5 Z"/></g>
<g><path style="opacity:1" fill="#423e9b" d="M 190.5,222.5 C 187.813,222.336 185.146,222.503 182.5,223C 183.416,223.278 184.082,223.778 184.5,224.5C 181.753,224.813 179.086,224.48 176.5,223.5C 176.709,222.914 177.043,222.414 177.5,222C 182.02,221.186 186.354,221.353 190.5,222.5 Z"/></g>
<g><path style="opacity:0.979" fill="#3d3ab6" d="M 190.5,222.5 C 191.922,222.709 193.255,223.209 194.5,224C 196.502,226.86 198.835,229.36 201.5,231.5C 202.026,233.23 203.026,234.564 204.5,235.5C 204.833,236.5 205.5,237.167 206.5,237.5C 209.066,240.289 211.4,243.289 213.5,246.5C 209.878,247.659 206.211,247.825 202.5,247C 199.707,243.895 197.04,240.728 194.5,237.5C 151.5,236.833 108.5,236.167 65.5,235.5C 65.8333,235.5 66.1667,235.5 66.5,235.5C 108.835,235.667 151.168,235.5 193.5,235C 192.29,233.961 191.29,232.794 190.5,231.5C 188.471,229.142 186.471,226.808 184.5,224.5C 184.082,223.778 183.416,223.278 182.5,223C 185.146,222.503 187.813,222.336 190.5,222.5 Z"/></g>
<g><path style="opacity:0.972" fill="#6a64d2" d="M 22.5,223.5 C 25.2062,223.575 27.8728,223.908 30.5,224.5C 30.5,226.5 30.5,228.5 30.5,230.5C 29.8411,232.138 29.1744,233.805 28.5,235.5C 28.8555,236.522 29.5222,237.189 30.5,237.5C 31.209,238.404 32.209,238.737 33.5,238.5C 33.1997,242.976 31.0331,244.31 27,242.5C 26.5065,240.866 26.3398,239.199 26.5,237.5C 27.0431,237.44 27.3764,237.107 27.5,236.5C 22.5383,235.504 17.5383,234.837 12.5,234.5C 4.51436,231.214 4.51436,227.714 12.5,224C 15.8168,223.502 19.1501,223.335 22.5,223.5 Z"/></g>
<g><path style="opacity:1" fill="#615dc5" d="M 53.5,235.5 C 47.1667,236.833 40.8333,236.833 34.5,235.5C 34.5,234.833 34.5,234.167 34.5,233.5C 38.0865,231.42 41.2532,228.754 44,225.5C 45.6123,230.452 48.779,233.785 53.5,235.5 Z"/></g>
<g><path style="opacity:1" fill="#f0c3b5" d="M 30.5,230.5 C 32.2303,231.026 33.5637,232.026 34.5,233.5C 34.5,234.167 34.5,234.833 34.5,235.5C 33.5326,236.806 32.1993,237.473 30.5,237.5C 29.5222,237.189 28.8555,236.522 28.5,235.5C 29.1744,233.805 29.8411,232.138 30.5,230.5 Z"/></g>
<g><path style="opacity:1" fill="#e47e5f" d="M 201.5,231.5 C 211.5,231.5 221.5,231.5 231.5,231.5C 232.5,232.833 233.5,234.167 234.5,235.5C 224.5,235.5 214.5,235.5 204.5,235.5C 203.026,234.564 202.026,233.23 201.5,231.5 Z"/></g>
<g><path style="opacity:0.718" fill="#262481" d="M 12.5,234.5 C 17.5383,234.837 22.5383,235.504 27.5,236.5C 27.3764,237.107 27.0431,237.44 26.5,237.5C 18.1401,237.831 9.80677,237.498 1.5,236.5C 1.70931,235.914 2.04265,235.414 2.5,235C 5.81677,234.502 9.1501,234.335 12.5,234.5 Z"/></g>
<g><path style="opacity:0.708" fill="#6461a4" d="M 34.5,235.5 C 40.8333,236.833 47.1667,236.833 53.5,235.5C 57.5709,236.412 61.5709,236.412 65.5,235.5C 108.5,236.167 151.5,236.833 194.5,237.5C 140.762,237.171 87.0951,237.505 33.5,238.5C 32.209,238.737 31.209,238.404 30.5,237.5C 32.1993,237.473 33.5326,236.806 34.5,235.5 Z"/></g>
<g><path style="opacity:0.884" fill="#373289" d="M 250.5,233.5 C 252.292,234.309 254.292,234.809 256.5,235C 257.833,235.667 257.833,236.333 256.5,237C 239.837,237.5 223.17,237.667 206.5,237.5C 205.5,237.167 204.833,236.5 204.5,235.5C 214.5,235.5 224.5,235.5 234.5,235.5C 239.991,235.752 245.325,235.085 250.5,233.5 Z"/></g>
</svg>
