<svg version="1.1" id="Layer_1" xmlns="http://www.w3.org/2000/svg" xmlns:xlink="http://www.w3.org/1999/xlink" x="0px" y="0px"
	 width="100%" viewBox="0 0 260 260" enable-background="new 0 0 260 260" xml:space="preserve">
<path fill="#F7F7FC" opacity="1.000000" stroke="none" 
	d="
M261.000000,184.000000 
	C261.000000,189.688034 261.000000,195.376083 260.638367,201.227509 
	C259.865692,201.888016 259.203766,202.330612 259.082092,202.890625 
	C257.703125,209.237915 256.406860,215.603165 254.650192,221.987885 
	C246.476257,221.987991 238.740585,221.963821 231.007172,221.729614 
	C231.009460,221.519562 230.998230,221.099594 231.357529,221.035675 
	C238.823288,217.292816 246.054001,213.825867 252.948624,209.785400 
	C254.665970,208.778976 256.709259,205.111649 256.122986,204.089203 
	C255.042053,202.204025 252.106430,200.267014 249.975281,200.301575 
	C242.618820,200.420898 235.275986,201.380844 228.084473,201.723862 
	C232.038986,196.463425 235.979111,191.598770 239.546906,186.474854 
	C240.593842,184.971298 241.209656,182.606949 240.862335,180.869125 
	C240.580475,179.458847 238.291595,177.171631 237.355057,177.377380 
	C231.203888,178.728622 224.677917,179.607422 220.867523,184.771576 
	C219.014114,184.476715 217.470535,184.231155 216.002075,183.645523 
	C218.767487,179.364120 221.505905,175.454193 224.114395,171.459442 
	C224.772522,170.451538 225.728088,168.723694 225.330673,168.092438 
	C223.124878,164.588730 220.543915,161.321182 218.127869,157.585144 
	C218.309845,156.722900 218.528442,156.257462 218.589355,155.772263 
	C219.100769,151.698441 222.529419,146.324036 217.796478,144.090256 
	C214.974518,142.758392 209.449768,144.920609 206.251404,147.124756 
	C201.020294,150.729752 196.695663,155.650116 191.943451,159.613571 
	C193.434875,153.820740 195.146042,148.470413 196.409286,143.016327 
	C196.826538,141.214859 196.088074,139.145706 195.878052,137.198944 
	C196.035736,134.823441 196.379837,132.369598 195.518585,130.459137 
	C194.041779,127.183182 190.889435,126.359253 187.494904,127.115150 
	C182.816971,128.156845 179.225433,133.134827 178.760834,138.534882 
	C173.834198,140.604370 172.747070,144.729538 171.707825,149.023895 
	C170.922043,148.669983 170.429413,148.374451 169.964417,147.667633 
	C170.658386,144.032593 171.608536,140.837021 171.932388,137.579208 
	C172.622345,130.638702 174.715302,124.068237 173.537537,116.591011 
	C172.800415,111.911301 171.398163,109.413582 168.060669,107.569305 
	C162.334045,104.404785 156.929733,105.687065 152.019104,109.569252 
	C151.052002,104.374847 147.907333,103.927986 143.837494,104.763016 
	C143.537781,103.572876 143.330841,102.709015 143.436401,101.694534 
	C147.421402,98.630180 148.314957,94.841896 146.005951,91.975197 
	C143.509567,88.875870 138.053070,88.302513 134.517044,90.885307 
	C130.607513,93.740921 132.939331,96.370201 134.971710,99.340164 
	C136.306824,102.127441 137.619400,104.541611 138.641312,106.830856 
	C137.559280,107.423615 136.767914,108.141296 135.640335,108.775940 
	C133.790878,107.358940 132.277649,106.024963 129.935623,103.960373 
	C126.453293,105.533310 122.214066,107.448128 117.620178,109.262543 
	C116.537476,109.137619 115.809441,109.113091 114.751755,108.920670 
	C112.503052,108.143730 110.583992,107.534676 107.680214,106.613098 
	C110.277573,112.399269 112.192871,117.178146 114.565628,121.717926 
	C115.621101,123.737350 117.598816,125.274765 118.995544,127.330673 
	C116.901917,130.102997 114.680023,132.407730 113.126060,135.098251 
	C111.738686,137.500336 111.089027,140.328491 109.724274,143.018555 
	C106.905991,144.366837 104.477257,145.665192 101.576752,146.957428 
	C91.268051,146.951309 81.431107,146.951309 71.594170,146.951309 
	C71.595467,147.231552 71.596764,147.511780 71.598061,147.792023 
	C72.051971,147.962448 72.505890,148.132889 73.022797,148.660248 
	C73.738052,151.029678 74.925362,153.040298 74.932312,155.055008 
	C74.947227,159.379349 74.353310,163.705795 73.660492,168.103790 
	C72.444397,168.537918 71.576485,168.899612 70.708565,169.261322 
	C70.790115,169.576065 70.871674,169.890808 70.953224,170.205551 
	C75.452347,170.205551 79.951469,170.205551 84.892365,170.205551 
	C75.731857,178.179749 75.980194,183.129272 85.379776,190.039108 
	C85.614967,190.212006 85.703102,190.584961 85.404877,190.904755 
	C80.617592,191.048218 76.285233,191.151520 71.612274,191.121674 
	C69.044418,189.215851 68.713448,187.326736 69.704720,184.473846 
	C70.260284,182.874969 68.917313,180.526443 68.188225,178.607452 
	C67.797935,177.580200 66.781181,176.809280 66.244667,175.816010 
	C64.154533,171.946487 59.537510,170.415405 55.900776,172.460373 
	C49.879246,175.846329 49.502857,185.885620 55.129532,190.164398 
	C54.967339,190.564285 54.921356,190.731491 54.475693,190.955444 
	C51.053791,191.349609 48.031570,191.687012 44.855179,191.717438 
	C39.494648,188.983109 34.464069,185.926514 29.005587,184.401672 
	C26.392187,183.671631 22.172005,185.040009 20.201040,186.993271 
	C18.959879,188.223282 19.836670,192.647217 21.018097,195.011353 
	C22.690254,198.357468 25.475178,201.162476 27.911634,204.093063 
	C28.220959,204.465149 29.296471,204.200241 30.142124,204.536453 
	C30.854925,206.263535 31.442621,207.684631 31.679110,209.036057 
	C26.505035,206.299057 21.682167,203.631714 16.922426,200.525879 
	C16.981524,198.422958 17.113237,196.745224 16.951986,195.096161 
	C15.666142,181.946152 14.079225,168.819458 13.119824,155.646637 
	C12.729526,150.287735 13.925366,144.833389 13.949769,139.420441 
	C14.022906,123.197083 17.306190,107.534637 22.059118,92.153519 
	C27.768112,73.678452 36.249832,56.453220 48.912525,41.836689 
	C61.352077,27.477745 76.199821,16.607965 95.987228,13.816584 
	C108.401474,12.065321 119.687210,13.782248 130.594025,19.878681 
	C139.159790,24.666578 145.952835,31.181700 152.267410,38.602791 
	C164.246490,52.681004 171.337662,69.392929 178.605530,85.939240 
	C174.960159,87.609734 171.681961,89.195915 168.403748,90.782097 
	C170.147476,91.585587 171.655930,91.335182 173.098206,90.876617 
	C175.736908,90.037651 178.336502,89.075645 180.975067,88.525375 
	C183.988754,93.308533 186.979797,97.731255 189.887939,102.490623 
	C187.554153,105.970734 186.249191,109.644478 188.780411,112.777168 
	C190.243103,114.587448 193.398438,115.136360 195.902496,115.881447 
	C196.267532,115.990074 197.249802,114.024361 198.224060,113.013580 
	C198.686432,112.997986 198.871216,112.987289 199.384949,113.077599 
	C205.585159,116.782616 211.113846,121.232826 217.411987,123.782181 
	C225.788605,127.172836 233.862640,131.085739 239.856308,137.614410 
	C251.158432,149.925354 257.642212,164.704010 259.078308,181.539642 
	C259.152374,182.408081 260.334015,183.182053 261.000000,184.000000 
M73.648170,118.937859 
	C73.768730,119.821388 73.731247,121.408607 74.034912,121.476814 
	C76.404678,122.009064 78.962379,122.807739 81.197746,122.317940 
	C82.155670,122.108047 82.862907,119.065712 83.034309,117.249039 
	C83.747383,109.691162 83.346527,109.289040 76.421852,109.269432 
	C75.591713,112.172890 74.731285,115.182289 73.648170,118.937859 
M44.961983,141.788757 
	C46.146629,141.899567 47.329792,142.031357 48.516346,142.115158 
	C49.658577,142.195847 50.804321,142.226944 51.948521,142.279816 
	C51.587250,141.270615 51.511436,139.954758 50.814568,139.306107 
	C48.017494,136.702499 45.154186,134.132324 42.070023,131.886749 
	C39.573421,130.068985 37.772232,131.191879 37.972153,134.157959 
	C38.159946,136.944046 38.857807,139.751343 39.733788,142.417038 
	C40.380112,144.383896 41.673904,146.137970 42.679211,147.986862 
	C43.230160,146.088943 43.781113,144.191025 44.961983,141.788757 
M53.065472,157.594971 
	C54.198864,160.620667 55.155979,163.733627 56.581951,166.614517 
	C56.968231,167.394913 58.940411,168.012589 59.877506,167.720245 
	C60.784859,167.437195 61.627396,165.968063 61.897213,164.871902 
	C62.220634,163.557922 61.348331,161.735931 61.969711,160.747269 
	C64.247635,157.122803 62.266762,154.908066 59.524872,153.499557 
	C56.354336,151.870834 54.217205,153.629593 53.065472,157.594971 
M140.315292,81.431496 
	C141.751312,79.462433 143.729919,77.665085 144.427063,75.462189 
	C144.870346,74.061447 143.742401,71.800056 142.673157,70.427902 
	C142.084122,69.671982 139.870026,69.380913 138.888962,69.874626 
	C135.202072,71.730034 136.022354,79.724823 140.315292,81.431496 
M52.619759,101.643394 
	C52.338963,103.649551 52.058167,105.655701 51.814453,107.396912 
	C53.548172,108.255577 55.091190,109.019791 55.899883,109.420311 
	C57.253487,107.780655 58.440849,106.342377 59.852230,104.632729 
	C59.687141,104.317245 58.875744,102.766708 58.131664,101.344818 
	C56.485256,101.425797 54.910496,101.503250 52.619759,101.643394 
M39.611023,181.278580 
	C39.447586,179.774292 39.420761,178.239227 39.090477,176.772507 
	C38.514854,174.216293 37.834991,171.674286 36.998718,169.193787 
	C36.829826,168.692825 35.641418,168.096786 35.158627,168.256546 
	C34.610882,168.437775 33.837364,169.632431 34.005718,170.020081 
	C35.713020,173.951050 37.592873,177.807098 39.611023,181.278580 
M228.240768,137.435028 
	C230.533432,138.391098 230.199783,139.458008 228.669205,141.037125 
	C227.875015,141.856522 227.721146,143.296585 227.278000,144.456253 
	C227.846054,144.804459 228.414108,145.152664 228.982162,145.500870 
	C230.425125,143.790207 232.299149,142.263977 233.141159,140.296173 
	C233.608154,139.204758 232.767715,136.910660 231.757660,136.004883 
	C230.668640,135.028275 228.306274,133.565628 228.240768,137.435028 
M225.865631,146.525681 
	C225.918518,146.833817 225.971405,147.141937 226.024292,147.450073 
	C226.098068,147.138077 226.171829,146.826080 225.865631,146.525681 
z"/>
<path fill="#000000" opacity="1.000000" stroke="none" 
	d="
M189.970825,102.153984 
	C186.979797,97.731255 183.988754,93.308533 181.268341,88.376549 
	C181.856903,86.765411 182.174881,85.663521 182.742599,83.696167 
	C180.760376,84.831245 179.866531,85.343094 178.972672,85.854935 
	C171.337662,69.392929 164.246490,52.681004 152.267410,38.602791 
	C145.952835,31.181700 139.159790,24.666578 130.594025,19.878681 
	C119.687210,13.782248 108.401474,12.065321 95.987228,13.816584 
	C76.199821,16.607965 61.352077,27.477745 48.912525,41.836689 
	C36.249832,56.453220 27.768112,73.678452 22.059118,92.153519 
	C17.306190,107.534637 14.022906,123.197083 13.949769,139.420441 
	C13.925366,144.833389 12.729526,150.287735 13.119824,155.646637 
	C14.079225,168.819458 15.666142,181.946152 16.951986,195.096161 
	C17.113237,196.745224 16.981524,198.422958 16.522217,200.544373 
	C11.039253,200.667572 6.019627,200.333786 1.000000,200.000000 
	C1.000000,133.711899 1.000000,67.423790 1.000000,1.067841 
	C87.562302,1.067841 174.124664,1.067841 261.000000,1.067841 
	C261.000000,61.687202 261.000000,122.374939 261.000000,183.531342 
	C260.334015,183.182053 259.152374,182.408081 259.078308,181.539642 
	C257.642212,164.704010 251.158432,149.925354 239.856308,137.614410 
	C233.862640,131.085739 225.788605,127.172836 217.411987,123.782181 
	C211.113846,121.232826 205.585159,116.782616 199.291412,112.755371 
	C196.860260,110.231209 194.851639,108.130272 192.998520,105.721527 
	C194.517151,103.471893 199.719833,106.643990 198.572037,100.577698 
	C195.618134,101.119041 192.794479,101.636513 189.970825,102.153984 
M218.002426,114.455925 
	C218.963013,113.632912 219.923599,112.809898 220.883698,111.987717 
	C220.051270,110.476898 219.218826,108.966072 218.478317,107.622070 
	C216.758270,107.829514 215.035995,108.037231 213.320663,108.244102 
	C213.669922,113.665833 214.331497,114.660767 218.002426,114.455925 
z"/>
<path fill="#000000" opacity="1.000000" stroke="none" 
	d="
M261.000000,232.000000 
	C261.000000,241.654221 261.000000,251.308426 261.000000,260.981323 
	C174.457413,260.981323 87.914810,260.981323 1.000000,260.981323 
	C1.000000,244.314285 1.000000,227.625793 1.286144,210.182358 
	C8.721292,213.591995 15.870297,217.756592 23.340490,222.150955 
	C24.602194,226.271240 21.541368,224.503281 20.035460,224.955017 
	C16.422644,226.038788 12.481703,226.572052 9.315762,228.425247 
	C6.909709,229.833633 7.032755,232.646194 10.243745,234.111420 
	C11.347023,234.614868 12.413467,235.199020 13.785256,235.892075 
	C10.083818,236.260834 6.783301,236.589661 3.482783,236.918488 
	C3.548882,237.610550 3.614981,238.302628 3.681081,238.994705 
	C11.867632,238.994705 20.054184,238.994705 28.143169,239.399902 
	C28.790361,241.521225 29.535118,243.237381 30.279875,244.953522 
	C31.887987,243.549210 33.526520,242.177429 35.085133,240.720184 
	C35.535149,240.299423 35.755417,239.632965 36.542923,239.039673 
	C42.152275,238.846954 47.299725,238.693726 52.640823,238.546295 
	C53.092842,238.555878 53.351089,238.551849 54.073051,238.710739 
	C58.022572,238.865967 61.508263,238.850479 65.458763,238.901154 
	C109.259499,239.006317 152.595428,239.045319 196.080521,239.385040 
	C197.459290,241.018387 198.841553,242.241364 199.891541,243.703018 
	C204.012512,249.439804 208.002655,250.631027 215.010254,247.920563 
	C212.676758,244.940689 210.376266,242.002960 208.539490,239.038574 
	C219.981201,238.969299 230.959167,238.926682 242.405624,238.931885 
	C248.066589,238.745407 253.373779,239.586670 258.469330,238.443222 
	C258.465271,237.834396 258.461182,237.225571 258.457123,236.616745 
	C256.288300,236.328888 254.119461,236.041016 252.155273,235.452560 
	C255.239944,234.101318 258.119965,233.050659 261.000000,232.000000 
z"/>
<path fill="#6B67D4" opacity="1.000000" stroke="none" 
	d="
M23.019302,221.921173 
	C15.870297,217.756592 8.721292,213.591995 1.286144,209.713699 
	C1.000000,206.969406 1.000000,203.938812 1.000000,200.454102 
	C6.019627,200.333786 11.039253,200.667572 16.459089,200.982864 
	C21.682167,203.631714 26.505035,206.299057 31.846680,209.321960 
	C33.588959,210.846375 34.812458,212.015213 35.973785,213.552658 
	C35.275833,216.318344 34.989670,218.896805 33.874928,221.045380 
	C33.191669,222.362289 31.238258,223.020187 29.567623,223.961227 
	C27.193106,223.272675 25.106205,222.596924 23.019302,221.921173 
z"/>
<path fill="#B9B6EA" opacity="1.000000" stroke="none" 
	d="
M261.000000,231.562500 
	C258.119965,233.050659 255.239944,234.101318 251.720673,235.531235 
	C245.853775,236.208923 240.626114,236.507355 235.260132,236.499115 
	C234.101379,235.051498 233.080948,233.910538 232.037933,232.390106 
	C231.678543,228.653656 231.341721,225.296646 231.004898,221.939651 
	C238.740585,221.963821 246.476257,221.987991 254.979828,222.116959 
	C257.498474,223.147827 259.249237,224.073914 261.000000,225.000000 
	C261.000000,227.041672 261.000000,229.083328 261.000000,231.562500 
z"/>
<path fill="#000000" opacity="1.000000" stroke="none" 
	d="
M261.000000,224.531372 
	C259.249237,224.073914 257.498474,223.147827 255.418076,222.092682 
	C256.406860,215.603165 257.703125,209.237915 259.082092,202.890625 
	C259.203766,202.330612 259.865692,201.888016 260.638367,201.695435 
	C261.000000,209.354248 261.000000,216.708496 261.000000,224.531372 
z"/>
<path fill="#DFDEF4" opacity="1.000000" stroke="none" 
	d="
M231.007172,221.729614 
	C231.341721,225.296646 231.678543,228.653656 231.564774,232.452606 
	C221.648651,232.960556 212.183121,233.026550 202.451584,232.902344 
	C197.879700,226.938202 193.355438,221.568817 184.538574,223.305679 
	C181.680847,223.094009 178.955612,222.375412 177.672607,226.412140 
	C180.752502,226.412140 183.407349,226.412140 186.355576,226.605865 
	C188.204056,228.784943 189.759171,230.770279 190.823517,232.820404 
	C174.360062,232.900055 158.387039,232.979004 142.414841,232.897690 
	C136.178879,232.865952 132.011856,228.762909 132.044693,223.129471 
	C132.075867,217.776825 136.211014,213.858688 142.230453,213.856781 
	C172.177704,213.847214 202.125015,213.919739 232.048904,214.363068 
	C231.683090,216.875046 231.340668,218.987320 230.998230,221.099594 
	C230.998230,221.099594 231.009460,221.519562 231.007172,221.729614 
z"/>
<path fill="#2C2880" opacity="1.000000" stroke="none" 
	d="
M71.952881,191.254822 
	C76.285233,191.151520 80.617592,191.048218 85.880165,190.947876 
	C104.578651,190.938614 122.346909,190.926407 140.258331,191.111816 
	C140.285690,191.910263 140.169891,192.511093 139.585266,193.100464 
	C135.952011,193.089447 132.787094,193.054214 129.623291,193.099243 
	C125.579613,193.156769 122.888817,195.253128 122.176010,199.134354 
	C121.444550,203.117218 123.420509,206.328278 127.291298,207.060898 
	C131.231064,207.806595 135.393845,207.373917 139.788971,207.544250 
	C142.889587,207.476059 145.660202,207.320831 148.765533,207.327881 
	C159.497025,207.490173 169.893814,207.490173 180.310287,207.490173 
	C180.310287,203.511261 180.310287,199.761307 180.697952,196.005859 
	C185.280655,196.399399 189.879242,198.008148 192.340485,192.163132 
	C194.140869,190.675400 195.651840,189.366898 197.493439,188.016998 
	C199.220444,187.460724 200.616806,186.945847 202.048843,186.711884 
	C202.677170,187.704849 203.269836,188.416901 203.935730,189.466858 
	C205.081161,191.901031 206.153381,193.997330 207.285400,196.465454 
	C209.174240,200.546432 208.432968,202.880066 204.208389,204.368546 
	C200.484909,205.680450 197.058411,207.835251 193.089447,209.734680 
	C189.256912,209.821152 185.835678,209.765137 182.414459,209.764389 
	C146.990250,209.756653 111.565971,209.735718 76.142113,209.846085 
	C74.871178,209.850052 73.604347,211.174057 72.289444,211.514008 
	C72.211891,210.899338 72.180504,210.653519 72.132355,210.005127 
	C71.433868,204.721649 70.752144,199.840744 70.411331,194.915085 
	C71.152458,193.665176 71.552673,192.459991 71.952881,191.254822 
z"/>
<path fill="#DEDEF4" opacity="1.000000" stroke="none" 
	d="
M74.008667,168.031372 
	C74.353310,163.705795 74.947227,159.379349 74.932312,155.055008 
	C74.925362,153.040298 73.738052,151.029678 73.485733,148.565063 
	C89.676010,148.059357 105.466331,148.005783 121.270172,147.954926 
	C121.283676,147.957642 121.274117,147.929688 121.445099,148.350861 
	C122.386223,155.346695 123.156364,161.921387 123.880569,168.614716 
	C123.834625,168.733353 123.959755,168.954941 123.499565,168.873901 
	C111.670433,168.836166 100.301498,168.879471 88.526054,168.848953 
	C83.415924,168.527222 78.712288,168.279297 74.008667,168.031372 
z"/>
<path fill="#4946CA" opacity="1.000000" stroke="none" 
	d="
M169.936768,148.078903 
	C170.429413,148.374451 170.922043,148.669983 171.794403,149.361298 
	C173.440018,153.008743 174.705917,156.260406 175.973999,159.818451 
	C174.145126,161.739395 172.086044,163.164139 170.542633,165.018204 
	C168.745758,167.176727 167.400238,169.710999 165.406601,171.989120 
	C153.988937,171.946472 143.023514,171.996933 131.865463,171.808319 
	C130.777664,171.067596 129.882477,170.565964 129.050934,169.715530 
	C129.177200,169.138824 129.239868,168.910919 129.643890,168.697052 
	C136.842773,167.167603 140.240021,163.454086 139.913010,157.859039 
	C139.591156,152.351929 135.902649,148.846985 129.744263,147.681030 
	C135.702316,147.214661 141.426590,147.041458 147.607513,146.918106 
	C155.355011,147.338272 162.645889,147.708588 169.936768,148.078903 
z"/>
<path fill="#6B67D4" opacity="1.000000" stroke="none" 
	d="
M73.660492,168.103790 
	C78.712288,168.279297 83.415924,168.527222 88.820297,169.158539 
	C100.452332,169.673111 111.383514,169.818680 122.315186,169.892929 
	C122.861229,169.896637 123.411469,169.281769 123.959755,168.954941 
	C123.959755,168.954941 123.834625,168.733353 124.177094,168.872849 
	C125.426048,169.470917 126.332535,169.929489 127.207764,170.634262 
	C126.882156,171.220200 126.587822,171.559937 125.837784,171.877625 
	C124.720558,171.876633 124.059181,171.904999 123.397499,171.917603 
	C116.536316,172.048325 113.006432,174.982971 113.064873,180.511124 
	C113.121964,185.911530 116.909874,188.958099 123.675537,188.988129 
	C129.136765,189.012360 134.598221,188.985687 140.122681,189.300568 
	C140.162247,190.051086 140.138702,190.482635 140.115173,190.914200 
	C122.346909,190.926407 104.578651,190.938614 86.335098,190.907715 
	C85.703102,190.584961 85.614967,190.212006 85.379776,190.039108 
	C75.980194,183.129272 75.731857,178.179749 84.892365,170.205551 
	C79.951469,170.205551 75.452347,170.205551 70.953224,170.205551 
	C70.871674,169.890808 70.790115,169.576065 70.708565,169.261322 
	C71.576485,168.899612 72.444397,168.537918 73.660492,168.103790 
z"/>
<path fill="#B8B5EA" opacity="1.000000" stroke="none" 
	d="
M169.964417,147.667633 
	C162.645889,147.708588 155.355011,147.338272 147.815201,146.681473 
	C149.321716,143.972473 151.077148,141.549942 153.163727,138.956604 
	C155.996597,137.954697 155.846573,136.466415 155.274979,134.146042 
	C153.737595,127.905052 152.674469,121.547234 151.567383,114.812202 
	C151.847900,112.897263 151.984085,111.405914 152.120270,109.914558 
	C156.929733,105.687065 162.334045,104.404785 168.060669,107.569305 
	C171.398163,109.413582 172.800415,111.911301 173.537537,116.591011 
	C174.715302,124.068237 172.622345,130.638702 171.932388,137.579208 
	C171.608536,140.837021 170.658386,144.032593 169.964417,147.667633 
z"/>
<path fill="#B8B5E9" opacity="1.000000" stroke="none" 
	d="
M191.988663,160.015640 
	C196.695663,155.650116 201.020294,150.729752 206.251404,147.124756 
	C209.449768,144.920609 214.974518,142.758392 217.796478,144.090256 
	C222.529419,146.324036 219.100769,151.698441 218.589355,155.772263 
	C218.528442,156.257462 218.309845,156.722900 217.991379,157.885620 
	C216.965073,159.531357 216.111740,160.488968 215.107803,161.149445 
	C214.630203,160.575272 214.303192,160.298218 213.731857,160.004379 
	C213.487518,159.987595 212.999664,159.943588 212.980392,159.701294 
	C212.794281,159.213715 212.627426,158.968414 212.460587,158.723129 
	C212.308258,159.151825 212.155914,159.580505 211.864258,160.323227 
	C210.470245,163.084320 209.215530,165.531387 207.612213,168.016098 
	C202.945602,170.834778 199.529205,176.168823 192.781921,172.985733 
	C190.972229,171.551926 189.506973,170.178772 188.016068,168.412323 
	C188.640182,165.609833 189.289963,163.200684 190.246750,160.846405 
	C191.043503,160.596710 191.533264,160.292145 192.013367,159.993256 
	C192.003723,159.998917 191.988663,160.015640 191.988663,160.015640 
z"/>
<path fill="#E78161" opacity="1.000000" stroke="none" 
	d="
M36.035957,213.184052 
	C34.812458,212.015213 33.588959,210.846375 32.197884,209.391632 
	C31.442621,207.684631 30.854925,206.263535 30.392506,204.320343 
	C29.245855,199.833237 27.973932,195.868256 26.403339,190.972214 
	C29.423328,190.972214 31.375542,190.753586 33.258728,191.021027 
	C36.463379,191.476105 39.624607,192.236984 43.134098,192.861267 
	C43.991539,192.564362 44.518959,192.275558 45.024498,191.984283 
	C45.002613,191.981796 45.009354,192.024414 45.009354,192.024414 
	C48.031570,191.687012 51.053791,191.349609 54.849709,191.033417 
	C56.491310,192.424057 57.359207,193.793488 58.209179,195.441864 
	C58.232868,196.091339 58.274483,196.461884 58.040432,197.121582 
	C56.254353,197.844986 54.743938,198.279251 53.245766,198.710007 
	C53.252884,202.357681 55.073753,203.348465 58.378242,202.922119 
	C59.087654,203.002640 59.493168,203.047455 59.906818,203.503967 
	C60.120068,206.657394 60.325180,209.399139 60.286980,211.933472 
	C59.157585,210.761017 58.222492,209.836105 57.394341,208.823700 
	C54.586208,205.390808 51.304459,205.020615 48.958996,208.748123 
	C45.664890,213.983261 41.298756,214.502899 36.035957,213.184052 
z"/>
<path fill="#B8B5E9" opacity="1.000000" stroke="none" 
	d="
M175.971802,159.512085 
	C174.705917,156.260406 173.440018,153.008743 172.087540,149.419678 
	C172.747070,144.729538 173.834198,140.604370 178.760834,138.534882 
	C179.225433,133.134827 182.816971,128.156845 187.494904,127.115150 
	C190.889435,126.359253 194.041779,127.183182 195.518585,130.459137 
	C196.379837,132.369598 196.035736,134.823441 195.878052,137.198944 
	C196.088074,139.145706 196.826538,141.214859 196.409286,143.016327 
	C195.146042,148.470413 193.434875,153.820740 191.943451,159.613571 
	C191.988663,160.015640 192.003723,159.998917 191.665848,159.958344 
	C190.868698,159.998077 190.409439,160.078369 189.946609,159.749481 
	C189.616547,157.276016 189.290024,155.211761 188.828506,152.824707 
	C183.820282,149.105911 180.419006,149.900818 178.006638,155.015717 
	C177.304947,156.503448 176.648819,158.012695 175.971802,159.512085 
z"/>
<path fill="#BAB7EA" opacity="1.000000" stroke="none" 
	d="
M215.926956,183.985580 
	C217.470535,184.231155 219.014114,184.476715 220.867523,184.771576 
	C224.677917,179.607422 231.203888,178.728622 237.355057,177.377380 
	C238.291595,177.171631 240.580475,179.458847 240.862335,180.869125 
	C241.209656,182.606949 240.593842,184.971298 239.546906,186.474854 
	C235.979111,191.598770 232.038986,196.463425 227.744110,201.718781 
	C226.791901,202.019608 226.336594,202.028687 225.592377,201.882294 
	C221.425278,196.806458 217.547089,191.886108 213.767670,186.666168 
	C214.269104,185.901871 214.671768,185.437149 215.292267,184.863922 
	C215.798645,184.560272 215.961990,184.289566 215.993149,183.973389 
	C215.986160,184.003479 215.926956,183.985580 215.926956,183.985580 
z"/>
<path fill="#BBB8EA" opacity="1.000000" stroke="none" 
	d="
M225.881271,202.037766 
	C226.336594,202.028687 226.791901,202.019608 227.587585,202.015610 
	C235.275986,201.380844 242.618820,200.420898 249.975281,200.301575 
	C252.106430,200.267014 255.042053,202.204025 256.122986,204.089203 
	C256.709259,205.111649 254.665970,208.778976 252.948624,209.785400 
	C246.054001,213.825867 238.823288,217.292816 231.357529,221.035675 
	C231.340668,218.987320 231.683090,216.875046 232.310120,214.199188 
	C233.082993,212.284775 233.571243,210.933960 233.950958,209.286667 
	C231.866425,207.953293 229.890427,206.916397 227.773132,205.598511 
	C227.048325,204.224274 226.464798,203.131012 225.881271,202.037766 
z"/>
<path fill="#E88464" opacity="1.000000" stroke="none" 
	d="
M215.074463,184.972443 
	C214.671768,185.437149 214.269104,185.901871 213.504211,186.850571 
	C210.048843,187.932693 206.955673,188.530823 203.862503,189.128952 
	C203.269836,188.416901 202.677170,187.704849 202.178314,186.369171 
	C205.800797,182.542099 209.329498,179.338638 212.768936,176.216217 
	C211.534073,175.938522 209.785980,175.545410 208.025833,174.799835 
	C208.012787,173.979813 208.011795,173.512268 208.187302,172.756790 
	C210.493698,168.958755 212.623581,165.448654 214.908173,161.844788 
	C215.062897,161.751038 215.258392,161.446564 215.258392,161.446564 
	C216.111740,160.488968 216.965073,159.531357 217.954910,158.273285 
	C220.543915,161.321182 223.124878,164.588730 225.330673,168.092438 
	C225.728088,168.723694 224.772522,170.451538 224.114395,171.459442 
	C221.505905,175.454193 218.767487,179.364120 216.002075,183.645523 
	C215.926956,183.985580 215.986160,184.003479 215.748810,184.046661 
	C215.365799,184.384064 215.220123,184.678253 215.074463,184.972443 
z"/>
<path fill="#B9B5E8" opacity="1.000000" stroke="none" 
	d="
M117.974838,109.362946 
	C122.214066,107.448128 126.453293,105.533310 129.935623,103.960373 
	C132.277649,106.024963 133.790878,107.358940 135.944763,108.845398 
	C136.389267,109.676270 136.193100,110.354660 135.575470,111.012085 
	C133.479248,111.547729 131.804520,112.104340 130.129776,112.660957 
	C131.306564,113.806129 132.477051,114.957886 133.665497,116.090843 
	C133.900406,116.314804 134.204315,116.466393 134.564209,117.067184 
	C135.378555,119.275940 136.105103,121.068871 136.915405,123.278008 
	C137.071426,125.095871 137.143692,126.497520 136.739471,127.919373 
	C132.178284,127.881386 128.093582,127.823196 123.993515,127.404724 
	C121.977036,121.150612 119.975937,115.256775 117.974838,109.362946 
z"/>
<path fill="#ECA58E" opacity="1.000000" stroke="none" 
	d="
M124.008881,127.764999 
	C128.093582,127.823196 132.178284,127.881386 136.997406,128.177078 
	C138.549606,130.880936 139.367371,133.347305 139.783508,135.917847 
	C137.191956,136.350143 135.002029,136.678253 132.512482,136.887085 
	C130.424652,135.154007 128.636475,133.540176 126.059593,131.214554 
	C124.765999,132.936188 123.872559,134.583115 122.563713,135.773163 
	C119.724266,138.354858 116.672485,140.703018 113.349152,143.243286 
	C112.031799,143.216171 111.072815,143.092407 110.113831,142.968643 
	C111.089027,140.328491 111.738686,137.500336 113.126060,135.098251 
	C114.680023,132.407730 116.901917,130.102997 119.339806,127.315460 
	C120.540909,126.994797 121.235374,126.989067 122.178391,127.115707 
	C122.954262,127.420380 123.481567,127.592690 124.008881,127.764999 
z"/>
<path fill="#6D69D5" opacity="1.000000" stroke="none" 
	d="
M136.831650,122.861794 
	C136.105103,121.068871 135.378555,119.275940 134.906906,117.043137 
	C135.769699,115.974342 136.377594,115.345428 137.273224,114.924294 
	C138.811005,116.100670 140.061066,117.069275 142.237640,118.755791 
	C142.653534,114.188171 142.989075,110.502945 143.308929,106.571053 
	C143.505585,105.912682 143.717911,105.500984 143.930252,105.089279 
	C147.907333,103.927986 151.052002,104.374847 152.019104,109.569252 
	C151.984085,111.405914 151.847900,112.897263 151.272858,114.881950 
	C149.566040,118.550705 148.564209,121.874359 146.914291,124.837074 
	C146.125977,126.252655 144.107742,126.983307 142.450409,127.781387 
	C140.883453,125.725723 139.524323,123.903404 138.092682,122.139923 
	C138.043442,122.079269 137.268402,122.607849 136.831650,122.861794 
z"/>
<path fill="#726ED6" opacity="1.000000" stroke="none" 
	d="
M42.804077,192.869370 
	C39.624607,192.236984 36.463379,191.476105 33.258728,191.021027 
	C31.375542,190.753586 29.423328,190.972214 26.403339,190.972214 
	C27.973932,195.868256 29.245855,199.833237 30.267397,204.014343 
	C29.296471,204.200241 28.220959,204.465149 27.911634,204.093063 
	C25.475178,201.162476 22.690254,198.357468 21.018097,195.011353 
	C19.836670,192.647217 18.959879,188.223282 20.201040,186.993271 
	C22.172005,185.040009 26.392187,183.671631 29.005587,184.401672 
	C34.464069,185.926514 39.494648,188.983109 44.855179,191.717438 
	C45.009354,192.024414 45.002613,191.981796 44.715485,192.016159 
	C43.886929,192.323471 43.345505,192.596420 42.804077,192.869370 
z"/>
<path fill="#26245F" opacity="1.000000" stroke="none" 
	d="
M71.612274,191.121658 
	C71.552673,192.459991 71.152458,193.665176 70.339417,194.597458 
	C68.930328,193.287613 67.934082,192.250656 66.598244,191.134521 
	C65.136902,190.872894 64.015152,190.690430 62.644386,190.218399 
	C61.949581,187.960419 61.503788,185.992020 61.260292,183.753113 
	C62.693981,182.476440 63.925377,181.470261 65.898895,179.857697 
	C63.579166,177.571350 61.846554,174.526306 59.601353,174.084167 
	C57.880402,173.745255 55.512493,176.691620 53.416500,178.188126 
	C54.910919,180.734680 55.884254,182.393280 56.922684,184.460571 
	C56.407104,186.556747 55.826424,188.244217 55.245747,189.931686 
	C49.502857,185.885620 49.879246,175.846329 55.900776,172.460373 
	C59.537510,170.415405 64.154533,171.946487 66.244667,175.816010 
	C66.781181,176.809280 67.797935,177.580200 68.188225,178.607452 
	C68.917313,180.526443 70.260284,182.874969 69.704720,184.473846 
	C68.713448,187.326736 69.044418,189.215851 71.612274,191.121658 
z"/>
<path fill="#7C79D9" opacity="1.000000" stroke="none" 
	d="
M73.759521,118.564774 
	C74.731285,115.182289 75.591713,112.172890 76.421852,109.269432 
	C83.346527,109.289040 83.747383,109.691162 83.034309,117.249039 
	C82.862907,119.065712 82.155670,122.108047 81.197746,122.317940 
	C78.962379,122.807739 76.404678,122.009064 74.034912,121.476814 
	C73.731247,121.408607 73.768730,119.821388 73.759521,118.564774 
z"/>
<path fill="#E98665" opacity="1.000000" stroke="none" 
	d="
M44.647026,142.040924 
	C43.781113,144.191025 43.230160,146.088943 42.679211,147.986862 
	C41.673904,146.137970 40.380112,144.383896 39.733788,142.417038 
	C38.857807,139.751343 38.159946,136.944046 37.972153,134.157959 
	C37.772232,131.191879 39.573421,130.068985 42.070023,131.886749 
	C45.154186,134.132324 48.017494,136.702499 50.814568,139.306107 
	C51.511436,139.954758 51.587250,141.270615 51.948521,142.279816 
	C50.804321,142.226944 49.658577,142.195847 48.516346,142.115158 
	C47.329792,142.031357 46.146629,141.899567 44.647026,142.040924 
z"/>
<path fill="#DBDBF4" opacity="1.000000" stroke="none" 
	d="
M53.128334,157.210297 
	C54.217205,153.629593 56.354336,151.870834 59.524872,153.499557 
	C62.266762,154.908066 64.247635,157.122803 61.969711,160.747269 
	C61.348331,161.735931 62.220634,163.557922 61.897213,164.871902 
	C61.627396,165.968063 60.784859,167.437195 59.877506,167.720245 
	C58.940411,168.012589 56.968231,167.394913 56.581951,166.614517 
	C55.155979,163.733627 54.198864,160.620667 53.128334,157.210297 
z"/>
<path fill="#BAB7EA" opacity="1.000000" stroke="none" 
	d="
M121.929840,126.983337 
	C121.235374,126.989067 120.540909,126.994797 119.502182,127.015747 
	C117.598816,125.274765 115.621101,123.737350 114.565628,121.717926 
	C112.192871,117.178146 110.277573,112.399269 107.680214,106.613098 
	C110.583992,107.534676 112.503052,108.143730 114.781647,109.278137 
	C117.404076,115.530113 119.666954,121.256729 121.929840,126.983337 
z"/>
<path fill="#EEC4B9" opacity="1.000000" stroke="none" 
	d="
M143.837494,104.763016 
	C143.717911,105.500984 143.505585,105.912682 143.013428,106.733673 
	C141.933258,107.882301 141.132889,108.621643 140.332520,109.360985 
	C139.865677,108.559250 139.398834,107.757515 138.931992,106.955780 
	C137.619400,104.541611 136.306824,102.127441 135.015869,98.972267 
	C136.671066,96.417450 138.304611,94.603630 139.938156,92.789810 
	C141.208359,94.241173 142.917160,95.513832 143.605148,97.202408 
	C144.123077,98.473602 143.332169,100.278061 143.123886,101.845146 
	C143.330841,102.709015 143.537781,103.572876 143.837494,104.763016 
z"/>
<path fill="#2C2B63" opacity="1.000000" stroke="none" 
	d="
M143.436401,101.694534 
	C143.332169,100.278061 144.123077,98.473602 143.605148,97.202408 
	C142.917160,95.513832 141.208359,94.241173 139.938156,92.789810 
	C138.304611,94.603630 136.671066,96.417450 134.993347,98.599167 
	C132.939331,96.370201 130.607513,93.740921 134.517044,90.885307 
	C138.053070,88.302513 143.509567,88.875870 146.005951,91.975197 
	C148.314957,94.841896 147.421402,98.630180 143.436401,101.694534 
z"/>
<path fill="#4A48CB" opacity="1.000000" stroke="none" 
	d="
M189.887939,102.490623 
	C192.794479,101.636513 195.618134,101.119041 198.572037,100.577698 
	C199.719833,106.643990 194.517151,103.471893 192.635986,105.791512 
	C189.836945,111.450882 191.440018,113.334679 197.946472,113.018494 
	C197.249802,114.024361 196.267532,115.990074 195.902496,115.881447 
	C193.398438,115.136360 190.243103,114.587448 188.780411,112.777168 
	C186.249191,109.644478 187.554153,105.970734 189.887939,102.490623 
z"/>
<path fill="#E0E0F5" opacity="1.000000" stroke="none" 
	d="
M140.155731,81.715057 
	C136.022354,79.724823 135.202072,71.730034 138.888962,69.874626 
	C139.870026,69.380913 142.084122,69.671982 142.673157,70.427902 
	C143.742401,71.800056 144.870346,74.061447 144.427063,75.462189 
	C143.729919,77.665085 141.751312,79.462433 140.155731,81.715057 
z"/>
<path fill="#EFEEF9" opacity="1.000000" stroke="none" 
	d="
M138.641312,106.830864 
	C139.398834,107.757515 139.865677,108.559250 140.332520,109.360985 
	C141.132889,108.621643 141.933258,107.882301 143.029114,106.980347 
	C142.989075,110.502945 142.653534,114.188171 142.237640,118.755791 
	C140.061066,117.069275 138.811005,116.100670 137.271912,114.603271 
	C136.654221,113.060669 136.325592,112.046860 135.996948,111.033051 
	C136.193100,110.354660 136.389267,109.676270 136.280991,108.928421 
	C136.767914,108.141296 137.559280,107.423615 138.641312,106.830864 
z"/>
<path fill="#EA8C6E" opacity="1.000000" stroke="none" 
	d="
M52.977745,101.612045 
	C54.910496,101.503250 56.485256,101.425797 58.131664,101.344818 
	C58.875744,102.766708 59.687141,104.317245 59.852230,104.632729 
	C58.440849,106.342377 57.253487,107.780655 55.899883,109.420311 
	C55.091190,109.019791 53.548172,108.255577 51.814453,107.396912 
	C52.058167,105.655701 52.338963,103.649551 52.977745,101.612045 
z"/>
<path fill="#E0B9B5" opacity="1.000000" stroke="none" 
	d="
M55.129532,190.164398 
	C55.826424,188.244217 56.407104,186.556747 57.342621,184.450195 
	C58.817635,184.028610 59.937817,184.026108 61.057995,184.023605 
	C61.503788,185.992020 61.949581,187.960419 62.413235,190.553528 
	C61.029766,192.506454 59.628433,193.834686 58.227104,195.162918 
	C57.359207,193.793488 56.491310,192.424057 55.249397,190.976654 
	C54.921356,190.731491 54.967339,190.564285 55.129532,190.164398 
z"/>
<path fill="#504ECA" opacity="1.000000" stroke="none" 
	d="
M121.256660,147.952194 
	C105.466331,148.005783 89.676010,148.059357 73.422745,148.208130 
	C72.505890,148.132889 72.051971,147.962448 71.598061,147.792023 
	C71.596764,147.511780 71.595467,147.231552 71.594170,146.951309 
	C81.431107,146.951309 91.268051,146.951309 102.034286,146.933197 
	C106.982002,146.924179 111.000412,146.933258 115.434494,146.976562 
	C117.652328,147.324600 119.454498,147.638397 121.256660,147.952194 
z"/>
<path fill="#3F3E8F" opacity="1.000000" stroke="none" 
	d="
M39.517685,181.481354 
	C37.592873,177.807098 35.713020,173.951050 34.005718,170.020081 
	C33.837364,169.632431 34.610882,168.437775 35.158627,168.256546 
	C35.641418,168.096786 36.829826,168.692825 36.998718,169.193787 
	C37.834991,171.674286 38.514854,174.216293 39.090477,176.772507 
	C39.420761,178.239227 39.447586,179.774292 39.517685,181.481354 
z"/>
<path fill="#363488" opacity="1.000000" stroke="none" 
	d="
M115.018822,146.942337 
	C111.000412,146.933258 106.982002,146.924179 102.506058,146.939331 
	C104.477257,145.665192 106.905991,144.366837 109.724274,143.018555 
	C111.072815,143.092407 112.031799,143.216171 113.491615,143.548889 
	C114.334572,144.819351 114.676697,145.880844 115.018822,146.942337 
z"/>
<path fill="#7F7BDA" opacity="1.000000" stroke="none" 
	d="
M227.980835,137.201630 
	C228.306274,133.565628 230.668640,135.028275 231.757660,136.004883 
	C232.767715,136.910660 233.608154,139.204758 233.141159,140.296173 
	C232.299149,142.263977 230.425125,143.790207 228.982162,145.500870 
	C228.414108,145.152664 227.846054,144.804459 227.278000,144.456253 
	C227.721146,143.296585 227.875015,141.856522 228.669205,141.037125 
	C230.199783,139.458008 230.533432,138.391098 227.980835,137.201630 
z"/>
<path fill="#7A75D7" opacity="1.000000" stroke="none" 
	d="
M122.178391,127.115707 
	C119.666954,121.256729 117.404076,115.530113 115.111298,109.446030 
	C115.809441,109.113091 116.537476,109.137619 117.620178,109.262543 
	C119.975937,115.256775 121.977036,121.150612 123.993515,127.404724 
	C123.481567,127.592690 122.954262,127.420380 122.178391,127.115707 
z"/>
<path fill="#EA9579" opacity="1.000000" stroke="none" 
	d="
M178.605530,85.939240 
	C179.866531,85.343094 180.760376,84.831245 182.742599,83.696167 
	C182.174881,85.663521 181.856903,86.765411 181.245667,88.016121 
	C178.336502,89.075645 175.736908,90.037651 173.098206,90.876617 
	C171.655930,91.335182 170.147476,91.585587 168.403748,90.782097 
	C171.681961,89.195915 174.960159,87.609734 178.605530,85.939240 
z"/>
<path fill="#F1F1FB" opacity="1.000000" stroke="none" 
	d="
M198.224060,113.013588 
	C191.440018,113.334679 189.836945,111.450882 192.480484,106.099319 
	C194.851639,108.130272 196.860260,110.231209 198.962433,112.654373 
	C198.871216,112.987289 198.686432,112.997986 198.224060,113.013588 
z"/>
<path fill="#7F7BDA" opacity="1.000000" stroke="none" 
	d="
M226.055603,146.519882 
	C226.171829,146.826080 226.098068,147.138077 226.024292,147.450073 
	C225.971405,147.141937 225.918518,146.833817 226.055603,146.519882 
z"/>
<path fill="#E87F5E" opacity="1.000000" stroke="none" 
	d="
M217.956360,114.846313 
	C214.331497,114.660767 213.669922,113.665833 213.320663,108.244102 
	C215.035995,108.037231 216.758270,107.829514 218.478317,107.622070 
	C219.218826,108.966072 220.051270,110.476898 220.883942,111.987305 
	C219.923599,112.809898 218.963013,113.632912 217.956360,114.846313 
z"/>
<path fill="#DDDCF3" opacity="1.000000" stroke="none" 
	d="
M35.973785,213.552658 
	C41.298756,214.502899 45.664890,213.983261 48.958996,208.748123 
	C51.304459,205.020615 54.586208,205.390808 57.394341,208.823700 
	C58.222492,209.836105 59.157585,210.761017 60.421417,212.261230 
	C62.544716,215.037460 64.290268,217.278473 66.242142,219.765945 
	C69.484207,225.375687 73.324791,230.663010 67.797684,236.886383 
	C67.561028,236.960495 67.094902,237.129974 66.797058,237.124634 
	C66.001106,237.438400 65.502991,237.757507 64.580574,238.069931 
	C62.279362,237.774368 60.392834,237.212555 58.528416,237.278259 
	C56.875916,237.336487 55.247990,238.092209 53.609219,238.540024 
	C53.351089,238.551849 53.092842,238.555878 52.726913,238.259827 
	C52.503490,237.587570 52.387619,237.207565 52.136749,236.516327 
	C49.771950,233.374268 47.542145,230.543442 45.221146,227.596863 
	C42.643036,229.667236 39.845833,231.913544 36.679024,234.075806 
	C34.854874,233.571564 33.400326,233.151382 31.909380,232.348053 
	C32.419529,228.993454 32.489754,226.142258 29.855242,223.974030 
	C31.238258,223.020187 33.191669,222.362289 33.874928,221.045380 
	C34.989670,218.896805 35.275833,216.318344 35.973785,213.552658 
z"/>
<path fill="#5C58C2" opacity="1.000000" stroke="none" 
	d="
M29.567623,223.961227 
	C32.489754,226.142258 32.419529,228.993454 31.640995,232.598145 
	C30.940073,234.821503 30.471138,236.411652 29.853409,238.226440 
	C29.216658,238.632309 28.728697,238.813507 28.240738,238.994705 
	C20.054184,238.994705 11.867632,238.994705 3.681081,238.994705 
	C3.614981,238.302628 3.548882,237.610550 3.482783,236.918488 
	C6.783301,236.589661 10.083818,236.260834 13.785256,235.892075 
	C12.413467,235.199020 11.347023,234.614868 10.243745,234.111420 
	C7.032755,232.646194 6.909709,229.833633 9.315762,228.425247 
	C12.481703,226.572052 16.422644,226.038788 20.035460,224.955017 
	C21.541368,224.503281 24.602194,226.271240 23.340492,222.150940 
	C25.106205,222.596924 27.193106,223.272675 29.567623,223.961227 
z"/>
<path fill="#4643C9" opacity="1.000000" stroke="none" 
	d="
M184.942093,223.404037 
	C193.355438,221.568817 197.879700,226.938202 202.585281,233.205048 
	C203.983276,234.836029 204.981567,235.974121 206.094803,237.332245 
	C206.426056,237.816086 206.696304,238.001129 207.141495,238.320114 
	C207.485428,238.783859 207.756500,238.961334 208.075775,239.065231 
	C210.376266,242.002960 212.676758,244.940689 215.010254,247.920563 
	C208.002655,250.631027 204.012512,249.439804 199.891541,243.703018 
	C198.841553,242.241364 197.459290,241.018387 196.088623,239.083313 
	C195.930618,238.280212 195.913666,238.079529 195.773254,237.660156 
	C195.375885,237.246109 195.101959,237.050781 194.722961,236.571899 
	C193.516678,235.110748 192.415482,233.933182 191.314285,232.755615 
	C189.759171,230.770279 188.204056,228.784943 186.282852,226.348450 
	C185.591858,225.066223 185.266968,224.235123 184.942093,223.404037 
z"/>
<path fill="#6260A3" opacity="1.000000" stroke="none" 
	d="
M195.896698,237.878845 
	C195.913666,238.079529 195.930618,238.280212 195.939453,238.782608 
	C152.595428,239.045319 109.259499,239.006317 65.462265,238.711578 
	C65.000954,238.455826 65.004875,238.076614 65.004875,238.076614 
	C65.502991,237.757507 66.001106,237.438400 67.086212,237.414673 
	C68.160370,237.801620 68.647591,237.973602 69.134712,237.973343 
	C111.388710,237.950394 153.642700,237.914154 195.896698,237.878845 
z"/>
<path fill="#252480" opacity="1.000000" stroke="none" 
	d="
M207.020462,238.107422 
	C206.696304,238.001129 206.426056,237.816086 206.563477,237.279938 
	C216.410950,236.940308 225.904709,236.873047 235.398468,236.805771 
	C240.626114,236.507355 245.853775,236.208923 251.516022,235.831833 
	C254.119461,236.041016 256.288300,236.328888 258.457123,236.616745 
	C258.461182,237.225571 258.465271,237.834396 258.469330,238.443222 
	C253.373779,239.586670 248.066589,238.745407 242.114471,238.640427 
	C229.910049,238.236557 218.465256,238.171997 207.020462,238.107422 
z"/>
<path fill="#726CD1" opacity="1.000000" stroke="none" 
	d="
M28.143171,239.399902 
	C28.728697,238.813507 29.216658,238.632309 30.169376,238.412811 
	C32.248417,238.490479 33.862698,238.606400 35.622585,238.820679 
	C35.768192,238.919037 36.081017,239.079147 36.081017,239.079147 
	C35.755417,239.632965 35.535149,240.299423 35.085133,240.720184 
	C33.526520,242.177429 31.887987,243.549210 30.279875,244.953522 
	C29.535118,243.237381 28.790361,241.521225 28.143171,239.399902 
z"/>
<path fill="#6260A3" opacity="1.000000" stroke="none" 
	d="
M207.141495,238.320114 
	C218.465256,238.171997 229.910049,238.236557 241.645996,238.592590 
	C230.959167,238.926682 219.981201,238.969299 208.539490,239.038574 
	C207.756500,238.961334 207.485428,238.783859 207.141495,238.320114 
z"/>
<path fill="#6866A7" opacity="1.000000" stroke="none" 
	d="
M52.271744,236.827545 
	C52.387619,237.207565 52.503490,237.587570 52.533268,238.254044 
	C47.299725,238.693726 42.152275,238.846954 36.542923,239.039673 
	C36.081017,239.079147 35.768192,238.919037 35.716019,238.612610 
	C35.663849,238.306198 35.893242,237.912811 36.365170,237.934601 
	C41.981979,237.580109 47.126862,237.203827 52.271744,236.827545 
z"/>
<path fill="#6866A7" opacity="1.000000" stroke="none" 
	d="
M64.580574,238.069931 
	C65.004875,238.076614 65.000954,238.455826 64.997452,238.645401 
	C61.508263,238.850479 58.022572,238.865967 54.073051,238.710739 
	C55.247990,238.092209 56.875916,237.336487 58.528416,237.278259 
	C60.392834,237.212555 62.279362,237.774368 64.580574,238.069931 
z"/>
<path fill="#E47F60" opacity="1.000000" stroke="none" 
	d="
M235.260132,236.499115 
	C225.904709,236.873047 216.410950,236.940308 206.448517,237.059906 
	C204.981567,235.974121 203.983276,234.836029 202.851288,233.395233 
	C212.183121,233.026550 221.648651,232.960556 231.587341,232.832062 
	C233.080948,233.910538 234.101379,235.051498 235.260132,236.499115 
z"/>
<path fill="#E78161" opacity="1.000000" stroke="none" 
	d="
M190.823517,232.820404 
	C192.415482,233.933182 193.516678,235.110748 194.266815,236.608124 
	C151.955292,236.889374 109.994812,236.850830 68.034332,236.812286 
	C73.324791,230.663010 69.484207,225.375687 66.312363,219.304504 
	C66.146835,217.049301 66.117432,215.501968 66.389000,214.129669 
	C70.178894,217.243652 71.858887,215.965744 72.335609,211.882858 
	C73.604347,211.174057 74.871178,209.850052 76.142113,209.846085 
	C111.565971,209.735718 146.990250,209.756653 182.414459,209.764389 
	C185.835678,209.765137 189.256912,209.821152 193.501572,209.819199 
	C201.538040,209.736786 208.751053,209.686691 216.395752,209.753174 
	C218.878418,209.859634 220.929413,209.849503 223.436340,209.904663 
	C227.281357,209.841003 230.670425,209.712067 234.059509,209.583145 
	C233.571243,210.933960 233.082993,212.284775 232.333527,213.799484 
	C202.125015,213.919739 172.177704,213.847214 142.230453,213.856781 
	C136.211014,213.858688 132.075867,217.776825 132.044693,223.129471 
	C132.011856,228.762909 136.178879,232.865952 142.414841,232.897690 
	C158.387039,232.979004 174.360062,232.900055 190.823517,232.820404 
z"/>
<path fill="#5554A0" opacity="1.000000" stroke="none" 
	d="
M184.538574,223.305679 
	C185.266968,224.235123 185.591858,225.066223 185.989471,226.154724 
	C183.407349,226.412140 180.752502,226.412140 177.672607,226.412140 
	C178.955612,222.375412 181.680847,223.094009 184.538574,223.305679 
z"/>
<path fill="#D7D6F0" opacity="1.000000" stroke="none" 
	d="
M180.310287,196.011337 
	C180.310287,199.761307 180.310287,203.511261 180.310287,207.490173 
	C169.893814,207.490173 159.497025,207.490173 149.112610,207.179504 
	C149.396881,202.274261 149.668777,197.679672 150.416092,193.074524 
	C160.578018,193.073227 170.264511,193.082474 179.991608,193.458710 
	C180.124893,194.554230 180.217590,195.282791 180.310287,196.011337 
z"/>
<path fill="#E3876C" opacity="1.000000" stroke="none" 
	d="
M149.940674,193.085083 
	C149.668777,197.679672 149.396881,202.274261 148.777893,207.017212 
	C145.660202,207.320831 142.889587,207.476059 139.949097,207.229385 
	C139.870850,202.255630 139.962479,197.683762 140.054108,193.111908 
	C140.169891,192.511093 140.285690,191.910263 140.258331,191.111816 
	C140.138702,190.482635 140.162247,190.051086 140.182266,188.871857 
	C140.047958,185.692581 139.917191,183.260956 139.784149,180.787216 
	C148.191605,179.140686 149.450867,180.143402 149.886749,189.418930 
	C149.879562,190.165771 149.911987,190.592987 149.774551,191.183838 
	C149.716690,191.926682 149.828690,192.505875 149.940674,193.085083 
z"/>
<path fill="#4C4ACB" opacity="1.000000" stroke="none" 
	d="
M149.944397,191.020187 
	C149.911987,190.592987 149.879562,190.165771 150.363068,189.421844 
	C160.376831,189.105133 169.874695,189.105133 179.662109,189.105133 
	C179.372787,186.679260 179.160248,184.897217 178.976547,182.656448 
	C179.065643,179.450729 179.125900,176.703751 179.455780,174.132324 
	C182.737061,176.553970 185.748703,178.800064 188.956238,181.313095 
	C189.969788,182.319992 190.787445,183.059937 191.465851,184.234772 
	C191.568085,187.227219 191.809570,189.784775 192.051056,192.342346 
	C189.879242,198.008148 185.280655,196.399399 180.697952,196.005859 
	C180.217590,195.282791 180.124893,194.554230 179.944733,193.046646 
	C178.375961,191.862183 176.899399,191.127243 175.412506,191.105774 
	C166.924500,190.983200 158.434036,191.030563 149.944397,191.020187 
z"/>
<path fill="#DCDCF3" opacity="1.000000" stroke="none" 
	d="
M139.585266,193.100464 
	C139.962479,197.683762 139.870850,202.255630 139.619095,207.142349 
	C135.393845,207.373917 131.231064,207.806595 127.291298,207.060898 
	C123.420509,206.328278 121.444550,203.117218 122.176010,199.134354 
	C122.888817,195.253128 125.579613,193.156769 129.623291,193.099243 
	C132.787094,193.054214 135.952011,193.089447 139.585266,193.100464 
z"/>
<path fill="#EEC4B9" opacity="1.000000" stroke="none" 
	d="
M203.935730,189.466858 
	C206.955673,188.530823 210.048843,187.932693 213.405457,187.150146 
	C217.547089,191.886108 221.425278,196.806458 225.592377,201.882294 
	C226.464798,203.131012 227.048325,204.224274 227.365738,205.672867 
	C225.716537,206.025375 224.333466,206.022537 222.602448,205.933990 
	C221.780869,205.782684 221.307220,205.717087 220.679321,205.380768 
	C218.339828,203.408188 216.154572,201.706329 213.986435,200.000458 
	C214.003540,199.996460 213.994385,200.030380 214.039749,199.703705 
	C213.705032,198.875565 213.324936,198.374115 212.811737,197.578033 
	C211.533554,193.804123 209.088242,196.284042 207.225586,196.093613 
	C206.153381,193.997330 205.081161,191.901031 203.935730,189.466858 
z"/>
<path fill="#B8AEDE" opacity="1.000000" stroke="none" 
	d="
M207.285400,196.465454 
	C209.088242,196.284042 211.533554,193.804123 212.608643,197.740250 
	C213.023895,198.808197 213.509140,199.419296 213.994385,200.030380 
	C213.994385,200.030380 214.003540,199.996460 214.006256,200.346985 
	C214.798981,202.321579 215.588989,203.945648 216.273438,205.968781 
	C216.099930,207.457443 216.031998,208.547028 215.964081,209.636597 
	C208.751053,209.686691 201.538040,209.736786 193.912903,209.702362 
	C197.058411,207.835251 200.484909,205.680450 204.208389,204.368546 
	C208.432968,202.880066 209.174240,200.546432 207.285400,196.465454 
z"/>
<path fill="#EDC1B6" opacity="1.000000" stroke="none" 
	d="
M191.605103,183.799896 
	C190.787445,183.059937 189.969788,182.319992 189.096222,180.999634 
	C190.359055,178.811035 191.677811,177.202881 193.036713,175.901520 
	C198.618912,181.353394 198.618912,181.353394 203.722061,175.525482 
	C205.778671,175.347656 206.908279,175.249985 208.037888,175.152313 
	C209.785980,175.545410 211.534073,175.938522 212.768936,176.216217 
	C209.329498,179.338638 205.800797,182.542099 202.142639,186.088257 
	C200.616806,186.945847 199.220444,187.460724 197.317627,187.731781 
	C195.075836,186.258606 193.340469,185.029251 191.605103,183.799896 
z"/>
<path fill="#ECC2B9" opacity="1.000000" stroke="none" 
	d="
M72.289444,211.514008 
	C71.858887,215.965744 70.178894,217.243652 66.299583,213.779572 
	C63.905693,209.867050 61.902187,206.479660 59.898682,203.092270 
	C59.493168,203.047455 59.087654,203.002640 58.349243,202.559998 
	C58.367069,200.557938 58.717793,198.953705 59.379269,197.419220 
	C61.069305,198.082321 62.448593,198.675644 63.983883,199.562988 
	C66.809631,203.373901 69.479370,206.890793 72.149109,210.407700 
	C72.180504,210.653519 72.211891,210.899338 72.289444,211.514008 
z"/>
<path fill="#4643C7" opacity="1.000000" stroke="none" 
	d="
M72.132355,210.005127 
	C69.479370,206.890793 66.809631,203.373901 64.046043,199.175903 
	C64.947403,196.067764 65.942612,193.640732 66.937820,191.213699 
	C67.934082,192.250656 68.930328,193.287613 69.998505,194.642197 
	C70.752144,199.840744 71.433868,204.721649 72.132355,210.005127 
z"/>
<path fill="#ABA8E3" opacity="1.000000" stroke="none" 
	d="
M191.465851,184.234772 
	C193.340469,185.029251 195.075836,186.258606 196.987000,187.773178 
	C195.651840,189.366898 194.140869,190.675400 192.340485,192.163132 
	C191.809570,189.784775 191.568085,187.227219 191.465851,184.234772 
z"/>
<path fill="#E78160" opacity="1.000000" stroke="none" 
	d="
M132.812119,137.006348 
	C135.002029,136.678253 137.191956,136.350143 140.129669,135.945709 
	C141.803253,135.833801 142.729019,135.798248 143.821594,136.109039 
	C145.550079,141.934891 149.624191,139.098450 152.832596,139.127426 
	C151.077148,141.549942 149.321716,143.972473 147.358582,146.631622 
	C141.426590,147.041458 135.702316,147.214661 129.601929,148.132294 
	C129.251404,155.478806 129.276978,162.080902 129.302551,168.682999 
	C129.239868,168.910919 129.177200,169.138824 128.755310,169.753235 
	C128.010376,170.222519 127.624702,170.305283 127.239021,170.388046 
	C126.332535,169.929489 125.426048,169.470917 124.223038,168.754211 
	C123.156364,161.921387 122.386223,155.346695 121.589981,147.955444 
	C121.103203,142.850906 123.024834,140.498703 127.232506,139.542267 
	C129.183701,139.098724 130.957764,137.875885 132.812119,137.006348 
z"/>
<path fill="#F7F1F4" opacity="1.000000" stroke="none" 
	d="
M132.512482,136.887085 
	C130.957764,137.875885 129.183701,139.098724 127.232506,139.542267 
	C123.024834,140.498703 121.103203,142.850906 121.418999,147.534286 
	C121.274117,147.929688 121.283676,147.957642 121.270172,147.954926 
	C119.454498,147.638397 117.652328,147.324600 115.434494,146.976562 
	C114.676697,145.880844 114.334572,144.819351 113.849991,143.452255 
	C116.672485,140.703018 119.724266,138.354858 122.563713,135.773163 
	C123.872559,134.583115 124.765999,132.936188 126.059593,131.214554 
	C128.636475,133.540176 130.424652,135.154007 132.512482,136.887085 
z"/>
<path fill="#4C4ACB" opacity="1.000000" stroke="none" 
	d="
M123.499565,168.873901 
	C123.411469,169.281769 122.861229,169.896637 122.315186,169.892929 
	C111.383514,169.818680 100.452332,169.673111 89.226807,169.232361 
	C100.301498,168.879471 111.670433,168.836166 123.499565,168.873901 
z"/>
<path fill="#DDDCF3" opacity="1.000000" stroke="none" 
	d="
M178.947708,183.115173 
	C179.160248,184.897217 179.372787,186.679260 179.662109,189.105133 
	C169.874695,189.105133 160.376831,189.105133 150.402664,189.102203 
	C149.450867,180.143402 148.191605,179.140686 139.784149,180.787216 
	C139.917191,183.260956 140.047958,185.692581 140.119156,188.552887 
	C134.598221,188.985687 129.136765,189.012360 123.675537,188.988129 
	C116.909874,188.958099 113.121964,185.911530 113.064873,180.511124 
	C113.006432,174.982971 116.536316,172.048325 123.397499,171.917603 
	C124.059181,171.904999 124.720558,171.876633 125.726959,172.247879 
	C125.030334,175.369598 123.988831,178.099014 122.947327,180.828430 
	C123.385475,181.099930 123.823624,181.371429 124.261772,181.642914 
	C126.860542,178.444412 129.459320,175.245911 132.058090,172.047409 
	C143.023514,171.996933 153.988937,171.946472 165.429337,172.375793 
	C167.446701,180.599609 170.953491,183.357971 178.947708,183.115173 
z"/>
<path fill="#292883" opacity="1.000000" stroke="none" 
	d="
M178.976547,182.656448 
	C170.953491,183.357971 167.446701,180.599609 165.881577,172.468903 
	C167.400238,169.710999 168.745758,167.176727 170.542633,165.018204 
	C172.086044,163.164139 174.145126,161.739395 175.973999,159.818451 
	C176.648819,158.012695 177.304947,156.503448 178.006638,155.015717 
	C180.419006,149.900818 183.820282,149.105911 188.484222,152.846100 
	C185.890213,154.704086 183.505478,156.217911 181.546326,157.461563 
	C182.091461,160.613510 182.633316,163.746506 182.852356,167.041840 
	C181.415070,169.455032 180.300598,171.705887 179.186157,173.956757 
	C179.125900,176.703751 179.065643,179.450729 178.976547,182.656448 
z"/>
<path fill="#DBD8EF" opacity="1.000000" stroke="none" 
	d="
M129.643890,168.697052 
	C129.276978,162.080902 129.251404,155.478806 129.368164,148.425446 
	C135.902649,148.846985 139.591156,152.351929 139.913010,157.859039 
	C140.240021,163.454086 136.842773,167.167603 129.643890,168.697052 
z"/>
<path fill="#3A3789" opacity="1.000000" stroke="none" 
	d="
M131.865463,171.808319 
	C129.459320,175.245911 126.860542,178.444412 124.261772,181.642914 
	C123.823624,181.371429 123.385475,181.099930 122.947327,180.828430 
	C123.988831,178.099014 125.030334,175.369598 126.182663,172.269928 
	C126.587822,171.559937 126.882156,171.220200 127.207764,170.634262 
	C127.624702,170.305283 128.010376,170.222519 128.691681,170.102051 
	C129.882477,170.565964 130.777664,171.067596 131.865463,171.808319 
z"/>
<path fill="#4643C9" opacity="1.000000" stroke="none" 
	d="
M153.163727,138.956604 
	C149.624191,139.098450 145.550079,141.934891 143.795013,135.735474 
	C143.283279,132.685089 142.964935,130.354645 142.646591,128.024185 
	C144.107742,126.983307 146.125977,126.252655 146.914291,124.837074 
	C148.564209,121.874359 149.566040,118.550705 151.128540,115.305534 
	C152.674469,121.547234 153.737595,127.905052 155.274979,134.146042 
	C155.846573,136.466415 155.996597,137.954697 153.163727,138.956604 
z"/>
<path fill="#6864D3" opacity="1.000000" stroke="none" 
	d="
M179.455780,174.132324 
	C180.300598,171.705887 181.415070,169.455032 183.191986,167.094269 
	C185.250198,167.591476 186.645966,168.198563 188.041718,168.805634 
	C189.506973,170.178772 190.972229,171.551926 192.778305,173.409790 
	C193.078278,174.461227 193.037430,175.027985 192.996567,175.594727 
	C191.677811,177.202881 190.359055,178.811035 188.900330,180.732666 
	C185.748703,178.800064 182.737061,176.553970 179.455780,174.132324 
z"/>
<path fill="#E9C0B6" opacity="1.000000" stroke="none" 
	d="
M188.016068,168.412323 
	C186.645966,168.198563 185.250198,167.591476 183.514816,166.931946 
	C182.633316,163.746506 182.091461,160.613510 181.546326,157.461563 
	C183.505478,156.217911 185.890213,154.704086 188.619232,153.168884 
	C189.290024,155.211761 189.616547,157.276016 189.948288,159.906876 
	C189.953522,160.473465 189.939743,160.791519 189.939743,160.791519 
	C189.289963,163.200684 188.640182,165.609833 188.016068,168.412323 
z"/>
<path fill="#E48569" opacity="1.000000" stroke="none" 
	d="
M193.036728,175.901520 
	C193.037430,175.027985 193.078278,174.461227 193.122742,173.470428 
	C199.529205,176.168823 202.945602,170.834778 207.594238,168.358551 
	C208.513168,170.112839 204.391861,171.654694 208.010803,173.044724 
	C208.011795,173.512268 208.012787,173.979813 208.025833,174.799835 
	C206.908279,175.249985 205.778671,175.347656 203.722061,175.525482 
	C198.618912,181.353394 198.618912,181.353394 193.036728,175.901520 
z"/>
<path fill="#E1D6E5" opacity="1.000000" stroke="none" 
	d="
M208.187302,172.756790 
	C204.391861,171.654694 208.513168,170.112839 207.942841,168.320923 
	C209.215530,165.531387 210.470245,163.084320 212.113464,160.309723 
	C212.501968,159.982208 212.999664,159.943588 212.999664,159.943588 
	C212.999664,159.943588 213.487518,159.987595 213.756042,160.274933 
	C214.267532,161.021042 214.510498,161.479782 214.753464,161.938538 
	C212.623581,165.448654 210.493698,168.958755 208.187302,172.756790 
z"/>
<path fill="#B9B5E9" opacity="1.000000" stroke="none" 
	d="
M214.908173,161.844788 
	C214.510498,161.479782 214.267532,161.021042 214.000397,160.291718 
	C214.303192,160.298218 214.630203,160.575272 215.107788,161.149445 
	C215.258392,161.446564 215.062897,161.751038 214.908173,161.844788 
z"/>
<path fill="#F7F7FC" opacity="1.000000" stroke="none" 
	d="
M190.246750,160.846405 
	C189.939743,160.791519 189.953522,160.473465 189.951843,160.316071 
	C190.409439,160.078369 190.868698,159.998077 191.675507,159.952698 
	C191.533264,160.292145 191.043503,160.596710 190.246750,160.846405 
z"/>
<path fill="#B9B5E9" opacity="1.000000" stroke="none" 
	d="
M212.980392,159.701294 
	C212.999664,159.943588 212.501968,159.982208 212.252777,159.995697 
	C212.155914,159.580505 212.308258,159.151825 212.460587,158.723129 
	C212.627426,158.968414 212.794281,159.213715 212.980392,159.701294 
z"/>
<path fill="#726CD1" opacity="1.000000" stroke="none" 
	d="
M59.906822,203.503967 
	C61.902187,206.479660 63.905693,209.867050 65.998611,213.604553 
	C66.117432,215.501968 66.146835,217.049301 66.106033,219.058060 
	C64.290268,217.278473 62.544716,215.037460 60.664726,212.468658 
	C60.325180,209.399139 60.120068,206.657394 59.906822,203.503967 
z"/>
<path fill="#6F68CF" opacity="1.000000" stroke="none" 
	d="
M66.598236,191.134521 
	C65.942612,193.640732 64.947403,196.067764 63.890038,198.881882 
	C62.448593,198.675644 61.069305,198.082321 59.211060,197.259644 
	C58.732098,197.030289 58.316101,196.832413 58.316101,196.832413 
	C58.274483,196.461884 58.232868,196.091339 58.209175,195.441864 
	C59.628433,193.834686 61.029766,192.506454 62.662247,190.843094 
	C64.015152,190.690430 65.136902,190.872894 66.598236,191.134521 
z"/>
<path fill="#EDA993" opacity="1.000000" stroke="none" 
	d="
M58.040436,197.121582 
	C58.316101,196.832413 58.732098,197.030289 58.900307,197.189880 
	C58.717793,198.953705 58.367069,200.557938 58.045345,202.524307 
	C55.073753,203.348465 53.252884,202.357681 53.245766,198.710007 
	C54.743938,198.279251 56.254353,197.844986 58.040436,197.121582 
z"/>
<path fill="#F7F7FC" opacity="1.000000" stroke="none" 
	d="
M43.134094,192.861267 
	C43.345505,192.596420 43.886929,192.323471 44.737366,192.018646 
	C44.518959,192.275558 43.991539,192.564362 43.134094,192.861267 
z"/>
<path fill="#F7F7FC" opacity="1.000000" stroke="none" 
	d="
M215.292282,184.863922 
	C215.220123,184.678253 215.365799,184.384064 215.755798,184.016571 
	C215.961990,184.289566 215.798645,184.560272 215.292282,184.863922 
z"/>
<path fill="#726CD1" opacity="1.000000" stroke="none" 
	d="
M222.950378,206.019699 
	C224.333466,206.022537 225.716537,206.025375 227.507019,205.953857 
	C229.890427,206.916397 231.866425,207.953293 233.950958,209.286667 
	C230.670425,209.712067 227.281357,209.841003 223.445923,209.523224 
	C222.983170,208.057571 222.966766,207.038635 222.950378,206.019699 
z"/>
<path fill="#F6F2F7" opacity="1.000000" stroke="none" 
	d="
M142.450409,127.781387 
	C142.964935,130.354645 143.283279,132.685089 143.628204,135.389130 
	C142.729019,135.798248 141.803253,135.833801 140.531311,135.841522 
	C139.367371,133.347305 138.549606,130.880936 137.473892,128.156876 
	C137.143692,126.497520 137.071426,125.095871 136.915405,123.278008 
	C137.268402,122.607849 138.043442,122.079269 138.092682,122.139923 
	C139.524323,123.903404 140.883453,125.725723 142.450409,127.781387 
z"/>
<path fill="#E5C1C1" opacity="1.000000" stroke="none" 
	d="
M135.575470,111.012085 
	C136.325592,112.046860 136.654221,113.060669 136.984161,114.395493 
	C136.377594,115.345428 135.769699,115.974342 134.819122,116.627312 
	C134.204315,116.466393 133.900406,116.314804 133.665497,116.090843 
	C132.477051,114.957886 131.306564,113.806129 130.129776,112.660957 
	C131.804520,112.104340 133.479248,111.547729 135.575470,111.012085 
z"/>
<path fill="#EDC2B5" opacity="1.000000" stroke="none" 
	d="
M61.260292,183.753113 
	C59.937817,184.026108 58.817635,184.028610 57.277519,184.041489 
	C55.884254,182.393280 54.910919,180.734680 53.416500,178.188126 
	C55.512493,176.691620 57.880402,173.745255 59.601353,174.084167 
	C61.846554,174.526306 63.579166,177.571350 65.898895,179.857697 
	C63.925377,181.470261 62.693981,182.476440 61.260292,183.753113 
z"/>
<path fill="#252480" opacity="1.000000" stroke="none" 
	d="
M67.797684,236.886398 
	C109.994812,236.850830 151.955292,236.889374 194.371918,236.891693 
	C195.101959,237.050781 195.375885,237.246109 195.773254,237.660156 
	C153.642700,237.914154 111.388710,237.950394 69.134712,237.973343 
	C68.647591,237.973602 68.160370,237.801620 67.384048,237.420013 
	C67.094902,237.129974 67.561028,236.960495 67.797684,236.886398 
z"/>
<path fill="#6B67D2" opacity="1.000000" stroke="none" 
	d="
M52.136749,236.516327 
	C47.126862,237.203827 41.981979,237.580109 36.385044,237.603760 
	C36.304874,236.220734 36.676754,235.190292 37.048630,234.159866 
	C39.845833,231.913544 42.643036,229.667236 45.221146,227.596863 
	C47.542145,230.543442 49.771950,233.374268 52.136749,236.516327 
z"/>
<path fill="#EEC4B9" opacity="1.000000" stroke="none" 
	d="
M36.679028,234.075806 
	C36.676754,235.190292 36.304874,236.220734 35.913116,237.581985 
	C35.893242,237.912811 35.663849,238.306198 35.570412,238.514267 
	C33.862698,238.606400 32.248417,238.490479 30.318169,238.188171 
	C30.471138,236.411652 30.940073,234.821503 31.677391,232.981277 
	C33.400326,233.151382 34.854874,233.571564 36.679028,234.075806 
z"/>
<path fill="#4643C7" opacity="1.000000" stroke="none" 
	d="
M222.602448,205.933990 
	C222.966766,207.038635 222.983170,208.057571 222.989990,209.457947 
	C220.929413,209.849503 218.878418,209.859634 216.395752,209.753189 
	C216.031998,208.547028 216.099930,207.457443 216.629272,206.081329 
	C218.338303,205.747055 219.585938,205.699280 220.833572,205.651489 
	C221.307220,205.717087 221.780869,205.782684 222.602448,205.933990 
z"/>
<path fill="#28257F" opacity="1.000000" stroke="none" 
	d="
M149.774536,191.183838 
	C158.434036,191.030563 166.924500,190.983200 175.412506,191.105774 
	C176.899399,191.127243 178.375961,191.862183 179.904160,192.679657 
	C170.264511,193.082474 160.578018,193.073227 150.416107,193.074524 
	C149.828690,192.505875 149.716690,191.926682 149.774536,191.183838 
z"/>
<path fill="#E3876C" opacity="1.000000" stroke="none" 
	d="
M220.679321,205.380768 
	C219.585938,205.699280 218.338303,205.747055 216.734833,205.682251 
	C215.588989,203.945648 214.798981,202.321579 213.989136,200.350998 
	C216.154572,201.706329 218.339828,203.408188 220.679321,205.380768 
z"/>
<path fill="#E3876C" opacity="1.000000" stroke="none" 
	d="
M214.039749,199.703705 
	C213.509140,199.419296 213.023895,198.808197 212.741745,198.034882 
	C213.324936,198.374115 213.705032,198.875565 214.039749,199.703705 
z"/>
</svg>