<svg width="25" height="24" viewBox="0 0 25 24" fill="none" xmlns="http://www.w3.org/2000/svg">
<path fill-rule="evenodd" clip-rule="evenodd" d="M20.8552 7.65929C21.5264 8.17829 21.9382 8.94929 22.0083 9.78829L22.0184 9.98929V18.0983C22.0184 20.1883 20.3642 21.8883 18.2913 21.9983H16.2976C15.3448 21.9793 14.5743 21.2393 14.5042 20.3093L14.4942 20.1683V17.3093C14.4942 16.9983 14.2627 16.7393 13.9531 16.6883L13.863 16.6783H11.1869C10.8673 16.6883 10.6068 16.9183 10.5668 17.2183L10.5567 17.3093V20.1593C10.5567 20.2183 10.5457 20.2883 10.5367 20.3383L10.5267 20.3593L10.5157 20.4283C10.3964 21.2793 9.69511 21.9283 8.82347 21.9893L8.69322 21.9983H6.89984C4.80589 21.9983 3.09266 20.3593 2.98245 18.2983V9.98929C2.99147 9.13829 3.36317 8.34829 3.98434 7.79829L10.2261 2.78829C11.4985 1.77929 13.2819 1.73929 14.5934 2.66829L14.7547 2.78829L20.8552 7.65929ZM20.6147 18.2583L20.6257 18.0983V9.99829C20.6147 9.56929 20.4354 9.16829 20.1248 8.86929L19.9945 8.75829L13.883 3.87829C13.1216 3.26829 12.0395 3.23929 11.238 3.76829L11.0867 3.87829L4.99525 8.77929C4.64559 9.03829 4.43519 9.42829 4.3851 9.83829L4.37408 9.99829V18.0983C4.37408 19.4283 5.41604 20.5183 6.73954 20.5983H8.69322C8.91364 20.5983 9.104 20.4493 9.13305 20.2393L9.15409 20.0593L9.16411 20.0083V17.3093C9.16411 16.2393 9.98566 15.3693 11.0376 15.2883H13.863C14.934 15.2883 15.8056 16.1093 15.8868 17.1593V20.1683C15.8868 20.3783 16.0371 20.5593 16.2375 20.5983H18.1C19.4425 20.5983 20.5346 19.5693 20.6147 18.2583Z" fill="#6A6A8B"/>
</svg>
