<svg width="40" height="40" viewBox="0 0 40 40" fill="none" xmlns="http://www.w3.org/2000/svg">
<path fill-rule="evenodd" clip-rule="evenodd" d="M36.6667 20.0004C36.6667 10.7956 29.2043 3.33374 20 3.33374C10.7958 3.33374 3.33335 10.7956 3.33335 20.0004C3.33335 29.2041 10.7963 36.6671 20 36.6671C29.2037 36.6671 36.6667 29.2041 36.6667 20.0004ZM34.1667 20.0004C34.1667 27.8234 27.823 34.1671 20 34.1671C12.177 34.1671 5.83335 27.8234 5.83335 20.0004C5.83335 12.1764 12.1764 5.83374 20 5.83374C27.8236 5.83374 34.1667 12.1764 34.1667 20.0004ZM23.4072 14.9609C23.7713 14.4724 23.7325 13.7778 23.2896 13.3331C22.8025 12.8439 22.0111 12.8422 21.5219 13.3293L15.7119 19.1143L15.5902 19.2547C15.2252 19.7448 15.2658 20.4417 15.7119 20.8859L21.5219 26.6709L21.6623 26.7916C22.1525 27.1536 22.8468 27.1118 23.2896 26.667L23.4104 26.5266C23.7724 26.0365 23.7306 25.3421 23.2858 24.8993L18.3667 19.9984L23.2858 15.1009L23.4072 14.9609Z" fill="#2E2E5D"/>
</svg>
