<svg width="25" height="24" viewBox="0 0 25 24" fill="none" xmlns="http://www.w3.org/2000/svg">
<g clip-path="url(#clip0_1_563)">
<path d="M23.1754 24.0001C23.9068 24.0001 24.5 23.407 24.5 22.6755V1.32459C24.5 0.592969 23.9068 0 23.1754 0H1.82459C1.09288 0 0.5 0.592969 0.5 1.32459V22.6755C0.5 23.407 1.09288 24.0001 1.82459 24.0001H23.1754Z" fill="#395185"/>
<path d="M17.0596 24.0001V14.706H20.1793L20.6463 11.084H17.0596V8.77138C17.0596 7.72269 17.3508 7.00803 18.8547 7.00803L20.7727 7.00719V3.76766C20.4408 3.7235 19.3023 3.62488 17.9778 3.62488C15.2124 3.62488 13.3192 5.31285 13.3192 8.41278V11.084H10.1915V14.706H13.3192V24.0001H17.0596Z" fill="white"/>
</g>
<defs>
<clipPath id="clip0_1_563">
<rect width="24" height="24" fill="white" transform="translate(0.5)"/>
</clipPath>
</defs>
</svg>
