<svg width="25" height="24" viewBox="0 0 25 24" fill="none" xmlns="http://www.w3.org/2000/svg">
<g clip-path="url(#clip0_1_557)">
<path d="M23.9263 12.2245C23.9263 11.2413 23.8466 10.5238 23.674 9.77966H12.4522V14.2176H19.0392C18.9064 15.3205 18.1893 16.9815 16.5956 18.0976L16.5733 18.2462L20.1214 20.9964L20.3672 21.0209C22.6248 18.9347 23.9263 15.8653 23.9263 12.2245Z" fill="#4285F4"/>
<path d="M12.4522 23.9176C15.6793 23.9176 18.3884 22.8545 20.3673 21.0209L16.5956 18.0976C15.5864 18.8018 14.2318 19.2934 12.4522 19.2934C9.29157 19.2934 6.60898 17.2074 5.65271 14.324L5.51254 14.3359L1.82315 17.1927L1.7749 17.3269C3.74036 21.2334 7.77756 23.9176 12.4522 23.9176Z" fill="#34A853"/>
<path d="M5.65268 14.3239C5.40036 13.5798 5.25433 12.7825 5.25433 11.9587C5.25433 11.1348 5.40036 10.3376 5.6394 9.59354L5.63272 9.43506L1.89709 6.53235L1.77487 6.59052C0.964813 8.21161 0.5 10.032 0.5 11.9587C0.5 13.8854 0.964813 15.7057 1.77487 17.3268L5.65268 14.3239Z" fill="#FBBC05"/>
<path d="M12.4522 4.62403C14.6966 4.62403 16.2105 5.59402 17.0737 6.40461L20.4469 3.10928C18.3752 1.1826 15.6793 0 12.4522 0C7.77756 0 3.74036 2.68406 1.7749 6.59057L5.63944 9.59359C6.60898 6.7102 9.29156 4.62403 12.4522 4.62403Z" fill="#EB4335"/>
</g>
<defs>
<clipPath id="clip0_1_557">
<rect width="24" height="24" fill="white" transform="translate(0.5)"/>
</clipPath>
</defs>
</svg>
