<svg width="25" height="24" viewBox="0 0 25 24" fill="none" xmlns="http://www.w3.org/2000/svg">
<g clip-path="url(#clip0_1_567)">
<path d="M24.5 4.6359C23.6169 5.02749 22.6679 5.29215 21.6719 5.41121C22.6887 4.80184 23.4693 3.83687 23.8369 2.68712C22.8704 3.26067 21.8129 3.66477 20.7103 3.88196C19.812 2.92506 18.5324 2.32703 17.1162 2.32703C14.3968 2.32703 12.1921 4.53165 12.1921 7.25078C12.1921 7.63674 12.2357 8.01249 12.3196 8.37296C8.22744 8.16756 4.59931 6.20734 2.17072 3.22834C1.74697 3.95556 1.50416 4.80146 1.50416 5.70371C1.50416 7.41203 2.3735 8.91906 3.69462 9.80209C2.9127 9.7776 2.14798 9.56641 1.46431 9.18615C1.46403 9.20678 1.46403 9.2274 1.46403 9.24812C1.46403 11.6338 3.16128 13.6239 5.41372 14.0762C4.68864 14.2734 3.92809 14.3023 3.19016 14.1606C3.81669 16.1168 5.63516 17.5403 7.78972 17.5801C6.10456 18.9007 3.98141 19.6879 1.67459 19.6879C1.27709 19.6879 0.885219 19.6646 0.5 19.6191C2.67903 21.0162 5.26719 21.8313 8.04781 21.8313C17.1047 21.8313 22.0573 14.3284 22.0573 7.82181C22.0573 7.60824 22.0526 7.3959 22.043 7.18478C23.007 6.48792 23.839 5.62479 24.5 4.6359Z" fill="#55ACEE"/>
</g>
<defs>
<clipPath id="clip0_1_567">
<rect width="24" height="24" fill="white" transform="translate(0.5)"/>
</clipPath>
</defs>
</svg>
