<svg width="21" height="21" viewBox="0 0 21 21" fill="none" xmlns="http://www.w3.org/2000/svg">
<path fill-rule="evenodd" clip-rule="evenodd" d="M7.28142 18.8333C6.93809 18.8333 6.61226 18.8066 6.30559 18.7541L6.12392 18.72C4.14809 18.3091 2.99976 16.7958 2.99976 14.4925V6.50746C2.99976 6.22913 3.01642 5.96246 3.04976 5.70746C3.34059 3.46996 4.87809 2.16663 7.28142 2.16663H13.7189C16.3823 2.16663 17.9748 3.76663 17.9998 6.44329V6.50746V14.4925C17.9998 17.2066 16.4031 18.8333 13.7189 18.8333H7.28142ZM7.28142 3.38079C5.23476 3.38079 4.19726 4.43329 4.19726 6.50746V14.4925C4.19726 16.5666 5.23476 17.6191 7.28142 17.6191H13.7114C15.7573 17.6191 16.7881 16.5666 16.7881 14.4925V6.50746C16.7881 4.43329 15.7573 3.38079 13.7114 3.38079H7.28142ZM14.0881 14.0283C14.0881 13.695 13.8223 13.425 13.4939 13.425H7.48476C7.15642 13.425 6.88976 13.695 6.88976 14.0283C6.88976 14.3616 7.15642 14.6316 7.48476 14.6316H13.4939C13.8223 14.6316 14.0881 14.3616 14.0881 14.0283ZM13.4939 9.89246C13.7231 9.86746 13.9473 9.97746 14.0698 10.175C14.1923 10.3741 14.1923 10.6258 14.0698 10.825C13.9473 11.0225 13.7231 11.1325 13.4939 11.1075H7.48476C7.17976 11.0725 6.94892 10.8116 6.94892 10.5C6.94892 10.1883 7.17976 9.92663 7.48476 9.89246H13.4939ZM10.3139 6.97579C10.3139 6.66413 10.0831 6.40246 9.77809 6.36829H7.49226C7.18642 6.40246 6.95559 6.66413 6.95559 6.97579C6.95559 7.28663 7.18642 7.54829 7.49226 7.58246H9.77809C10.0831 7.54829 10.3139 7.28663 10.3139 6.97579Z" fill="#4838D1"/>
</svg>
