<svg width="21" height="21" viewBox="0 0 21 21" fill="none" xmlns="http://www.w3.org/2000/svg">
<path fill-rule="evenodd" clip-rule="evenodd" d="M10.5 2.16663C5.89759 2.16663 2.16663 5.89759 2.16663 10.5C2.16663 15.1023 5.89759 18.8333 10.5 18.8333C15.1023 18.8333 18.8333 15.1023 18.8333 10.5C18.8333 5.89759 15.1023 2.16663 10.5 2.16663ZM10.5 3.32942C14.4601 3.32942 17.6705 6.53979 17.6705 10.5C17.6705 14.4601 14.4601 17.6705 10.5 17.6705C6.53979 17.6705 3.32942 14.4601 3.32942 10.5C3.32942 6.53979 6.53979 3.32942 10.5 3.32942ZM9.5595 7.21208L9.47279 7.20384C9.30858 7.1982 9.13918 7.23942 8.98985 7.31998C8.79656 7.42345 8.64053 7.59114 8.55403 7.79875C8.51426 7.89485 8.4455 8.19153 8.41457 8.36384C8.33691 8.78729 8.29174 9.43851 8.28409 10.1532L8.28294 10.3935C8.28212 11.1518 8.32398 11.8735 8.40134 12.349L8.44376 12.5675C8.48598 12.7618 8.54208 12.9688 8.58703 13.0561C8.75852 13.3873 9.10738 13.592 9.47814 13.5802C9.63626 13.5767 9.96844 13.4663 10.1994 13.3693C11.0313 13.0193 12.4964 12.0386 13.1733 11.3773L13.3981 11.1433C13.4841 11.0514 13.5228 11.0086 13.5557 10.9639C13.6781 10.7975 13.7419 10.5964 13.7419 10.3929C13.7419 10.1767 13.6706 9.96553 13.5348 9.79328L13.4683 9.71648L13.282 9.51755C12.6428 8.83633 10.9703 7.71317 10.116 7.38121C9.92808 7.30695 9.71617 7.23579 9.5595 7.21208ZM9.5883 8.42632L9.69176 8.46385C10.3471 8.7185 11.7378 9.64149 12.3311 10.2095L12.5077 10.3914L12.4408 10.4636C11.946 10.997 10.4851 11.9876 9.74897 12.2973L9.58907 12.3558L9.54868 12.1601C9.49072 11.8038 9.45385 11.2397 9.44691 10.6258L9.44572 10.3935C9.44504 9.72393 9.47924 9.09911 9.53814 8.69698L9.56644 8.53126L9.5883 8.42632Z" fill="white"/>
</svg>
