<?xml version="1.0" encoding="UTF-8"?>
<!DOCTYPE svg PUBLIC "-//W3C//DTD SVG 1.1//EN" "http://www.w3.org/Graphics/SVG/1.1/DTD/svg11.dtd">
<svg xmlns="http://www.w3.org/2000/svg" version="1.1" width="260px" height="260px" style="shape-rendering:geometricPrecision; text-rendering:geometricPrecision; image-rendering:optimizeQuality; fill-rule:evenodd; clip-rule:evenodd" xmlns:xlink="http://www.w3.org/1999/xlink">
<g><path style="opacity:0.906" fill="#6e69d3" d="M 99.5,13.5 C 99.5,14.8333 99.5,16.1667 99.5,17.5C 96.6,17.5922 94.9333,16.2589 94.5,13.5C 94.7564,11.2075 94.4231,9.04083 93.5,7C 94.8616,4.5612 96.695,4.0612 99,5.5C 99.4974,8.14603 99.6641,10.8127 99.5,13.5 Z"/></g>
<g><path style="opacity:0.943" fill="#e5805e" d="M 179.5,9.5 C 184.549,10.311 185.715,12.9777 183,17.5C 178.347,20.6018 174.847,19.6018 172.5,14.5C 172.608,13.5581 172.941,12.7247 173.5,12C 175.852,11.7599 177.852,10.9265 179.5,9.5 Z"/></g>
<g><path style="opacity:0.996" fill="#f7f7fc" d="M 94.5,13.5 C 94.9333,16.2589 96.6,17.5922 99.5,17.5C 99.5,16.1667 99.5,14.8333 99.5,13.5C 114.677,14.9237 127.677,20.9237 138.5,31.5C 140.379,32.9049 140.712,34.5716 139.5,36.5C 140.391,37.5896 141.391,37.5896 142.5,36.5C 143.735,37.3398 144.735,38.3398 145.5,39.5C 147.885,41.8838 149.885,44.5505 151.5,47.5C 137.673,48.3311 123.673,48.8311 109.5,49C 103.877,51.7832 100.877,56.2832 100.5,62.5C 92.405,58.4017 86.7383,52.0683 83.5,43.5C 78.6334,51.2348 74.3,59.2348 70.5,67.5C 69.9569,67.56 69.6236,67.8933 69.5,68.5C 70.5,68.8333 71.5,69.1667 72.5,69.5C 80.5933,67.3008 87.9266,68.6341 94.5,73.5C 93.7904,75.7463 93.2904,78.0796 93,80.5C 91.3813,81.083 89.548,81.083 87.5,80.5C 87.1667,81 86.8333,81.5 86.5,82C 87.0707,83.5991 88.0707,84.7658 89.5,85.5C 92.8368,94.5118 96.1702,103.512 99.5,112.5C 99.5,118.5 99.5,124.5 99.5,130.5C 99.3334,147.837 99.5001,165.17 100,182.5C 101.068,187.235 103.901,190.402 108.5,192C 129.5,192.667 150.5,192.667 171.5,192C 177,190.5 180.5,187 182,181.5C 182.667,173.5 182.667,165.5 182,157.5C 179.051,155.557 178.884,153.557 181.5,151.5C 182.832,136.196 183.499,120.862 183.5,105.5C 193.097,119.41 206.097,128.743 222.5,133.5C 222.5,134.167 222.833,134.5 223.5,134.5C 219.503,138.833 218.503,143.833 220.5,149.5C 219.5,149.5 218.5,149.5 217.5,149.5C 216.041,149.433 214.708,149.766 213.5,150.5C 213.652,146.532 212.652,142.865 210.5,139.5C 208.495,140.337 207.495,141.837 207.5,144C 208.417,146.972 209.417,149.806 210.5,152.5C 208.72,155.454 206.72,158.287 204.5,161C 205.056,161.383 205.389,161.883 205.5,162.5C 202.758,163.558 202.091,165.391 203.5,168C 205.058,168.21 206.391,168.71 207.5,169.5C 206.968,175.152 206.635,180.819 206.5,186.5C 203.319,206.138 202.986,225.805 205.5,245.5C 203.42,247.387 201.086,249.054 198.5,250.5C 153.832,250.667 109.165,250.5 64.5,250C 63.255,249.209 61.9217,248.709 60.5,248.5C 59.828,247.733 58.9947,247.066 58,246.5C 57.9949,234.327 57.8283,222.327 57.5,210.5C 58.5676,209.566 59.901,209.232 61.5,209.5C 62.7688,197.971 61.1021,186.971 56.5,176.5C 61.9359,174.45 67.6026,171.617 73.5,168C 76.0867,166.475 76.9201,164.308 76,161.5C 71.5378,166.315 66.0378,168.815 59.5,169C 58.5697,167.806 57.9031,166.473 57.5,165C 58.9448,160.73 57.7781,157.23 54,154.5C 54.6069,156.582 55.4403,158.749 56.5,161C 55.5701,163.435 53.9034,164.935 51.5,165.5C 49.8958,164.713 49.2291,163.38 49.5,161.5C 50.1587,158.545 50.4921,155.545 50.5,152.5C 51.39,148.861 52.39,145.194 53.5,141.5C 53.3333,140.167 53.1667,138.833 53,137.5C 52.6174,136.944 52.1174,136.611 51.5,136.5C 49.1585,134.032 46.4918,133.866 43.5,136C 39.9131,139.005 37.7464,142.838 37,147.5C 33.6667,149.5 31,152.167 29,155.5C 27.026,163.234 29.8593,167.901 37.5,169.5C 37.0133,170.473 36.5133,171.473 36,172.5C 35.6865,179.017 35.1865,185.517 34.5,192C 34.5446,194.22 35.5446,195.72 37.5,196.5C 39.4683,192.933 39.8017,189.266 38.5,185.5C 38.9474,180.023 39.9474,174.69 41.5,169.5C 41.8417,168.662 42.5084,168.328 43.5,168.5C 44.6336,171.37 45.3003,174.37 45.5,177.5C 40.8927,187.873 38.8927,198.873 39.5,210.5C 37.96,222.863 36.2933,235.196 34.5,247.5C 34.5858,248.496 34.2524,249.329 33.5,250C 27.8431,250.499 22.1764,250.666 16.5,250.5C 9.54568,237.37 5.04568,223.37 3,208.5C 1.76532,200.027 0.598656,191.694 -0.5,183.5C -0.5,169.5 -0.5,155.5 -0.5,141.5C 2.30458,107.087 13.6379,75.7533 33.5,47.5C 40.4207,46.7027 47.4207,46.2027 54.5,46C 55.894,42.108 58.2273,41.608 61.5,44.5C 62.521,43.9984 62.6877,43.3317 62,42.5C 56.9473,37.9953 55.1139,32.3286 56.5,25.5C 68.0562,18.0929 80.7229,14.0929 94.5,13.5 Z"/></g>
<g><path style="opacity:1" fill="#7a75d8" d="M 96.5,19.5 C 97.8333,19.5 99.1667,19.5 100.5,19.5C 100.99,21.9484 100.157,23.615 98,24.5C 95.3894,23.5001 94.8894,21.8334 96.5,19.5 Z"/></g>
<g><path style="opacity:0.989" fill="#918ede" d="M 56.5,25.5 C 55.1139,32.3286 56.9473,37.9953 62,42.5C 62.6877,43.3317 62.521,43.9984 61.5,44.5C 58.2273,41.608 55.894,42.108 54.5,46C 47.4207,46.2027 40.4207,46.7027 33.5,47.5C 28.1563,47.666 22.8229,47.4994 17.5,47C 16.6667,46.1667 15.8333,45.3333 15,44.5C 14.3333,37.8333 14.3333,31.1667 15,24.5C 15.3076,23.6919 15.8076,23.0253 16.5,22.5C 28.7875,21.3536 41.1208,21.1869 53.5,22C 55.4257,22.4224 56.4257,23.5891 56.5,25.5 Z"/></g>
<g><path style="opacity:0.886" fill="#938edd" d="M 145.5,39.5 C 144.735,38.3398 143.735,37.3398 142.5,36.5C 141.391,37.5896 140.391,37.5896 139.5,36.5C 140.712,34.5716 140.379,32.9049 138.5,31.5C 140.64,30.0317 142.806,28.365 145,26.5C 145.969,29.3017 147.802,31.3017 150.5,32.5C 148.71,34.8768 147.043,37.2101 145.5,39.5 Z"/></g>
<g><path style="opacity:1" fill="#f0f0fa" d="M 25.5,32.5 C 29.1612,32.3501 30.1612,33.8501 28.5,37C 27.2068,37.49 25.8734,37.6567 24.5,37.5C 24.366,35.7085 24.6993,34.0418 25.5,32.5 Z"/></g>
<g><path style="opacity:1" fill="#f4f3fb" d="M 34.5,32.5 C 40.0047,35.1712 39.6713,36.8378 33.5,37.5C 33.366,35.7085 33.6993,34.0418 34.5,32.5 Z"/></g>
<g><path style="opacity:1" fill="#f3f2fb" d="M 43.5,32.5 C 46.0838,33.0483 47.0838,34.715 46.5,37.5C 41.5162,37.8558 40.5162,36.1891 43.5,32.5 Z"/></g>
<g><path style="opacity:0.677" fill="#6e67d4" d="M 200.5,37.5 C 201.5,37.5 202.5,37.5 203.5,37.5C 203.5,38.8333 203.5,40.1667 203.5,41.5C 207.5,40.8333 209.167,42.5 208.5,46.5C 212.648,46.4531 214.148,48.4531 213,52.5C 212.333,53.8333 211.667,53.8333 211,52.5C 210.517,51.552 210.351,50.552 210.5,49.5C 206.5,50.1667 204.833,48.5 205.5,44.5C 203.833,44.5 202.167,44.5 200.5,44.5C 200.5,42.1667 200.5,39.8333 200.5,37.5 Z"/></g>
<g><path style="opacity:1" fill="#e88260" d="M 100.5,62.5 C 102.181,64.0075 104.181,65.0075 106.5,65.5C 106.5,66.1667 106.5,66.8333 106.5,67.5C 103.754,70.3054 100.421,71.1387 96.5,70C 91.5911,67.1263 86.4245,64.9596 81,63.5C 77.2277,64.1369 73.7277,65.4702 70.5,67.5C 74.3,59.2348 78.6334,51.2348 83.5,43.5C 86.7383,52.0683 92.405,58.4017 100.5,62.5 Z"/></g>
<g><path style="opacity:0.992" fill="#1d1c59" d="M 151.5,47.5 C 159.853,47.6169 168.187,48.1169 176.5,49C 180.49,50.9904 182.99,54.1571 184,58.5C 184.489,74.1726 184.322,89.8392 183.5,105.5C 183.499,120.862 182.832,136.196 181.5,151.5C 178.884,153.557 179.051,155.557 182,157.5C 182.667,165.5 182.667,173.5 182,181.5C 180.5,187 177,190.5 171.5,192C 150.5,192.667 129.5,192.667 108.5,192C 103.901,190.402 101.068,187.235 100,182.5C 99.5001,165.17 99.3334,147.837 99.5,130.5C 100.167,125.167 100.833,119.833 101.5,114.5C 103.226,116.228 104.559,118.228 105.5,120.5C 105.215,137.84 105.048,155.173 105,172.5C 105.833,174.667 107.333,176.167 109.5,177C 113.152,177.499 116.818,177.665 120.5,177.5C 124.833,177.5 129.167,177.5 133.5,177.5C 141.833,177.5 150.167,177.5 158.5,177.5C 163.179,177.666 167.845,177.499 172.5,177C 174.644,176.208 175.977,174.708 176.5,172.5C 177.498,146.672 177.831,120.672 177.5,94.5C 177.666,90.1539 177.499,85.8206 177,81.5C 176.721,84.4568 175.887,87.1234 174.5,89.5C 173.373,90.1217 172.373,90.955 171.5,92C 166.149,92.2632 160.816,92.2632 155.5,92C 154.913,95.6663 153.746,99.1663 152,102.5C 148.333,105.167 144.667,105.167 141,102.5C 141.536,109.78 138.37,114.446 131.5,116.5C 132.996,114.174 134.663,112.008 136.5,110C 135.917,107.082 135.084,104.249 134,101.5C 129.615,97.244 125.615,97.5773 122,102.5C 121.536,101.906 121.369,101.239 121.5,100.5C 122.117,98.7708 123.117,97.2708 124.5,96C 128.099,94.9861 131.765,94.1527 135.5,93.5C 131.624,88.2017 130.791,82.535 133,76.5C 136.94,74.85 141.107,74.0167 145.5,74C 146.758,69.5349 147.925,65.0349 149,60.5C 151.305,58.0695 154.138,57.0695 157.5,57.5C 160.655,57.9842 162.988,59.6509 164.5,62.5C 167.524,61.7736 170.357,62.4403 173,64.5C 174.227,69.524 175.56,74.524 177,79.5C 177.667,72.1667 177.667,64.8333 177,57.5C 176.097,56.2986 174.931,55.4652 173.5,55C 167.843,54.5006 162.176,54.3339 156.5,54.5C 141.574,53.3509 126.574,53.1842 111.5,54C 106.937,56.4248 105.271,60.2581 106.5,65.5C 104.181,65.0075 102.181,64.0075 100.5,62.5C 100.877,56.2832 103.877,51.7832 109.5,49C 123.673,48.8311 137.673,48.3311 151.5,47.5 Z M 156.5,54.5 C 162.176,54.3339 167.843,54.5006 173.5,55C 174.931,55.4652 176.097,56.2986 177,57.5C 177.667,64.8333 177.667,72.1667 177,79.5C 175.56,74.524 174.227,69.524 173,64.5C 170.357,62.4403 167.524,61.7736 164.5,62.5C 162.988,59.6509 160.655,57.9842 157.5,57.5C 157.443,56.391 157.11,55.391 156.5,54.5 Z M 177.5,94.5 C 176.263,93.0351 175.263,91.3684 174.5,89.5C 175.887,87.1234 176.721,84.4568 177,81.5C 177.499,85.8206 177.666,90.1539 177.5,94.5 Z"/></g>
<g><path style="opacity:1" fill="#2a2862" d="M 72.5,51.5 C 73.552,51.3505 74.552,51.5172 75.5,52C 74.2921,54.2503 72.9587,56.417 71.5,58.5C 70.1544,55.9004 70.4877,53.5671 72.5,51.5 Z"/></g>
<g><path style="opacity:0.999" fill="#f5f4f9" d="M 156.5,54.5 C 157.11,55.391 157.443,56.391 157.5,57.5C 154.138,57.0695 151.305,58.0695 149,60.5C 147.925,65.0349 146.758,69.5349 145.5,74C 141.107,74.0167 136.94,74.85 133,76.5C 130.791,82.535 131.624,88.2017 135.5,93.5C 131.765,94.1527 128.099,94.9861 124.5,96C 123.117,97.2708 122.117,98.7708 121.5,100.5C 120.545,102.283 119.878,104.283 119.5,106.5C 120.617,109.07 121.45,111.737 122,114.5C 122.708,115.381 123.542,116.047 124.5,116.5C 125.134,117.947 126.301,118.613 128,118.5C 129.376,118.316 130.209,117.649 130.5,116.5C 130.833,116.5 131.167,116.5 131.5,116.5C 138.37,114.446 141.536,109.78 141,102.5C 144.667,105.167 148.333,105.167 152,102.5C 153.746,99.1663 154.913,95.6663 155.5,92C 160.816,92.2632 166.149,92.2632 171.5,92C 172.373,90.955 173.373,90.1217 174.5,89.5C 175.263,91.3684 176.263,93.0351 177.5,94.5C 177.831,120.672 177.498,146.672 176.5,172.5C 176.5,166.833 176.5,161.167 176.5,155.5C 176.662,153.473 176.495,151.473 176,149.5C 167.1,144.098 158.933,137.765 151.5,130.5C 147.234,122.21 140.568,118.877 131.5,120.5C 132.663,126.334 130.329,129 124.5,128.5C 124.795,126.265 124.461,124.265 123.5,122.5C 120.408,120.287 117.074,118.621 113.5,117.5C 110.441,113.772 107.774,109.772 105.5,105.5C 106.494,96.0144 106.827,86.3478 106.5,76.5C 107.876,74.9184 108.876,73.0851 109.5,71C 109.252,69.2509 108.252,68.4176 106.5,68.5C 106.5,68.1667 106.5,67.8333 106.5,67.5C 106.5,66.8333 106.5,66.1667 106.5,65.5C 105.271,60.2581 106.937,56.4248 111.5,54C 126.574,53.1842 141.574,53.3509 156.5,54.5 Z"/></g>
<g><path style="opacity:1" fill="#e1613b" d="M 106.5,67.5 C 106.5,67.8333 106.5,68.1667 106.5,68.5C 105.558,72.0902 103.558,74.7569 100.5,76.5C 100.158,75.6618 99.4916,75.3284 98.5,75.5C 97.4863,74.3263 96.153,73.6596 94.5,73.5C 87.9266,68.6341 80.5933,67.3008 72.5,69.5C 71.5,69.1667 70.5,68.8333 69.5,68.5C 69.6236,67.8933 69.9569,67.56 70.5,67.5C 73.7277,65.4702 77.2277,64.1369 81,63.5C 86.4245,64.9596 91.5911,67.1263 96.5,70C 100.421,71.1387 103.754,70.3054 106.5,67.5 Z"/></g>
<g><path style="opacity:1" fill="#211e5a" d="M 106.5,68.5 C 108.252,68.4176 109.252,69.2509 109.5,71C 108.876,73.0851 107.876,74.9184 106.5,76.5C 105.833,85.8333 105.167,95.1667 104.5,104.5C 103.62,101.738 102.454,99.0711 101,96.5C 100.5,89.8417 100.334,83.175 100.5,76.5C 103.558,74.7569 105.558,72.0902 106.5,68.5 Z"/></g>
<g><path style="opacity:1" fill="#e9896a" d="M 43.5,68.5 C 45.5544,69.6086 47.7211,70.6086 50,71.5C 51.3004,70.548 52.467,70.548 53.5,71.5C 52.5,73.1667 51.1667,74.5 49.5,75.5C 47.8333,74.1667 46.1667,72.8333 44.5,71.5C 41.0666,75.4283 37.7333,75.2616 34.5,71C 35,70.5 35.5,70 36,69.5C 39.0277,72.4257 41.5277,72.0923 43.5,68.5 Z"/></g>
<g><path style="opacity:0.847" fill="#908dde" d="M 192.5,76.5 C 195.216,76.6785 197.883,77.1785 200.5,78C 201.847,82.9956 199.847,85.3289 194.5,85C 191.474,82.7024 190.808,79.8691 192.5,76.5 Z"/></g>
<g><path style="opacity:1" fill="#f8ebe8" d="M 98.5,75.5 C 99.4916,75.3284 100.158,75.6618 100.5,76.5C 100.334,83.175 100.5,89.8417 101,96.5C 102.454,99.0711 103.62,101.738 104.5,104.5C 104.5,105.167 104.833,105.5 105.5,105.5C 107.774,109.772 110.441,113.772 113.5,117.5C 111.823,119.54 110.156,121.54 108.5,123.5C 107.833,122.167 106.833,121.167 105.5,120.5C 104.559,118.228 103.226,116.228 101.5,114.5C 101.167,113.5 100.5,112.833 99.5,112.5C 96.1702,103.512 92.8368,94.5118 89.5,85.5C 93.8947,83.4378 96.8947,80.1045 98.5,75.5 Z"/></g>
<g><path style="opacity:1" fill="#7871d4" d="M 94.5,73.5 C 96.153,73.6596 97.4863,74.3263 98.5,75.5C 96.8947,80.1045 93.8947,83.4378 89.5,85.5C 88.0707,84.7658 87.0707,83.5991 86.5,82C 86.8333,81.5 87.1667,81 87.5,80.5C 89.548,81.083 91.3813,81.083 93,80.5C 93.2904,78.0796 93.7904,75.7463 94.5,73.5 Z"/></g>
<g><path style="opacity:1" fill="#a1a1bc" d="M 106.5,76.5 C 106.827,86.3478 106.494,96.0144 105.5,105.5C 104.833,105.5 104.5,105.167 104.5,104.5C 105.167,95.1667 105.833,85.8333 106.5,76.5 Z"/></g>
<g><path style="opacity:0.938" fill="#e88360" d="M 220.5,94.5 C 222.289,96.7916 224.289,98.9582 226.5,101C 225.223,102.888 224.223,104.888 223.5,107C 221.953,107.333 220.62,106.833 219.5,105.5C 218.264,106.246 216.93,106.579 215.5,106.5C 215.421,105.07 215.754,103.736 216.5,102.5C 213.349,98.7335 214.349,96.9002 219.5,97C 220.252,96.3292 220.586,95.4959 220.5,94.5 Z"/></g>
<g><path style="opacity:1" fill="#7973d8" d="M 49.5,99.5 C 51.1992,99.3398 52.8659,99.5065 54.5,100C 53.552,100.483 52.552,100.649 51.5,100.5C 51.5,102.167 51.5,103.833 51.5,105.5C 49.8333,105.5 48.1667,105.5 46.5,105.5C 46.5,107.167 46.5,108.833 46.5,110.5C 45.0695,110.421 43.7362,110.754 42.5,111.5C 42.1667,111.167 41.8333,110.833 41.5,110.5C 42.325,109.614 43.325,109.281 44.5,109.5C 44.5,107.833 44.5,106.167 44.5,104.5C 46.1667,104.5 47.8333,104.5 49.5,104.5C 49.5,102.833 49.5,101.167 49.5,99.5 Z"/></g>
<g><path style="opacity:1" fill="#f2e4e2" d="M 131.5,116.5 C 131.167,116.5 130.833,116.5 130.5,116.5C 128.5,116.5 126.5,116.5 124.5,116.5C 123.542,116.047 122.708,115.381 122,114.5C 121.45,111.737 120.617,109.07 119.5,106.5C 119.878,104.283 120.545,102.283 121.5,100.5C 121.369,101.239 121.536,101.906 122,102.5C 125.615,97.5773 129.615,97.244 134,101.5C 135.084,104.249 135.917,107.082 136.5,110C 134.663,112.008 132.996,114.174 131.5,116.5 Z"/></g>
<g><path style="opacity:1" fill="#bd735c" d="M 124.5,116.5 C 126.5,116.5 128.5,116.5 130.5,116.5C 130.209,117.649 129.376,118.316 128,118.5C 126.301,118.613 125.134,117.947 124.5,116.5 Z"/></g>
<g><path style="opacity:1" fill="#e3623b" d="M 113.5,117.5 C 117.074,118.621 120.408,120.287 123.5,122.5C 121.025,125.785 119.358,129.452 118.5,133.5C 115.714,131.887 113.047,130.054 110.5,128C 108.963,126.89 108.297,125.39 108.5,123.5C 110.156,121.54 111.823,119.54 113.5,117.5 Z"/></g>
<g><path style="opacity:1" fill="#e8815f" d="M 151.5,130.5 C 149.6,132.619 147.934,134.953 146.5,137.5C 144.956,137.297 143.622,136.63 142.5,135.5C 142.167,136 141.833,136.5 141.5,137C 140.408,142.126 140.241,147.293 141,152.5C 143.52,156.224 146.02,159.891 148.5,163.5C 142.281,167.018 135.614,169.351 128.5,170.5C 128.579,167.729 128.079,165.063 127,162.5C 121.83,153.493 118.997,143.826 118.5,133.5C 119.358,129.452 121.025,125.785 123.5,122.5C 124.461,124.265 124.795,126.265 124.5,128.5C 130.329,129 132.663,126.334 131.5,120.5C 140.568,118.877 147.234,122.21 151.5,130.5 Z"/></g>
<g><path style="opacity:1" fill="#f5f3f9" d="M 105.5,120.5 C 106.833,121.167 107.833,122.167 108.5,123.5C 108.297,125.39 108.963,126.89 110.5,128C 113.047,130.054 115.714,131.887 118.5,133.5C 118.997,143.826 121.83,153.493 127,162.5C 128.079,165.063 128.579,167.729 128.5,170.5C 127.833,170.5 127.5,170.833 127.5,171.5C 125.142,173.529 122.808,175.529 120.5,177.5C 116.818,177.665 113.152,177.499 109.5,177C 107.333,176.167 105.833,174.667 105,172.5C 105.048,155.173 105.215,137.84 105.5,120.5 Z"/></g>
<g><path style="opacity:1" fill="#e88363" d="M 76.5,123.5 C 77.7697,126.155 79.7697,128.322 82.5,130C 79.6643,131.66 78.1643,134.16 78,137.5C 76.0223,135.261 73.5223,133.928 70.5,133.5C 71.8333,131.5 71.8333,129.5 70.5,127.5C 72.0777,126.702 73.7444,126.202 75.5,126C 76.2524,125.329 76.5858,124.496 76.5,123.5 Z"/></g>
<g><path style="opacity:1" fill="#9190af" d="M 99.5,112.5 C 100.5,112.833 101.167,113.5 101.5,114.5C 100.833,119.833 100.167,125.167 99.5,130.5C 99.5,124.5 99.5,118.5 99.5,112.5 Z"/></g>
<g><path style="opacity:1" fill="#faece8" d="M 151.5,130.5 C 158.933,137.765 167.1,144.098 176,149.5C 176.495,151.473 176.662,153.473 176.5,155.5C 164.914,152.044 154.914,146.044 146.5,137.5C 147.934,134.953 149.6,132.619 151.5,130.5 Z"/></g>
<g><path style="opacity:0.953" fill="#1e1c5a" d="M 232.5,140.5 C 230.807,143.19 228.473,145.19 225.5,146.5C 225.383,144.516 226.05,142.85 227.5,141.5C 227.185,138.477 225.852,136.144 223.5,134.5C 222.833,134.5 222.5,134.167 222.5,133.5C 223.072,130.756 224.738,129.923 227.5,131C 230.33,133.635 231.996,136.801 232.5,140.5 Z"/></g>
<g><path style="opacity:1" fill="#1d1c59" d="M 51.5,136.5 C 50.2315,140.054 49.2315,143.72 48.5,147.5C 48.4365,149.514 49.1032,151.181 50.5,152.5C 50.4921,155.545 50.1587,158.545 49.5,161.5C 48.6738,164.807 46.6738,167.141 43.5,168.5C 42.5084,168.328 41.8417,168.662 41.5,169.5C 40.1667,169.5 38.8333,169.5 37.5,169.5C 29.8593,167.901 27.026,163.234 29,155.5C 31,152.167 33.6667,149.5 37,147.5C 37.7464,142.838 39.9131,139.005 43.5,136C 46.4918,133.866 49.1585,134.032 51.5,136.5 Z"/></g>
<g><path style="opacity:1" fill="#f7f6fb" d="M 146.5,137.5 C 154.914,146.044 164.914,152.044 176.5,155.5C 176.5,161.167 176.5,166.833 176.5,172.5C 175.977,174.708 174.644,176.208 172.5,177C 167.845,177.499 163.179,177.666 158.5,177.5C 157.14,171.466 153.807,166.799 148.5,163.5C 146.02,159.891 143.52,156.224 141,152.5C 140.241,147.293 140.408,142.126 141.5,137C 141.833,136.5 142.167,136 142.5,135.5C 143.622,136.63 144.956,137.297 146.5,137.5 Z"/></g>
<g><path style="opacity:1" fill="#e7a08a" d="M 223.5,134.5 C 225.852,136.144 227.185,138.477 227.5,141.5C 226.05,142.85 225.383,144.516 225.5,146.5C 225.5,147.5 225.5,148.5 225.5,149.5C 223.833,149.5 222.167,149.5 220.5,149.5C 218.503,143.833 219.503,138.833 223.5,134.5 Z"/></g>
<g><path style="opacity:1" fill="#df9a88" d="M 51.5,136.5 C 52.1174,136.611 52.6174,136.944 53,137.5C 53.1667,138.833 53.3333,140.167 53.5,141.5C 52.39,145.194 51.39,148.861 50.5,152.5C 49.1032,151.181 48.4365,149.514 48.5,147.5C 49.2315,143.72 50.2315,140.054 51.5,136.5 Z"/></g>
<g><path style="opacity:0.989" fill="#f7f7fc" d="M 232.5,140.5 C 242.558,147.917 249.724,157.584 254,169.5C 256.174,176.208 258.007,182.875 259.5,189.5C 259.5,198.833 259.5,208.167 259.5,217.5C 257.785,229.972 252.785,240.972 244.5,250.5C 238.5,250.5 232.5,250.5 226.5,250.5C 226.5,248.5 226.5,246.5 226.5,244.5C 224.874,226.88 224.207,209.213 224.5,191.5C 225.328,185.013 225.828,178.346 226,171.5C 231.105,166.018 232.605,159.685 230.5,152.5C 228.855,151.304 227.189,150.304 225.5,149.5C 225.5,148.5 225.5,147.5 225.5,146.5C 228.473,145.19 230.807,143.19 232.5,140.5 Z"/></g>
<g><path style="opacity:1" fill="#edaa96" d="M 213.5,150.5 C 212.71,151.401 211.71,152.068 210.5,152.5C 209.417,149.806 208.417,146.972 207.5,144C 207.495,141.837 208.495,140.337 210.5,139.5C 212.652,142.865 213.652,146.532 213.5,150.5 Z"/></g>
<g><path style="opacity:1" fill="#908ddd" d="M 217.5,149.5 C 218.5,149.5 219.5,149.5 220.5,149.5C 222.167,149.5 223.833,149.5 225.5,149.5C 227.189,150.304 228.855,151.304 230.5,152.5C 232.605,159.685 231.105,166.018 226,171.5C 225.828,178.346 225.328,185.013 224.5,191.5C 224.5,190.5 224.5,189.5 224.5,188.5C 219.156,188.666 213.823,188.499 208.5,188C 207.956,187.283 207.289,186.783 206.5,186.5C 206.635,180.819 206.968,175.152 207.5,169.5C 208.345,168.329 209.011,166.995 209.5,165.5C 213.067,163.443 216.234,160.777 219,157.5C 219.891,154.502 219.391,151.836 217.5,149.5 Z"/></g>
<g><path style="opacity:1" fill="#6d68d4" d="M 217.5,149.5 C 219.391,151.836 219.891,154.502 219,157.5C 216.234,160.777 213.067,163.443 209.5,165.5C 208.167,164.5 206.833,163.5 205.5,162.5C 205.389,161.883 205.056,161.383 204.5,161C 206.72,158.287 208.72,155.454 210.5,152.5C 211.71,152.068 212.71,151.401 213.5,150.5C 214.708,149.766 216.041,149.433 217.5,149.5 Z"/></g>
<g><path style="opacity:1" fill="#eec6bb" d="M 205.5,162.5 C 206.833,163.5 208.167,164.5 209.5,165.5C 209.011,166.995 208.345,168.329 207.5,169.5C 206.391,168.71 205.058,168.21 203.5,168C 202.091,165.391 202.758,163.558 205.5,162.5 Z"/></g>
<g><path style="opacity:1" fill="#e17e60" d="M 49.5,161.5 C 49.2291,163.38 49.8958,164.713 51.5,165.5C 54.6951,168.404 56.0285,172.071 55.5,176.5C 52.272,177.414 48.9387,177.747 45.5,177.5C 45.3003,174.37 44.6336,171.37 43.5,168.5C 46.6738,167.141 48.6738,164.807 49.5,161.5 Z"/></g>
<g><path style="opacity:1" fill="#f3c7b8" d="M 56.5,176.5 C 56.1667,176.5 55.8333,176.5 55.5,176.5C 56.0285,172.071 54.6951,168.404 51.5,165.5C 53.9034,164.935 55.5701,163.435 56.5,161C 55.4403,158.749 54.6069,156.582 54,154.5C 57.7781,157.23 58.9448,160.73 57.5,165C 57.9031,166.473 58.5697,167.806 59.5,169C 66.0378,168.815 71.5378,166.315 76,161.5C 76.9201,164.308 76.0867,166.475 73.5,168C 67.6026,171.617 61.9359,174.45 56.5,176.5 Z"/></g>
<g><path style="opacity:1" fill="#938edc" d="M 148.5,163.5 C 153.807,166.799 157.14,171.466 158.5,177.5C 150.167,177.5 141.833,177.5 133.5,177.5C 132.378,174.562 130.378,172.562 127.5,171.5C 127.5,170.833 127.833,170.5 128.5,170.5C 135.614,169.351 142.281,167.018 148.5,163.5 Z"/></g>
<g><path style="opacity:1" fill="#eeaa93" d="M 37.5,169.5 C 38.8333,169.5 40.1667,169.5 41.5,169.5C 39.9474,174.69 38.9474,180.023 38.5,185.5C 39.8017,189.266 39.4683,192.933 37.5,196.5C 35.5446,195.72 34.5446,194.22 34.5,192C 35.1865,185.517 35.6865,179.017 36,172.5C 36.5133,171.473 37.0133,170.473 37.5,169.5 Z"/></g>
<g><path style="opacity:1" fill="#6f6ad5" d="M 127.5,171.5 C 130.378,172.562 132.378,174.562 133.5,177.5C 129.167,177.5 124.833,177.5 120.5,177.5C 122.808,175.529 125.142,173.529 127.5,171.5 Z"/></g>
<g><path style="opacity:1" fill="#1f1d5a" d="M 55.5,176.5 C 55.8333,176.5 56.1667,176.5 56.5,176.5C 61.1021,186.971 62.7688,197.971 61.5,209.5C 59.901,209.232 58.5676,209.566 57.5,210.5C 55.5,210.5 53.5,210.5 51.5,210.5C 50.1667,210.5 48.8333,210.5 47.5,210.5C 44.8333,210.5 42.1667,210.5 39.5,210.5C 38.8927,198.873 40.8927,187.873 45.5,177.5C 48.9387,177.747 52.272,177.414 55.5,176.5 Z"/></g>
<g><path style="opacity:1" fill="#201f5b" d="M 206.5,186.5 C 207.289,186.783 207.956,187.283 208.5,188C 213.823,188.499 219.156,188.666 224.5,188.5C 224.5,189.5 224.5,190.5 224.5,191.5C 224.207,209.213 224.874,226.88 226.5,244.5C 224.833,244.5 223.167,244.5 221.5,244.5C 220.037,234.351 217.87,224.351 215,214.5C 212.933,224.721 211.433,235.054 210.5,245.5C 208.833,245.5 207.167,245.5 205.5,245.5C 202.986,225.805 203.319,206.138 206.5,186.5 Z"/></g>
<g><path style="opacity:1" fill="#eda78f" d="M 39.5,210.5 C 42.1667,210.5 44.8333,210.5 47.5,210.5C 44.698,222.901 41.698,235.234 38.5,247.5C 37.1667,247.5 35.8333,247.5 34.5,247.5C 36.2933,235.196 37.96,222.863 39.5,210.5 Z"/></g>
<g><path style="opacity:1" fill="#eca48c" d="M 51.5,210.5 C 53.5,210.5 55.5,210.5 57.5,210.5C 57.8283,222.327 57.9949,234.327 58,246.5C 58.9947,247.066 59.828,247.733 60.5,248.5C 58.139,248.326 55.8056,247.993 53.5,247.5C 52.0104,235.22 51.3437,222.886 51.5,210.5 Z"/></g>
<g><path style="opacity:1" fill="#f7f5f9" d="M 47.5,210.5 C 48.8333,210.5 50.1667,210.5 51.5,210.5C 51.3437,222.886 52.0104,235.22 53.5,247.5C 53.5,248.5 53.5,249.5 53.5,250.5C 48.5,250.5 43.5,250.5 38.5,250.5C 38.5,249.5 38.5,248.5 38.5,247.5C 41.698,235.234 44.698,222.901 47.5,210.5 Z"/></g>
<g><path style="opacity:1" fill="#edecf4" d="M 221.5,244.5 C 221.586,245.496 221.252,246.329 220.5,247C 218.273,247.941 216.273,249.108 214.5,250.5C 213.167,250.5 211.833,250.5 210.5,250.5C 210.5,248.833 210.5,247.167 210.5,245.5C 211.433,235.054 212.933,224.721 215,214.5C 217.87,224.351 220.037,234.351 221.5,244.5 Z"/></g>
<g><path style="opacity:1" fill="#ea8c6d" d="M 205.5,245.5 C 207.167,245.5 208.833,245.5 210.5,245.5C 210.5,247.167 210.5,248.833 210.5,250.5C 206.5,250.5 202.5,250.5 198.5,250.5C 201.086,249.054 203.42,247.387 205.5,245.5 Z"/></g>
<g><path style="opacity:1" fill="#e98e71" d="M 221.5,244.5 C 223.167,244.5 224.833,244.5 226.5,244.5C 226.5,246.5 226.5,248.5 226.5,250.5C 222.5,250.5 218.5,250.5 214.5,250.5C 216.273,249.108 218.273,247.941 220.5,247C 221.252,246.329 221.586,245.496 221.5,244.5 Z"/></g>
<g><path style="opacity:0.997" fill="#211e5b" d="M 34.5,247.5 C 35.8333,247.5 37.1667,247.5 38.5,247.5C 38.5,248.5 38.5,249.5 38.5,250.5C 43.5,250.5 48.5,250.5 53.5,250.5C 53.5,249.5 53.5,248.5 53.5,247.5C 55.8056,247.993 58.139,248.326 60.5,248.5C 61.9217,248.709 63.255,249.209 64.5,250C 109.165,250.5 153.832,250.667 198.5,250.5C 202.5,250.5 206.5,250.5 210.5,250.5C 211.833,250.5 213.167,250.5 214.5,250.5C 218.5,250.5 222.5,250.5 226.5,250.5C 232.5,250.5 238.5,250.5 244.5,250.5C 248.833,250.5 253.167,250.5 257.5,250.5C 257.67,251.822 257.337,252.989 256.5,254C 172.5,254.667 88.5,254.667 4.5,254C 3.66337,252.989 3.33003,251.822 3.5,250.5C 7.83333,250.5 12.1667,250.5 16.5,250.5C 22.1764,250.666 27.8431,250.499 33.5,250C 34.2524,249.329 34.5858,248.496 34.5,247.5 Z"/></g>
</svg>
