<?xml version="1.0" encoding="UTF-8"?>
<!DOCTYPE svg PUBLIC "-//W3C//DTD SVG 1.1//EN" "http://www.w3.org/Graphics/SVG/1.1/DTD/svg11.dtd">
<svg xmlns="http://www.w3.org/2000/svg" version="1.1" width="260px" height="260px" style="shape-rendering:geometricPrecision; text-rendering:geometricPrecision; image-rendering:optimizeQuality; fill-rule:evenodd; clip-rule:evenodd" xmlns:xlink="http://www.w3.org/1999/xlink">
<g><path style="opacity:0.992" fill="#f7f7fc" d="M 151.5,37.5 C 150.756,40.9496 152.09,42.6162 155.5,42.5C 161.345,52.8567 166.678,63.5234 171.5,74.5C 160.631,73.064 150.964,68.8973 142.5,62C 137.028,59.7146 131.362,59.0479 125.5,60C 120.6,61.9018 117.433,65.4018 116,70.5C 113.64,81.1007 115.807,90.434 122.5,98.5C 116.618,98.4146 111.451,100.415 107,104.5C 103.3,113.271 99.7995,122.104 96.5,131C 97.0442,131.717 97.7109,132.217 98.5,132.5C 97.4884,136.704 95.9884,140.704 94,144.5C 90,138.5 86,132.5 82,126.5C 77.9405,120.921 72.4405,118.421 65.5,119C 63.3862,120.498 62.8862,122.331 64,124.5C 62.2602,123.284 61.2602,121.618 61,119.5C 60.5604,121.076 59.727,122.41 58.5,123.5C 58.9767,124.478 59.6433,125.311 60.5,126C 58.6992,126.317 58.3659,126.984 59.5,128C 65.4067,129.361 71.4067,129.861 77.5,129.5C 79.5736,138.553 82.7402,147.22 87,155.5C 92,164.833 97,164.833 102,155.5C 104.708,148.506 107.874,141.839 111.5,135.5C 112.222,135.082 112.722,134.416 113,133.5C 117.166,140.294 118.499,147.627 117,155.5C 115.844,159.44 115.01,163.44 114.5,167.5C 103.611,164.49 92.6111,163.823 81.5,165.5C 71.2079,169.043 68.7079,175.71 74,185.5C 75.7742,186.965 77.6075,188.298 79.5,189.5C 79.5,190.167 79.5,190.833 79.5,191.5C 73.5,191.5 67.5,191.5 61.5,191.5C 60.2497,184.022 56.7497,182.689 51,187.5C 50.9266,181.357 49.0933,175.857 45.5,171C 39.8766,168.272 37.0433,170.105 37,176.5C 33.6731,170.693 29.5064,165.526 24.5,161C 22.1055,159.402 19.7721,159.236 17.5,160.5C 17.0011,168.077 18.6678,175.411 22.5,182.5C 22.1667,182.833 21.8333,183.167 21.5,183.5C 17.4113,180.274 14.4113,180.941 12.5,185.5C 14.6612,192.834 18.6612,199.001 24.5,204C 24.2716,204.399 23.9382,204.565 23.5,204.5C 22.1779,204.33 21.0113,204.663 20,205.5C 19.7605,207.761 19.5938,209.761 19.5,211.5C 14.9147,209.523 10.248,207.856 5.5,206.5C -1.86893,168.967 -1.03559,131.634 8,94.5C 15.149,66.349 29.3157,42.5157 50.5,23C 66.9109,8.86488 85.9109,3.19821 107.5,6C 117.197,7.84961 125.864,11.8496 133.5,18C 140.074,24.0697 146.074,30.5697 151.5,37.5 Z"/></g>
<g><path style="opacity:1" fill="#bcb9eb" d="M 113.5,23.5 C 122.306,23.464 124.639,27.2974 120.5,35C 113.388,37.5545 109.888,35.0545 110,27.5C 110.69,25.6498 111.856,24.3164 113.5,23.5 Z"/></g>
<g><path style="opacity:0.828" fill="#928edc" d="M 155.5,42.5 C 152.09,42.6162 150.756,40.9496 151.5,37.5C 153.648,37.6106 153.981,36.944 152.5,35.5C 153.473,32.865 155.14,30.865 157.5,29.5C 156.68,27.8888 155.346,27.2222 153.5,27.5C 153.085,25.0523 154.085,23.7189 156.5,23.5C 165.157,26.3325 165.657,30.3325 158,35.5C 157.098,37.9269 156.264,40.2603 155.5,42.5 Z"/></g>
<g><path style="opacity:1" fill="#f9f8fd" d="M 112.5,30.5 C 114.927,30.523 117.26,31.023 119.5,32C 116.282,35.5375 113.948,35.0375 112.5,30.5 Z"/></g>
<g><path style="opacity:0.825" fill="#e6815e" d="M 179.5,33.5 C 181.652,34.0768 181.985,35.2435 180.5,37C 183.416,37.827 184.083,39.4937 182.5,42C 186.296,44.0741 186.296,46.2408 182.5,48.5C 182.846,46.3662 181.846,44.5329 179.5,43C 180.167,42 180.833,41 181.5,40C 178.331,38.6584 177.665,36.4918 179.5,33.5 Z"/></g>
<g><path style="opacity:0.952" fill="#b6b2e7" d="M 210.5,49.5 C 208.469,48.4613 207.136,46.7946 206.5,44.5C 208.107,42.2823 209.94,40.2823 212,38.5C 215.146,38.9769 216.813,40.6436 217,43.5C 214.963,45.7059 212.797,47.7059 210.5,49.5 Z"/></g>
<g><path style="opacity:1" fill="#b8b5e9" d="M 71.5,35.5 C 73.604,35.2011 75.604,35.5344 77.5,36.5C 78.2193,39.3125 78.886,42.1459 79.5,45C 79.2373,46.9457 78.2373,47.6123 76.5,47C 74.9571,45.1217 73.1238,43.6217 71,42.5C 70.2967,40.0709 70.4634,37.7375 71.5,35.5 Z"/></g>
<g><path style="opacity:0.864" fill="#e38265" d="M 206.5,44.5 C 207.136,46.7946 208.469,48.4613 210.5,49.5C 210.5,50.1667 210.167,50.5 209.5,50.5C 207.236,49.7814 204.903,49.448 202.5,49.5C 202.262,47.6788 202.262,45.8455 202.5,44C 203.5,43.5 204.5,43 205.5,42.5C 206.298,42.9569 206.631,43.6236 206.5,44.5 Z"/></g>
<g><path style="opacity:0.878" fill="#b8b3e8" d="M 202.5,49.5 C 204.903,49.448 207.236,49.7814 209.5,50.5C 208.198,53.4414 206.198,55.7748 203.5,57.5C 201.391,57.2247 200.058,56.058 199.5,54C 200.315,52.3566 201.315,50.8566 202.5,49.5 Z"/></g>
<g><path style="opacity:1" fill="#aeabe6" d="M 51.5,54.5 C 54.6467,54.6866 57.8134,54.6866 61,54.5C 62.0178,56.5644 63.3511,56.8977 65,55.5C 66.0588,55.6301 66.8921,56.1301 67.5,57C 64.6016,57.4424 61.6016,57.609 58.5,57.5C 56.6183,56.9067 54.7849,56.2401 53,55.5C 51.8932,56.7119 51.3932,56.3786 51.5,54.5 Z"/></g>
<g><path style="opacity:0.996" fill="#1c1a58" d="M 171.5,74.5 C 181.191,75.4288 189.357,79.4288 196,86.5C 199.331,94.2146 199.164,101.881 195.5,109.5C 188.235,118.136 178.901,123.136 167.5,124.5C 164.964,118.071 162.131,111.737 159,105.5C 157.5,104 156,102.5 154.5,101C 149.292,99.6033 143.959,99.1033 138.5,99.5C 134.338,91.0595 136.171,84.3928 144,79.5C 144.49,78.2068 144.657,76.8734 144.5,75.5C 143.127,75.6567 141.793,75.49 140.5,75C 137.217,71.603 134.551,67.7697 132.5,63.5C 129.213,62.0584 126.38,62.7251 124,65.5C 122.528,68.6173 120.694,71.4506 118.5,74C 119.554,79.6082 122.054,84.4416 126,88.5C 126.339,91.8796 126.839,95.2129 127.5,98.5C 125.833,98.5 124.167,98.5 122.5,98.5C 115.807,90.434 113.64,81.1007 116,70.5C 117.433,65.4018 120.6,61.9018 125.5,60C 131.362,59.0479 137.028,59.7146 142.5,62C 150.964,68.8973 160.631,73.064 171.5,74.5 Z"/></g>
<g><path style="opacity:1" fill="#e98666" d="M 35.5,64.5 C 37.1347,65.8146 38.8014,65.8146 40.5,64.5C 41.1321,66.7368 42.4654,68.4035 44.5,69.5C 42.2908,70.063 40.7908,71.3964 40,73.5C 38.4002,72.1341 36.5668,71.1341 34.5,70.5C 35.1667,69.5 35.8333,68.5 36.5,67.5C 35.8728,66.5832 35.5394,65.5832 35.5,64.5 Z"/></g>
<g><path style="opacity:0.684" fill="#b9b6e6" d="M 220.5,63.5 C 222.411,63.5743 223.578,64.5743 224,66.5C 226.292,65.3991 227.792,66.2324 228.5,69C 228,69.5 227.5,70 227,70.5C 223.95,69.0548 221.117,67.2215 218.5,65C 219.416,64.7216 220.082,64.2216 220.5,63.5 Z"/></g>
<g><path style="opacity:0.898" fill="#e47f5e" d="M 237.5,65.5 C 239.871,66.3425 242.204,66.6758 244.5,66.5C 243.522,67.8013 243.855,68.968 245.5,70C 243.976,71.1942 242.81,72.6942 242,74.5C 240.681,72.5125 238.848,71.3459 236.5,71C 238.428,69.3195 238.761,67.4862 237.5,65.5 Z"/></g>
<g><path style="opacity:0.858" fill="#deddf5" d="M 240.5,84.5 C 250.024,83.7317 252.691,87.565 248.5,96C 242.761,98.464 239.094,96.6307 237.5,90.5C 237.984,88.1992 238.984,86.1992 240.5,84.5 Z"/></g>
<g><path style="opacity:1" fill="#9996e0" d="M 244.5,86.5 C 246.088,87.6413 247.421,89.1413 248.5,91C 246.697,91.6368 245.364,92.8035 244.5,94.5C 243.281,93.3539 241.948,92.3539 240.5,91.5C 241.246,90.2638 241.579,88.9305 241.5,87.5C 242.791,87.7373 243.791,87.404 244.5,86.5 Z"/></g>
<g><path style="opacity:1" fill="#a8a5e4" d="M 26.5,85.5 C 27.209,84.596 28.209,84.2627 29.5,84.5C 29.5,85.8333 29.5,87.1667 29.5,88.5C 30.5,88.5 31.5,88.5 32.5,88.5C 32.6495,89.552 32.4828,90.552 32,91.5C 31.2904,90.0267 30.1238,89.3601 28.5,89.5C 28.8432,87.5168 28.1765,86.1834 26.5,85.5 Z"/></g>
<g><path style="opacity:1" fill="#efc2b3" d="M 138.5,99.5 C 138.849,105.345 138.016,111.012 136,116.5C 132.461,119.488 129.795,118.821 128,114.5C 127.501,109.177 127.334,103.844 127.5,98.5C 126.839,95.2129 126.339,91.8796 126,88.5C 122.054,84.4416 119.554,79.6082 118.5,74C 120.694,71.4506 122.528,68.6173 124,65.5C 126.38,62.7251 129.213,62.0584 132.5,63.5C 134.551,67.7697 137.217,71.603 140.5,75C 141.793,75.49 143.127,75.6567 144.5,75.5C 144.657,76.8734 144.49,78.2068 144,79.5C 136.171,84.3928 134.338,91.0595 138.5,99.5 Z"/></g>
<g><path style="opacity:1" fill="#e7805f" d="M 122.5,98.5 C 124.167,98.5 125.833,98.5 127.5,98.5C 127.334,103.844 127.501,109.177 128,114.5C 129.795,118.821 132.461,119.488 136,116.5C 138.016,111.012 138.849,105.345 138.5,99.5C 143.959,99.1033 149.292,99.6033 154.5,101C 156,102.5 157.5,104 159,105.5C 162.131,111.737 164.964,118.071 167.5,124.5C 167.877,126.258 168.544,127.925 169.5,129.5C 169.137,130.183 168.804,130.85 168.5,131.5C 163.676,132.668 159.009,134.002 154.5,135.5C 150.886,145.684 150.552,156.017 153.5,166.5C 152.025,168.41 150.025,169.576 147.5,170C 136.034,173.823 125.034,172.99 114.5,167.5C 115.01,163.44 115.844,159.44 117,155.5C 118.499,147.627 117.166,140.294 113,133.5C 112.722,134.416 112.222,135.082 111.5,135.5C 106.91,135.524 102.577,134.524 98.5,132.5C 97.7109,132.217 97.0442,131.717 96.5,131C 99.7995,122.104 103.3,113.271 107,104.5C 111.451,100.415 116.618,98.4146 122.5,98.5 Z"/></g>
<g><path style="opacity:0.992" fill="#f4f3f8" d="M 195.5,109.5 C 198.484,112.326 201.817,114.659 205.5,116.5C 204.365,122.698 203.032,122.864 201.5,117C 196.72,115.97 192.387,116.97 188.5,120C 183.333,127.833 178.167,135.667 173,143.5C 171.209,139.589 169.709,135.589 168.5,131.5C 168.804,130.85 169.137,130.183 169.5,129.5C 168.544,127.925 167.877,126.258 167.5,124.5C 178.901,123.136 188.235,118.136 195.5,109.5 Z"/></g>
<g><path style="opacity:0.852" fill="#ea8957" d="M 253.5,109.5 C 254.718,110.731 256.051,111.898 257.5,113C 255.76,114.827 254.093,114.66 252.5,112.5C 253.127,111.583 253.461,110.583 253.5,109.5 Z"/></g>
<g><path style="opacity:1" fill="#f3cabc" d="M 205.5,116.5 C 206.167,116.5 206.5,116.833 206.5,117.5C 208.168,119.991 207.834,122.158 205.5,124C 206.167,124.333 206.833,124.667 207.5,125C 201.732,127.228 195.732,128.061 189.5,127.5C 187.491,137.693 183.991,147.36 179,156.5C 177.281,158.557 175.281,160.224 173,161.5C 170.719,160.224 168.719,158.557 167,156.5C 163.56,149.955 160.394,143.288 157.5,136.5C 156.675,135.614 155.675,135.281 154.5,135.5C 159.009,134.002 163.676,132.668 168.5,131.5C 169.709,135.589 171.209,139.589 173,143.5C 178.167,135.667 183.333,127.833 188.5,120C 192.387,116.97 196.72,115.97 201.5,117C 203.032,122.864 204.365,122.698 205.5,116.5 Z"/></g>
<g><path style="opacity:1" fill="#f3cabc" d="M 98.5,132.5 C 102.577,134.524 106.91,135.524 111.5,135.5C 107.874,141.839 104.708,148.506 102,155.5C 97,164.833 92,164.833 87,155.5C 82.7402,147.22 79.5736,138.553 77.5,129.5C 71.4067,129.861 65.4067,129.361 59.5,128C 58.3659,126.984 58.6992,126.317 60.5,126C 59.6433,125.311 58.9767,124.478 58.5,123.5C 59.727,122.41 60.5604,121.076 61,119.5C 61.2602,121.618 62.2602,123.284 64,124.5C 62.8862,122.331 63.3862,120.498 65.5,119C 72.4405,118.421 77.9405,120.921 82,126.5C 86,132.5 90,138.5 94,144.5C 95.9884,140.704 97.4884,136.704 98.5,132.5 Z"/></g>
<g><path style="opacity:0.993" fill="#f7f7fc" d="M 206.5,117.5 C 222.606,122.541 235.939,131.541 246.5,144.5C 245.612,148.565 243.112,151.231 239,152.5C 236.323,151.778 233.823,150.778 231.5,149.5C 233.85,151.213 234.85,153.547 234.5,156.5C 237.151,155.089 239.985,153.756 243,152.5C 247.474,152.804 249.64,155.137 249.5,159.5C 250.833,159.5 252.167,159.5 253.5,159.5C 256.138,166.068 258.138,172.734 259.5,179.5C 259.5,189.5 259.5,199.5 259.5,209.5C 257.542,221.034 252.875,231.367 245.5,240.5C 240.93,241.441 236.263,241.774 231.5,241.5C 233.423,239.712 234.089,237.712 233.5,235.5C 237.095,234.748 240.428,233.414 243.5,231.5C 245.222,228.251 244.222,226.418 240.5,226C 243.939,223.861 247.106,221.361 250,218.5C 250.692,217.563 250.525,216.897 249.5,216.5C 244.99,214.942 240.656,215.609 236.5,218.5C 235.904,217.284 235.737,215.951 236,214.5C 234.989,213.663 233.822,213.33 232.5,213.5C 232.062,213.565 231.728,213.399 231.5,213C 236.205,209.084 239.538,204.251 241.5,198.5C 239.737,194.838 237.237,194.505 234,197.5C 235.559,192.305 237.059,186.971 238.5,181.5C 238.457,180.584 238.124,179.917 237.5,179.5C 235.565,178.291 233.565,178.458 231.5,180C 227.727,183.718 224.56,187.884 222,192.5C 221.505,190.527 221.338,188.527 221.5,186.5C 218.956,186.104 216.789,186.771 215,188.5C 213.084,191.898 212.084,195.565 212,199.5C 209.966,196.141 207.632,195.808 205,198.5C 202.157,202.652 201.99,206.819 204.5,211C 196.841,211.5 189.174,211.666 181.5,211.5C 181.292,205.414 179.626,199.748 176.5,194.5C 185.839,194.666 195.173,194.5 204.5,194C 205.167,193.333 205.833,192.667 206.5,192C 196.506,191.5 186.506,191.334 176.5,191.5C 182.988,189.78 189.321,187.446 195.5,184.5C 198.274,177.191 196.274,171.858 189.5,168.5C 184.596,165.233 179.096,163.9 173,164.5C 166.448,164.746 159.948,165.413 153.5,166.5C 150.552,156.017 150.886,145.684 154.5,135.5C 155.675,135.281 156.675,135.614 157.5,136.5C 160.394,143.288 163.56,149.955 167,156.5C 168.719,158.557 170.719,160.224 173,161.5C 175.281,160.224 177.281,158.557 179,156.5C 183.991,147.36 187.491,137.693 189.5,127.5C 195.732,128.061 201.732,127.228 207.5,125C 206.833,124.667 206.167,124.333 205.5,124C 207.834,122.158 208.168,119.991 206.5,117.5 Z"/></g>
<g><path style="opacity:1" fill="#efaf9c" d="M 14.5,119.5 C 7.28121,112.709 8.61455,110.042 18.5,111.5C 19.2978,109.922 19.7978,108.256 20,106.5C 21.3957,104.473 23.0624,104.14 25,105.5C 26.128,107.345 26.628,109.345 26.5,111.5C 27.552,111.351 28.552,111.517 29.5,112C 28.4844,112.519 27.8178,113.353 27.5,114.5C 28.3599,116.272 29.6932,117.605 31.5,118.5C 25.9558,123.099 26.9558,125.432 34.5,125.5C 35.0447,121.828 35.3781,122.162 35.5,126.5C 32.8806,126.768 30.3806,126.435 28,125.5C 27.8871,127.974 26.8871,129.974 25,131.5C 24.4242,129.623 24.5909,127.789 25.5,126C 24.9915,124.831 24.1581,123.998 23,123.5C 21.1294,124.997 20.1294,126.997 20,129.5C 19.7104,127.956 19.0437,126.623 18,125.5C 15.3333,126.833 12.6667,126.833 10,125.5C 9.46654,121.888 10.9665,119.888 14.5,119.5 Z"/></g>
<g><path style="opacity:1" fill="#f7eff2" d="M 14.5,119.5 C 16.0174,119.489 17.1841,118.823 18,117.5C 19.7203,123.477 17.5536,126.144 11.5,125.5C 12.044,123.284 13.044,121.284 14.5,119.5 Z"/></g>
<g><path style="opacity:1" fill="#f7eef0" d="M 22.5,114.5 C 27.594,116.872 27.7606,119.539 23,122.5C 18.5784,120.105 18.4118,117.438 22.5,114.5 Z"/></g>
<g><path style="opacity:1" fill="#e98a6b" d="M 21.5,116.5 C 24.1662,116.066 25.3329,117.066 25,119.5C 21.4034,121.066 20.2368,120.066 21.5,116.5 Z"/></g>
<g><path style="opacity:1" fill="#f7f7fb" d="M 11.5,112.5 C 13.8067,112.986 15.9734,112.986 18,112.5C 18.7754,114.949 17.942,116.616 15.5,117.5C 13.3886,116.395 12.0553,114.729 11.5,112.5 Z"/></g>
<g><path style="opacity:1" fill="#f7f4f8" d="M 22.5,105.5 C 24.2427,106.641 25.2427,108.308 25.5,110.5C 25.5658,112.266 24.7324,113.266 23,113.5C 21.5,113.333 20.6667,112.5 20.5,111C 21.8561,109.433 22.5228,107.6 22.5,105.5 Z"/></g>
<g><path style="opacity:0.886" fill="#b2aee6" d="M 259.5,136.5 C 259.5,137.833 259.5,139.167 259.5,140.5C 257.532,141.819 255.532,141.819 253.5,140.5C 252.099,142.277 250.599,143.944 249,145.5C 248.333,146.833 248.333,148.167 249,149.5C 250.501,152.308 252.334,154.808 254.5,157C 254.257,157.902 253.923,158.735 253.5,159.5C 252.167,159.5 250.833,159.5 249.5,159.5C 249.64,155.137 247.474,152.804 243,152.5C 239.985,153.756 237.151,155.089 234.5,156.5C 234.85,153.547 233.85,151.213 231.5,149.5C 233.823,150.778 236.323,151.778 239,152.5C 243.112,151.231 245.612,148.565 246.5,144.5C 247.17,140.101 245.17,137.101 240.5,135.5C 239.548,133.955 239.215,132.288 239.5,130.5C 240.822,130.67 241.989,130.337 243,129.5C 243.333,127.833 243.667,126.167 244,124.5C 246.493,123.054 248.327,123.721 249.5,126.5C 248.204,128.579 246.538,130.246 244.5,131.5C 245.122,136.095 247.789,138.428 252.5,138.5C 253.833,137.5 255.167,136.5 256.5,135.5C 257.417,136.127 258.417,136.461 259.5,136.5 Z"/></g>
<g><path style="opacity:1" fill="#bcb9eb" d="M 231.5,149.5 C 229.833,149.5 228.167,149.5 226.5,149.5C 226.038,144.756 227.538,143.756 231,146.5C 231.483,147.448 231.649,148.448 231.5,149.5 Z"/></g>
<g><path style="opacity:1" fill="#b8b5ea" d="M 17.5,160.5 C 19.7721,159.236 22.1055,159.402 24.5,161C 29.5064,165.526 33.6731,170.693 37,176.5C 37.0433,170.105 39.8766,168.272 45.5,171C 49.0933,175.857 50.9266,181.357 51,187.5C 56.7497,182.689 60.2497,184.022 61.5,191.5C 50.2385,190.993 45.7385,196.326 48,207.5C 48.8041,210.146 50.3041,212.146 52.5,213.5C 50.8333,213.5 49.1667,213.5 47.5,213.5C 38.256,195.339 28.256,177.672 17.5,160.5 Z"/></g>
<g><path style="opacity:1" fill="#918ede" d="M 17.5,160.5 C 28.256,177.672 38.256,195.339 47.5,213.5C 46.5,213.5 45.5,213.5 44.5,213.5C 41.9948,210.163 39.1615,209.83 36,212.5C 35.3083,213.437 35.475,214.103 36.5,214.5C 36.1583,215.338 35.4916,215.672 34.5,215.5C 31.9209,210.61 28.2542,206.944 23.5,204.5C 23.9382,204.565 24.2716,204.399 24.5,204C 18.6612,199.001 14.6612,192.834 12.5,185.5C 14.4113,180.941 17.4113,180.274 21.5,183.5C 21.8333,183.167 22.1667,182.833 22.5,182.5C 18.6678,175.411 17.0011,168.077 17.5,160.5 Z"/></g>
<g><path style="opacity:1" fill="#9591de" d="M 114.5,167.5 C 125.034,172.99 136.034,173.823 147.5,170C 150.025,169.576 152.025,168.41 153.5,166.5C 159.948,165.413 166.448,164.746 173,164.5C 179.096,163.9 184.596,165.233 189.5,168.5C 170.757,169.881 152.257,172.881 134,177.5C 121.234,173.801 108.401,170.301 95.5,167C 90.6486,166.826 85.9819,166.326 81.5,165.5C 92.6111,163.823 103.611,164.49 114.5,167.5 Z"/></g>
<g><path style="opacity:1" fill="#b8b4e9" d="M 81.5,165.5 C 85.9819,166.326 90.6486,166.826 95.5,167C 108.401,170.301 121.234,173.801 134,177.5C 152.257,172.881 170.757,169.881 189.5,168.5C 196.274,171.858 198.274,177.191 195.5,184.5C 189.321,187.446 182.988,189.78 176.5,191.5C 176.5,192.167 176.5,192.833 176.5,193.5C 175.776,191.782 175.109,189.948 174.5,188C 170.988,188.05 167.488,188.55 164,189.5C 160.929,189.216 158.095,188.216 155.5,186.5C 153.828,190.519 152.162,194.519 150.5,198.5C 140.977,198.092 131.311,198.092 121.5,198.5C 117.554,198.677 113.554,198.344 109.5,197.5C 109.586,196.504 109.252,195.671 108.5,195C 98.5825,194.228 88.9158,192.395 79.5,189.5C 77.6075,188.298 75.7742,186.965 74,185.5C 68.7079,175.71 71.2079,169.043 81.5,165.5 Z"/></g>
<g><path style="opacity:1" fill="#eda58f" d="M 225.5,165.5 C 227.372,166.511 229.372,167.345 231.5,168C 232.451,168.718 232.617,169.551 232,170.5C 229.452,169.476 226.952,168.31 224.5,167C 225.056,166.617 225.389,166.117 225.5,165.5 Z"/></g>
<g><path style="opacity:1" fill="#b3afe8" d="M 237.5,179.5 C 230.663,190.502 224.33,201.836 218.5,213.5C 205.833,213.5 193.167,213.5 180.5,213.5C 180.328,212.508 180.662,211.842 181.5,211.5C 189.174,211.666 196.841,211.5 204.5,211C 201.99,206.819 202.157,202.652 205,198.5C 207.632,195.808 209.966,196.141 212,199.5C 212.084,195.565 213.084,191.898 215,188.5C 216.789,186.771 218.956,186.104 221.5,186.5C 221.338,188.527 221.505,190.527 222,192.5C 224.56,187.884 227.727,183.718 231.5,180C 233.565,178.458 235.565,178.291 237.5,179.5 Z"/></g>
<g><path style="opacity:1" fill="#928fde" d="M 237.5,179.5 C 238.124,179.917 238.457,180.584 238.5,181.5C 237.059,186.971 235.559,192.305 234,197.5C 237.237,194.505 239.737,194.838 241.5,198.5C 239.538,204.251 236.205,209.084 231.5,213C 231.728,213.399 232.062,213.565 232.5,213.5C 229.216,215.117 226.549,217.45 224.5,220.5C 224.557,219.391 224.89,218.391 225.5,217.5C 226.29,216.206 227.29,215.039 228.5,214C 225.183,213.502 221.85,213.335 218.5,213.5C 224.33,201.836 230.663,190.502 237.5,179.5 Z"/></g>
<g><path style="opacity:1" fill="#f2c8ba" d="M 176.5,193.5 C 176.5,193.833 176.5,194.167 176.5,194.5C 179.626,199.748 181.292,205.414 181.5,211.5C 180.662,211.842 180.328,212.508 180.5,213.5C 179.655,214.671 178.989,216.005 178.5,217.5C 177.833,217.5 177.167,217.5 176.5,217.5C 176.34,215.847 175.674,214.514 174.5,213.5C 174.5,213.167 174.5,212.833 174.5,212.5C 173.555,208.058 171.221,204.558 167.5,202C 162.049,199.863 156.382,198.697 150.5,198.5C 152.162,194.519 153.828,190.519 155.5,186.5C 158.095,188.216 160.929,189.216 164,189.5C 167.488,188.55 170.988,188.05 174.5,188C 175.109,189.948 175.776,191.782 176.5,193.5 Z"/></g>
<g><path style="opacity:1" fill="#f0c5b9" d="M 79.5,189.5 C 88.9158,192.395 98.5825,194.228 108.5,195C 109.252,195.671 109.586,196.504 109.5,197.5C 101.034,196.744 93.0337,198.244 85.5,202C 82.4608,205.279 80.4608,209.113 79.5,213.5C 78.8444,214.278 78.0111,214.944 77,215.5C 75.9701,215.164 75.4701,214.497 75.5,213.5C 74.4886,209.888 74.3219,206.221 75,202.5C 77.0742,199.025 78.5742,195.358 79.5,191.5C 79.5,190.833 79.5,190.167 79.5,189.5 Z"/></g>
<g><path style="opacity:1" fill="#4542c8" d="M 61.5,191.5 C 67.5,191.5 73.5,191.5 79.5,191.5C 78.5742,195.358 77.0742,199.025 75,202.5C 74.3219,206.221 74.4886,209.888 75.5,213.5C 67.8333,213.5 60.1667,213.5 52.5,213.5C 50.3041,212.146 48.8041,210.146 48,207.5C 45.7385,196.326 50.2385,190.993 61.5,191.5 Z"/></g>
<g><path style="opacity:1" fill="#5d56cf" d="M 176.5,191.5 C 186.506,191.334 196.506,191.5 206.5,192C 205.833,192.667 205.167,193.333 204.5,194C 195.173,194.5 185.839,194.666 176.5,194.5C 176.5,194.167 176.5,193.833 176.5,193.5C 176.5,192.833 176.5,192.167 176.5,191.5 Z"/></g>
<g><path style="opacity:1" fill="#4541c8" d="M 109.5,197.5 C 113.554,198.344 117.554,198.677 121.5,198.5C 119.54,204.748 121.54,209.248 127.5,212C 143.163,212.5 158.83,212.667 174.5,212.5C 174.5,212.833 174.5,213.167 174.5,213.5C 142.833,213.5 111.167,213.5 79.5,213.5C 80.4608,209.113 82.4608,205.279 85.5,202C 93.0337,198.244 101.034,196.744 109.5,197.5 Z"/></g>
<g><path style="opacity:1" fill="#f7f6fc" d="M 150.5,198.5 C 156.382,198.697 162.049,199.863 167.5,202C 171.221,204.558 173.555,208.058 174.5,212.5C 158.83,212.667 143.163,212.5 127.5,212C 121.54,209.248 119.54,204.748 121.5,198.5C 131.311,198.092 140.977,198.092 150.5,198.5 Z"/></g>
<g><path style="opacity:0.992" fill="#4643c9" d="M 23.5,204.5 C 28.2542,206.944 31.9209,210.61 34.5,215.5C 32.1289,217.997 31.1289,220.997 31.5,224.5C 21.3198,219.244 10.9864,214.244 0.5,209.5C 1.65938,207.75 3.32604,206.75 5.5,206.5C 10.248,207.856 14.9147,209.523 19.5,211.5C 19.5938,209.761 19.7605,207.761 20,205.5C 21.0113,204.663 22.1779,204.33 23.5,204.5 Z"/></g>
<g><path style="opacity:0.983" fill="#918ddc" d="M 0.5,209.5 C 10.9864,214.244 21.3198,219.244 31.5,224.5C 31.3347,228.182 31.5014,231.848 32,235.5C 33.2506,238.381 35.4173,240.214 38.5,241C 44.4908,241.499 50.4908,241.666 56.5,241.5C 46.3074,242.772 35.974,242.772 25.5,241.5C 23.4776,239.581 23.1443,237.414 24.5,235C 20.8733,233.677 17.2066,232.511 13.5,231.5C 9.39542,230.252 7.56208,227.585 8,223.5C 8.38258,222.944 8.88258,222.611 9.5,222.5C 14.4211,222.354 14.4211,221.354 9.5,219.5C 5.25128,217.227 2.25128,213.894 0.5,209.5 Z"/></g>
<g><path style="opacity:1" fill="#4943c7" d="M 44.5,213.5 C 41.7628,213.401 39.0961,213.735 36.5,214.5C 35.475,214.103 35.3083,213.437 36,212.5C 39.1615,209.83 41.9948,210.163 44.5,213.5 Z"/></g>
<g><path style="opacity:1" fill="#e7805e" d="M 44.5,213.5 C 45.5,213.5 46.5,213.5 47.5,213.5C 49.1667,213.5 50.8333,213.5 52.5,213.5C 60.1667,213.5 67.8333,213.5 75.5,213.5C 75.4701,214.497 75.9701,215.164 77,215.5C 78.0111,214.944 78.8444,214.278 79.5,213.5C 111.167,213.5 142.833,213.5 174.5,213.5C 175.674,214.514 176.34,215.847 176.5,217.5C 158.164,217.333 139.83,217.5 121.5,218C 115.975,220.919 114.142,225.419 116,231.5C 117.167,234 119,235.833 121.5,237C 138.163,237.5 154.83,237.667 171.5,237.5C 173.262,238.262 174.262,239.596 174.5,241.5C 135.167,241.5 95.8333,241.5 56.5,241.5C 50.4908,241.666 44.4908,241.499 38.5,241C 35.4173,240.214 33.2506,238.381 32,235.5C 31.5014,231.848 31.3347,228.182 31.5,224.5C 31.1289,220.997 32.1289,217.997 34.5,215.5C 35.4916,215.672 36.1583,215.338 36.5,214.5C 39.0961,213.735 41.7628,213.401 44.5,213.5 Z"/></g>
<g><path style="opacity:1" fill="#e7805e" d="M 180.5,213.5 C 193.167,213.5 205.833,213.5 218.5,213.5C 221.85,213.335 225.183,213.502 228.5,214C 227.29,215.039 226.29,216.206 225.5,217.5C 209.833,217.5 194.167,217.5 178.5,217.5C 178.989,216.005 179.655,214.671 180.5,213.5 Z"/></g>
<g><path style="opacity:1" fill="#4643c9" d="M 232.5,213.5 C 233.822,213.33 234.989,213.663 236,214.5C 235.737,215.951 235.904,217.284 236.5,218.5C 240.656,215.609 244.99,214.942 249.5,216.5C 241.385,221.059 233.052,225.392 224.5,229.5C 223.534,227.604 223.201,225.604 223.5,223.5C 223.557,222.391 223.89,221.391 224.5,220.5C 226.549,217.45 229.216,215.117 232.5,213.5 Z"/></g>
<g><path style="opacity:1" fill="#fefcfc" d="M 176.5,217.5 C 177.167,217.5 177.833,217.5 178.5,217.5C 194.167,217.5 209.833,217.5 225.5,217.5C 224.89,218.391 224.557,219.391 224.5,220.5C 223.89,221.391 223.557,222.391 223.5,223.5C 222.183,228.287 222.85,232.954 225.5,237.5C 211.5,237.5 197.5,237.5 183.5,237.5C 180.363,233.734 176.696,230.567 172.5,228C 169.183,227.502 165.85,227.335 162.5,227.5C 160.335,227.116 158.668,227.783 157.5,229.5C 160.086,230.48 162.753,230.813 165.5,230.5C 168.2,232.234 170.2,234.568 171.5,237.5C 154.83,237.667 138.163,237.5 121.5,237C 119,235.833 117.167,234 116,231.5C 114.142,225.419 115.975,220.919 121.5,218C 139.83,217.5 158.164,217.333 176.5,217.5 Z"/></g>
<g><path style="opacity:1" fill="#9390de" d="M 249.5,216.5 C 250.525,216.897 250.692,217.563 250,218.5C 247.106,221.361 243.939,223.861 240.5,226C 244.222,226.418 245.222,228.251 243.5,231.5C 240.428,233.414 237.095,234.748 233.5,235.5C 234.089,237.712 233.423,239.712 231.5,241.5C 230.5,241.5 229.5,241.5 228.5,241.5C 227.488,240.128 226.488,238.795 225.5,237.5C 222.85,232.954 222.183,228.287 223.5,223.5C 223.201,225.604 223.534,227.604 224.5,229.5C 233.052,225.392 241.385,221.059 249.5,216.5 Z"/></g>
<g><path style="opacity:0.767" fill="#eeeefa" d="M 9.5,219.5 C 14.4211,221.354 14.4211,222.354 9.5,222.5C 9.5,221.5 9.5,220.5 9.5,219.5 Z"/></g>
<g><path style="opacity:1" fill="#4b48cb" d="M 162.5,227.5 C 163.694,228.272 164.694,229.272 165.5,230.5C 162.753,230.813 160.086,230.48 157.5,229.5C 158.668,227.783 160.335,227.116 162.5,227.5 Z"/></g>
<g><path style="opacity:0.974" fill="#928edd" d="M 162.5,227.5 C 165.85,227.335 169.183,227.502 172.5,228C 176.696,230.567 180.363,233.734 183.5,237.5C 183.738,239.404 184.738,240.738 186.5,241.5C 186.833,242.5 187.5,243.167 188.5,243.5C 190.583,246.651 192.916,249.651 195.5,252.5C 191.541,253.66 187.541,253.827 183.5,253C 180.949,249.956 178.616,246.789 176.5,243.5C 176.167,242.5 175.5,241.833 174.5,241.5C 174.262,239.596 173.262,238.262 171.5,237.5C 170.2,234.568 168.2,232.234 165.5,230.5C 164.694,229.272 163.694,228.272 162.5,227.5 Z"/></g>
<g><path style="opacity:0.945" fill="#f3f3fb" d="M 13.5,231.5 C 17.2066,232.511 20.8733,233.677 24.5,235C 23.1443,237.414 23.4776,239.581 25.5,241.5C 22.7628,241.599 20.0961,241.265 17.5,240.5C 15.9091,237.648 14.5758,234.648 13.5,231.5 Z"/></g>
<g><path style="opacity:1" fill="#e7805e" d="M 183.5,237.5 C 197.5,237.5 211.5,237.5 225.5,237.5C 226.488,238.795 227.488,240.128 228.5,241.5C 214.5,241.5 200.5,241.5 186.5,241.5C 184.738,240.738 183.738,239.404 183.5,237.5 Z"/></g>
<g><path style="opacity:0.627" fill="#4241c7" d="M -0.5,240.5 C 5.5,240.5 11.5,240.5 17.5,240.5C 20.0961,241.265 22.7628,241.599 25.5,241.5C 35.974,242.772 46.3074,242.772 56.5,241.5C 95.8333,241.5 135.167,241.5 174.5,241.5C 175.5,241.833 176.167,242.5 176.5,243.5C 117.5,243.5 58.5,243.5 -0.5,243.5C -0.5,242.5 -0.5,241.5 -0.5,240.5 Z"/></g>
<g><path style="opacity:0.627" fill="#413fc7" d="M 245.5,240.5 C 250.167,240.5 254.833,240.5 259.5,240.5C 259.5,241.5 259.5,242.5 259.5,243.5C 235.833,243.5 212.167,243.5 188.5,243.5C 187.5,243.167 186.833,242.5 186.5,241.5C 200.5,241.5 214.5,241.5 228.5,241.5C 229.5,241.5 230.5,241.5 231.5,241.5C 236.263,241.774 240.93,241.441 245.5,240.5 Z"/></g>
</svg>
