<svg width="73" height="72" viewBox="0 0 73 72" fill="none" xmlns="http://www.w3.org/2000/svg">
<path fill-rule="evenodd" clip-rule="evenodd" d="M6.5 36.0174C6.5 19.4588 19.9653 6 36.5 6C53.0347 6 66.5 19.4588 66.5 36.0174C66.5 52.5412 53.0347 66 36.5 66C19.9653 66 6.5 52.5412 6.5 36.0174ZM47.5039 39.0535C47.8224 38.7352 48.2278 38.2431 48.3147 38.1273C48.778 37.5195 49.0097 36.767 49.0097 36.0174C49.0097 35.1751 48.749 34.3936 48.2568 33.7569C48.2164 33.7165 48.1374 33.6306 48.0345 33.5185C47.8418 33.3089 47.5654 33.0079 47.3012 32.7438C44.9266 30.1968 38.7297 26.0289 35.4865 24.7554C34.9942 24.5557 33.749 24.1187 33.083 24.0897C32.4459 24.0897 31.8378 24.2344 31.2587 24.5239C30.5348 24.9291 29.9556 25.5658 29.6371 26.3184C29.4344 26.8394 29.1158 28.4023 29.1158 28.4313C28.7973 30.1389 28.6236 32.9175 28.6236 35.9855C28.6236 38.9117 28.7973 41.5716 29.0579 43.3082C29.0651 43.3154 29.09 43.4396 29.1287 43.6326C29.2463 44.2192 29.4914 45.4412 29.7529 45.9421C30.39 47.1577 31.6351 47.9103 32.9672 47.9103H33.083C33.9517 47.8813 35.7761 47.1288 35.7761 47.0999C38.8456 45.8263 44.8977 41.8611 47.3301 39.2272L47.5039 39.0535Z" fill="#4838D1"/>
</svg>
