<svg width="40" height="40" viewBox="0 0 40 40" fill="none" xmlns="http://www.w3.org/2000/svg">
<path fill-rule="evenodd" clip-rule="evenodd" d="M3.33331 19.9996C3.33331 29.2044 10.7957 36.6663 20 36.6663C29.2042 36.6663 36.6666 29.2044 36.6666 19.9996C36.6666 10.7959 29.2037 3.33293 20 3.33293C10.7963 3.33293 3.33331 10.7959 3.33331 19.9996ZM5.83331 19.9996C5.83331 12.1766 12.177 5.83293 20 5.83293C27.823 5.83293 34.1666 12.1766 34.1666 19.9996C34.1666 27.8236 27.8236 34.1663 20 34.1663C12.1764 34.1663 5.83331 27.8236 5.83331 19.9996ZM16.5928 25.0391C16.2287 25.5276 16.2675 26.2222 16.7104 26.6669C17.1975 27.1561 17.9889 27.1578 18.4781 26.6707L24.2881 20.8857L24.4098 20.7453C24.7748 20.2552 24.7342 19.5583 24.2881 19.1141L18.4781 13.3291L18.3377 13.2084C17.8475 12.8464 17.1532 12.8882 16.7104 13.333L16.5896 13.4734C16.2276 13.9635 16.2694 14.6579 16.7142 15.1007L21.6333 20.0016L16.7142 24.8991L16.5928 25.0391Z" fill="#2E2E5D"/>
</svg>
