<svg width="300" height="182" viewBox="0 0 300 182" fill="none" xmlns="http://www.w3.org/2000/svg">
<path d="M72 8C72 4.68629 74.6863 2 78 2H276C279.314 2 282 4.68629 282 8V130H72V8Z" fill="white" stroke="#090638" stroke-width="4"/>
<rect x="54.5" y="128.5" width="245" height="7" fill="#090638" stroke="#090638"/>
<rect x="2" y="44" width="118" height="90" rx="6" fill="white" stroke="#090638" stroke-width="4"/>
<rect x="104.5" y="28.5" width="49" height="106" rx="6.5" fill="white" stroke="#090638" stroke-width="3"/>
<path d="M117.5 27.5H141.5V31C141.5 32.933 139.933 34.5 138 34.5H121C119.067 34.5 117.5 32.933 117.5 31V27.5Z" fill="#090638" stroke="#090638"/>
<path d="M45.688 167.112C45.688 168.04 45.368 168.813 44.728 169.432C44.0987 170.04 43.1333 170.344 41.832 170.344H39.688V175H38.232V163.848H41.832C43.0907 163.848 44.0453 164.152 44.696 164.76C45.3573 165.368 45.688 166.152 45.688 167.112ZM41.832 169.144C42.6427 169.144 43.24 168.968 43.624 168.616C44.008 168.264 44.2 167.763 44.2 167.112C44.2 165.736 43.4107 165.048 41.832 165.048H39.688V169.144H41.832ZM51.8496 166.072C52.511 166.072 53.1083 166.216 53.6416 166.504C54.175 166.781 54.591 167.203 54.8896 167.768C55.199 168.333 55.3536 169.021 55.3536 169.832V175H53.9136V170.04C53.9136 169.165 53.695 168.499 53.2576 168.04C52.8203 167.571 52.223 167.336 51.4656 167.336C50.6976 167.336 50.0843 167.576 49.6256 168.056C49.1776 168.536 48.9536 169.235 48.9536 170.152V175H47.4976V163.16H48.9536V167.48C49.2416 167.032 49.6363 166.685 50.1376 166.44C50.6496 166.195 51.2203 166.072 51.8496 166.072ZM61.556 175.144C60.7347 175.144 59.988 174.957 59.316 174.584C58.6547 174.211 58.132 173.683 57.748 173C57.3747 172.307 57.188 171.507 57.188 170.6C57.188 169.704 57.38 168.915 57.764 168.232C58.1587 167.539 58.692 167.011 59.364 166.648C60.036 166.275 60.788 166.088 61.62 166.088C62.452 166.088 63.204 166.275 63.876 166.648C64.548 167.011 65.076 167.533 65.46 168.216C65.8547 168.899 66.052 169.693 66.052 170.6C66.052 171.507 65.8493 172.307 65.444 173C65.0493 173.683 64.5107 174.211 63.828 174.584C63.1453 174.957 62.388 175.144 61.556 175.144ZM61.556 173.864C62.0787 173.864 62.5693 173.741 63.028 173.496C63.4867 173.251 63.8547 172.883 64.132 172.392C64.42 171.901 64.564 171.304 64.564 170.6C64.564 169.896 64.4253 169.299 64.148 168.808C63.8707 168.317 63.508 167.955 63.06 167.72C62.612 167.475 62.1267 167.352 61.604 167.352C61.0707 167.352 60.58 167.475 60.132 167.72C59.6947 167.955 59.3427 168.317 59.076 168.808C58.8093 169.299 58.676 169.896 58.676 170.6C58.676 171.315 58.804 171.917 59.06 172.408C59.3267 172.899 59.6787 173.267 60.116 173.512C60.5533 173.747 61.0333 173.864 61.556 173.864ZM72.2384 166.072C73.305 166.072 74.169 166.397 74.8304 167.048C75.4917 167.688 75.8224 168.616 75.8224 169.832V175H74.3824V170.04C74.3824 169.165 74.1637 168.499 73.7264 168.04C73.289 167.571 72.6917 167.336 71.9344 167.336C71.1664 167.336 70.553 167.576 70.0944 168.056C69.6464 168.536 69.4224 169.235 69.4224 170.152V175H67.9664V166.232H69.4224V167.48C69.7104 167.032 70.0997 166.685 70.5904 166.44C71.0917 166.195 71.641 166.072 72.2384 166.072ZM86.2008 170.28C86.2008 170.557 86.1848 170.851 86.1528 171.16H79.1448C79.1981 172.024 79.4914 172.701 80.0248 173.192C80.5688 173.672 81.2248 173.912 81.9928 173.912C82.6221 173.912 83.1448 173.768 83.5608 173.48C83.9874 173.181 84.2861 172.787 84.4568 172.296H86.0248C85.7901 173.139 85.3208 173.827 84.6168 174.36C83.9128 174.883 83.0381 175.144 81.9928 175.144C81.1608 175.144 80.4141 174.957 79.7528 174.584C79.1021 174.211 78.5901 173.683 78.2168 173C77.8434 172.307 77.6568 171.507 77.6568 170.6C77.6568 169.693 77.8381 168.899 78.2008 168.216C78.5634 167.533 79.0701 167.011 79.7208 166.648C80.3821 166.275 81.1394 166.088 81.9928 166.088C82.8248 166.088 83.5608 166.269 84.2008 166.632C84.8408 166.995 85.3314 167.496 85.6728 168.136C86.0248 168.765 86.2008 169.48 86.2008 170.28ZM84.6968 169.976C84.6968 169.421 84.5741 168.947 84.3288 168.552C84.0834 168.147 83.7474 167.843 83.3208 167.64C82.9048 167.427 82.4408 167.32 81.9288 167.32C81.1928 167.32 80.5634 167.555 80.0408 168.024C79.5288 168.493 79.2354 169.144 79.1608 169.976H84.6968Z" fill="#6A6A8B"/>
<path d="M102.983 171.624C102.439 171.624 101.975 171.437 101.591 171.064C101.218 170.68 101.031 170.216 101.031 169.672C101.031 169.117 101.218 168.653 101.591 168.28C101.975 167.896 102.439 167.704 102.983 167.704C103.538 167.704 104.007 167.896 104.391 168.28C104.775 168.653 104.967 169.117 104.967 169.672C104.967 170.216 104.775 170.68 104.391 171.064C104.007 171.437 103.538 171.624 102.983 171.624ZM123.096 163.848V165.032H120.056V175H118.6V165.032H115.544V163.848H123.096ZM124.344 170.584C124.344 169.688 124.526 168.904 124.888 168.232C125.251 167.549 125.747 167.021 126.376 166.648C127.016 166.275 127.726 166.088 128.504 166.088C129.272 166.088 129.939 166.253 130.504 166.584C131.07 166.915 131.491 167.331 131.768 167.832V166.232H133.24V175H131.768V173.368C131.48 173.88 131.048 174.307 130.472 174.648C129.907 174.979 129.246 175.144 128.488 175.144C127.71 175.144 127.006 174.952 126.376 174.568C125.747 174.184 125.251 173.645 124.888 172.952C124.526 172.259 124.344 171.469 124.344 170.584ZM131.768 170.6C131.768 169.939 131.635 169.363 131.368 168.872C131.102 168.381 130.739 168.008 130.28 167.752C129.832 167.485 129.336 167.352 128.792 167.352C128.248 167.352 127.752 167.48 127.304 167.736C126.856 167.992 126.499 168.365 126.232 168.856C125.966 169.347 125.832 169.923 125.832 170.584C125.832 171.256 125.966 171.843 126.232 172.344C126.499 172.835 126.856 173.213 127.304 173.48C127.752 173.736 128.248 173.864 128.792 173.864C129.336 173.864 129.832 173.736 130.28 173.48C130.739 173.213 131.102 172.835 131.368 172.344C131.635 171.843 131.768 171.261 131.768 170.6ZM137.157 167.864C137.455 167.341 137.893 166.915 138.469 166.584C139.045 166.253 139.701 166.088 140.437 166.088C141.226 166.088 141.935 166.275 142.565 166.648C143.194 167.021 143.69 167.549 144.053 168.232C144.415 168.904 144.597 169.688 144.597 170.584C144.597 171.469 144.415 172.259 144.053 172.952C143.69 173.645 143.189 174.184 142.549 174.568C141.919 174.952 141.215 175.144 140.437 175.144C139.679 175.144 139.013 174.979 138.437 174.648C137.871 174.317 137.445 173.896 137.157 173.384V175H135.701V163.16H137.157V167.864ZM143.109 170.584C143.109 169.923 142.975 169.347 142.709 168.856C142.442 168.365 142.079 167.992 141.621 167.736C141.173 167.48 140.677 167.352 140.133 167.352C139.599 167.352 139.103 167.485 138.645 167.752C138.197 168.008 137.834 168.387 137.557 168.888C137.29 169.379 137.157 169.949 137.157 170.6C137.157 171.261 137.29 171.843 137.557 172.344C137.834 172.835 138.197 173.213 138.645 173.48C139.103 173.736 139.599 173.864 140.133 173.864C140.677 173.864 141.173 173.736 141.621 173.48C142.079 173.213 142.442 172.835 142.709 172.344C142.975 171.843 143.109 171.256 143.109 170.584ZM147.969 163.16V175H146.513V163.16H147.969ZM158.451 170.28C158.451 170.557 158.435 170.851 158.403 171.16H151.395C151.448 172.024 151.741 172.701 152.275 173.192C152.819 173.672 153.475 173.912 154.243 173.912C154.872 173.912 155.395 173.768 155.811 173.48C156.237 173.181 156.536 172.787 156.707 172.296H158.275C158.04 173.139 157.571 173.827 156.867 174.36C156.163 174.883 155.288 175.144 154.243 175.144C153.411 175.144 152.664 174.957 152.003 174.584C151.352 174.211 150.84 173.683 150.467 173C150.093 172.307 149.907 171.507 149.907 170.6C149.907 169.693 150.088 168.899 150.451 168.216C150.813 167.533 151.32 167.011 151.971 166.648C152.632 166.275 153.389 166.088 154.243 166.088C155.075 166.088 155.811 166.269 156.451 166.632C157.091 166.995 157.581 167.496 157.923 168.136C158.275 168.765 158.451 169.48 158.451 170.28ZM156.947 169.976C156.947 169.421 156.824 168.947 156.579 168.552C156.333 168.147 155.997 167.843 155.571 167.64C155.155 167.427 154.691 167.32 154.179 167.32C153.443 167.32 152.813 167.555 152.291 168.024C151.779 168.493 151.485 169.144 151.411 169.976H156.947ZM162.149 167.432V172.6C162.149 173.027 162.239 173.331 162.421 173.512C162.602 173.683 162.917 173.768 163.365 173.768H164.437V175H163.125C162.314 175 161.706 174.813 161.301 174.44C160.895 174.067 160.693 173.453 160.693 172.6V167.432H159.557V166.232H160.693V164.024H162.149V166.232H164.437V167.432H162.149Z" fill="#6A6A8B"/>
<path d="M180.983 171.624C180.439 171.624 179.975 171.437 179.591 171.064C179.218 170.68 179.031 170.216 179.031 169.672C179.031 169.117 179.218 168.653 179.591 168.28C179.975 167.896 180.439 167.704 180.983 167.704C181.538 167.704 182.007 167.896 182.391 168.28C182.775 168.653 182.967 169.117 182.967 169.672C182.967 170.216 182.775 170.68 182.391 171.064C182.007 171.437 181.538 171.624 180.983 171.624ZM197.704 163.848C198.92 163.848 199.971 164.077 200.856 164.536C201.752 164.984 202.435 165.629 202.904 166.472C203.384 167.315 203.624 168.307 203.624 169.448C203.624 170.589 203.384 171.581 202.904 172.424C202.435 173.256 201.752 173.896 200.856 174.344C199.971 174.781 198.92 175 197.704 175H194.232V163.848H197.704ZM197.704 173.8C199.144 173.8 200.243 173.421 201 172.664C201.757 171.896 202.136 170.824 202.136 169.448C202.136 168.061 201.752 166.979 200.984 166.2C200.227 165.421 199.133 165.032 197.704 165.032H195.688V173.8H197.704ZM213.545 170.28C213.545 170.557 213.529 170.851 213.497 171.16H206.489C206.542 172.024 206.835 172.701 207.369 173.192C207.913 173.672 208.569 173.912 209.337 173.912C209.966 173.912 210.489 173.768 210.905 173.48C211.331 173.181 211.63 172.787 211.801 172.296H213.369C213.134 173.139 212.665 173.827 211.961 174.36C211.257 174.883 210.382 175.144 209.337 175.144C208.505 175.144 207.758 174.957 207.097 174.584C206.446 174.211 205.934 173.683 205.561 173C205.187 172.307 205.001 171.507 205.001 170.6C205.001 169.693 205.182 168.899 205.545 168.216C205.907 167.533 206.414 167.011 207.065 166.648C207.726 166.275 208.483 166.088 209.337 166.088C210.169 166.088 210.905 166.269 211.545 166.632C212.185 166.995 212.675 167.496 213.017 168.136C213.369 168.765 213.545 169.48 213.545 170.28ZM212.041 169.976C212.041 169.421 211.918 168.947 211.673 168.552C211.427 168.147 211.091 167.843 210.665 167.64C210.249 167.427 209.785 167.32 209.273 167.32C208.537 167.32 207.907 167.555 207.385 168.024C206.873 168.493 206.579 169.144 206.505 169.976H212.041ZM218.57 175.144C217.898 175.144 217.296 175.032 216.762 174.808C216.229 174.573 215.808 174.253 215.498 173.848C215.189 173.432 215.018 172.957 214.986 172.424H216.49C216.533 172.861 216.736 173.219 217.098 173.496C217.472 173.773 217.957 173.912 218.554 173.912C219.109 173.912 219.546 173.789 219.866 173.544C220.186 173.299 220.346 172.989 220.346 172.616C220.346 172.232 220.176 171.949 219.834 171.768C219.493 171.576 218.965 171.389 218.25 171.208C217.6 171.037 217.066 170.867 216.65 170.696C216.245 170.515 215.893 170.253 215.594 169.912C215.306 169.56 215.162 169.101 215.162 168.536C215.162 168.088 215.296 167.677 215.562 167.304C215.829 166.931 216.208 166.637 216.698 166.424C217.189 166.2 217.749 166.088 218.378 166.088C219.349 166.088 220.133 166.333 220.73 166.824C221.328 167.315 221.648 167.987 221.69 168.84H220.234C220.202 168.381 220.016 168.013 219.674 167.736C219.344 167.459 218.896 167.32 218.33 167.32C217.808 167.32 217.392 167.432 217.082 167.656C216.773 167.88 216.618 168.173 216.618 168.536C216.618 168.824 216.709 169.064 216.89 169.256C217.082 169.437 217.317 169.587 217.594 169.704C217.882 169.811 218.277 169.933 218.778 170.072C219.408 170.243 219.92 170.413 220.314 170.584C220.709 170.744 221.045 170.989 221.322 171.32C221.61 171.651 221.76 172.083 221.77 172.616C221.77 173.096 221.637 173.528 221.37 173.912C221.104 174.296 220.725 174.6 220.234 174.824C219.754 175.037 219.2 175.144 218.57 175.144ZM228.722 175L225.282 171.128V175H223.826V163.16H225.282V170.12L228.658 166.232H230.69L226.562 170.6L230.706 175H228.722ZM233.836 167.432V172.6C233.836 173.027 233.927 173.331 234.108 173.512C234.289 173.683 234.604 173.768 235.052 173.768H236.124V175H234.812C234.001 175 233.393 174.813 232.988 174.44C232.583 174.067 232.38 173.453 232.38 172.6V167.432H231.244V166.232H232.38V164.024H233.836V166.232H236.124V167.432H233.836ZM241.712 175.144C240.891 175.144 240.144 174.957 239.472 174.584C238.811 174.211 238.288 173.683 237.904 173C237.531 172.307 237.344 171.507 237.344 170.6C237.344 169.704 237.536 168.915 237.92 168.232C238.315 167.539 238.848 167.011 239.52 166.648C240.192 166.275 240.944 166.088 241.776 166.088C242.608 166.088 243.36 166.275 244.032 166.648C244.704 167.011 245.232 167.533 245.616 168.216C246.011 168.899 246.208 169.693 246.208 170.6C246.208 171.507 246.006 172.307 245.6 173C245.206 173.683 244.667 174.211 243.984 174.584C243.302 174.957 242.544 175.144 241.712 175.144ZM241.712 173.864C242.235 173.864 242.726 173.741 243.184 173.496C243.643 173.251 244.011 172.883 244.288 172.392C244.576 171.901 244.72 171.304 244.72 170.6C244.72 169.896 244.582 169.299 244.304 168.808C244.027 168.317 243.664 167.955 243.216 167.72C242.768 167.475 242.283 167.352 241.76 167.352C241.227 167.352 240.736 167.475 240.288 167.72C239.851 167.955 239.499 168.317 239.232 168.808C238.966 169.299 238.832 169.896 238.832 170.6C238.832 171.315 238.96 171.917 239.216 172.408C239.483 172.899 239.835 173.267 240.272 173.512C240.71 173.747 241.19 173.864 241.712 173.864ZM249.579 167.848C249.867 167.347 250.293 166.931 250.859 166.6C251.435 166.259 252.101 166.088 252.859 166.088C253.637 166.088 254.341 166.275 254.971 166.648C255.611 167.021 256.112 167.549 256.475 168.232C256.837 168.904 257.019 169.688 257.019 170.584C257.019 171.469 256.837 172.259 256.475 172.952C256.112 173.645 255.611 174.184 254.971 174.568C254.341 174.952 253.637 175.144 252.859 175.144C252.112 175.144 251.451 174.979 250.875 174.648C250.309 174.307 249.877 173.885 249.579 173.384V179.16H248.123V166.232H249.579V167.848ZM255.531 170.584C255.531 169.923 255.397 169.347 255.131 168.856C254.864 168.365 254.501 167.992 254.043 167.736C253.595 167.48 253.099 167.352 252.555 167.352C252.021 167.352 251.525 167.485 251.067 167.752C250.619 168.008 250.256 168.387 249.979 168.888C249.712 169.379 249.579 169.949 249.579 170.6C249.579 171.261 249.712 171.843 249.979 172.344C250.256 172.835 250.619 173.213 251.067 173.48C251.525 173.736 252.021 173.864 252.555 173.864C253.099 173.864 253.595 173.736 254.043 173.48C254.501 173.213 254.864 172.835 255.131 172.344C255.397 171.843 255.531 171.256 255.531 170.584Z" fill="#6A6A8B"/>
</svg>
